SplineFontDB: 3.2
FontName: Shinsen-Medium
FullName: Shinsen Medium
FamilyName: Shinsen
Weight: Medium
Copyright: Copyright (c) 2021, retr0
UComments: "2021-1-28: Created with FontForge (http://fontforge.org)"
Version: 001.000
ItalicAngle: 0
UnderlinePosition: -120
UnderlineWidth: 60
Ascent: 1000
Descent: 200
InvalidEm: 0
LayerCount: 2
Layer: 0 0 "Back" 1
Layer: 1 0 "Fore" 0
XUID: [1021 774 -246617221 13794]
FSType: 0
OS2Version: 0
OS2_WeightWidthSlopeOnly: 0
OS2_UseTypoMetrics: 1
CreationTime: 1611867349
ModificationTime: 1611902138
PfmFamily: 33
TTFWeight: 500
TTFWidth: 5
LineGap: 108
VLineGap: 0
OS2TypoAscent: 0
OS2TypoAOffset: 1
OS2TypoDescent: 0
OS2TypoDOffset: 1
OS2TypoLinegap: 108
OS2WinAscent: 0
OS2WinAOffset: 1
OS2WinDescent: 0
OS2WinDOffset: 1
HheadAscent: 0
HheadAOffset: 1
HheadDescent: 0
HheadDOffset: 1
OS2Vendor: 'PfEd'
Lookup: 258 0 0 "'kern' Horizontal Kerning in Latin lookup 0" { "'kern' Horizontal Kerning in Latin lookup 0-1" [0,0,3] } ['kern' ('DFLT' <'dflt' > 'latn' <'dflt' > ) ]
MarkAttachClasses: 1
DEI: 91125
LangName: 1033 "" "" "" "" "" "" "" "" "" "" "" "" "" "" "" "" "Shinsen"
Encoding: ISO8859-1
UnicodeInterp: none
NameList: AGL For New Fonts
DisplaySize: -48
AntiAlias: 1
FitToEm: 0
WidthSeparation: 100
WinInfo: 0 39 14
BeginPrivate: 0
EndPrivate
TeXData: 1 0 0 174762 87381 58254 428169 1048576 58254 783286 444596 497025 792723 393216 433062 380633 303038 157286 324010 404750 52429 2506097 1059062 262144
BeginChars: 261 190

StartChar: exclam
Encoding: 33 33 0
Width: 180
Flags: HMW
LayerCount: 2
Fore
SplineSet
55 200 m 1
 55 790 l 1
 125 790 l 1
 125 200 l 1
 55 200 l 1
50 40 m 0
 50 62.091796875 67.908203125 80 90 80 c 0
 112.091796875 80 130 62.091796875 130 40 c 0
 130 17.908203125 112.091796875 0 90 0 c 0
 67.908203125 0 50 17.908203125 50 40 c 0
EndSplineSet
Validated: 524289
EndChar

StartChar: quotedbl
Encoding: 34 34 1
Width: 290
Flags: HMW
LayerCount: 2
Fore
SplineSet
170 600 m 1
 170 790 l 1
 240 790 l 1
 240 600 l 1
 170 600 l 1
50 600 m 1
 50 790 l 1
 120 790 l 1
 120 600 l 1
 50 600 l 1
EndSplineSet
Validated: 1
EndChar

StartChar: numbersign
Encoding: 35 35 2
Width: 550
Flags: HMW
LayerCount: 2
Fore
SplineSet
410.830078125 590 m 1
 401.98046875 443.33984375 l 1
 500 443.33984375 l 1
 500 373.33984375 l 1
 397.759765625 373.33984375 l 1
 388.91015625 226.669921875 l 1
 450 226.669921875 l 1
 450 156.669921875 l 1
 384.6796875 156.669921875 l 1
 375.830078125 10 l 1
 305.830078125 10 l 1
 314.690429688 156.669921875 l 1
 218.01953125 156.669921875 l 1
 209.169921875 10 l 1
 139.169921875 10 l 1
 148.01953125 156.66015625 l 1
 50 156.66015625 l 1
 50 226.66015625 l 1
 152.240234375 226.66015625 l 1
 161.08984375 373.330078125 l 1
 100 373.330078125 l 1
 100 443.330078125 l 1
 165.3203125 443.330078125 l 1
 174.169921875 590 l 1
 244.169921875 590 l 1
 235.309570312 443.330078125 l 1
 331.98046875 443.330078125 l 1
 340.830078125 590 l 1
 410.830078125 590 l 1
318.91015625 226.669921875 m 1
 327.759765625 373.33984375 l 1
 231.08984375 373.33984375 l 1
 222.240234375 226.669921875 l 1
 318.91015625 226.669921875 l 1
EndSplineSet
Validated: 524289
EndChar

StartChar: dollar
Encoding: 36 36 3
Width: 500
Flags: HMW
LayerCount: 2
Fore
SplineSet
414.459960938 373.040039062 m 0
 423.5 359.849609375 430.990234375 345.58984375 436.719726562 330.650390625 c 0
 445.349609375 308.150390625 450 284.110351562 450 260 c 2
 450 260 450 200 450 200 c 2
 450 101.48046875 378.76953125 19.6103515625 285 3.0595703125 c 1
 285 -90 l 1
 215 -90 l 1
 215 3.0595703125 l 1
 121.23046875 19.6103515625 50 101.48046875 50 200 c 1
 120 200 l 1
 120 140.330078125 160.200195312 90.0498046875 215 74.76953125 c 1
 215 393.759765625 l 2
 213.360351562 394.01953125 211.73046875 394.299804688 210.099609375 394.610351562 c 0
 152.549804688 405.610351562 101.639648438 447.8203125 77.3203125 500.639648438 c 0
 65.8896484375 525.459960938 60 552.6796875 60 580 c 2
 60 610 l 2
 60 702.969726562 126.790039062 780.33984375 215 796.76953125 c 1
 215 890 l 1
 285 890 l 1
 285 796.76953125 l 1
 373.209960938 780.33984375 440 702.969726562 440 610 c 2
 440 600 l 1
 370 600 l 1
 370 610 l 2
 370 664.099609375 334.200195312 709.830078125 285 724.809570312 c 1
 285 455.26953125 l 1
 337.889648438 444.6796875 383.41015625 418.349609375 414.459960938 373.040039062 c 0
158.719726562 504.009765625 m 0
 174.280273438 485.990234375 193.849609375 475.990234375 215 469.509765625 c 1
 215 724.809570312 l 1
 165.799804688 709.830078125 130 664.08984375 130 610 c 2
 130 610 130 580.009765625 130 580 c 0
 130 552.1796875 140.5703125 525.009765625 158.719726562 504.009765625 c 0
380 200 m 2
 380 200 380 260 380 260 c 2
 380 316.280273438 339.009765625 369.400390625 285 384.490234375 c 1
 285 74.76953125 l 1
 339.799804688 90.0498046875 380 140.330078125 380 200 c 2
EndSplineSet
Validated: 524289
EndChar

StartChar: percent
Encoding: 37 37 4
Width: 630
Flags: HMW
LayerCount: 2
Fore
SplineSet
570 790 m 1
 130 10 l 1
 60 10 l 1
 500 790 l 1
 570 790 l 1
455 250 m 0
 524.040039062 250 580 194.040039062 580 125 c 0
 580 55.9599609375 524.040039062 0 455 0 c 0
 385.959960938 0 330 55.9599609375 330 125 c 0
 330 194.040039062 385.959960938 250 455 250 c 0
455 60 m 0
 490.900390625 60 520 89.099609375 520 125 c 0
 520 160.900390625 490.900390625 190 455 190 c 0
 419.099609375 190 390 160.900390625 390 125 c 0
 390 89.099609375 419.099609375 60 455 60 c 0
175 550 m 0
 105.959960938 550 50 605.959960938 50 675 c 0
 50 744.040039062 105.959960938 800 175 800 c 0
 244.040039062 800 300 744.040039062 300 675 c 0
 300 605.959960938 244.040039062 550 175 550 c 0
175 740 m 0
 139.099609375 740 110 710.900390625 110 675 c 0
 110 639.099609375 139.099609375 610 175 610 c 0
 210.900390625 610 240 639.099609375 240 675 c 0
 240 710.900390625 210.900390625 740 175 740 c 0
EndSplineSet
Validated: 524289
EndChar

StartChar: ampersand
Encoding: 38 38 5
Width: 565
Flags: HMW
LayerCount: 2
Fore
SplineSet
315 390 m 1
 315 460 l 1
 515 460 l 1
 515 390 l 1
 450 390 l 1
 450 200 l 2
 450 150.370117188 431.9296875 104.959960938 401.98046875 70 c 0
 395.240234375 62.1103515625 387.889648438 54.759765625 380 48.01953125 c 0
 345.040039062 18.0703125 299.629882812 0 250 0 c 0
 200.370117188 0 154.959960938 18.0703125 120 48.01953125 c 0
 112.110351562 54.759765625 104.759765625 62.1103515625 98.01953125 70 c 0
 68.0703125 104.959960938 50 150.370117188 50 200 c 2
 50 260 l 2
 50 309.629882812 68.0703125 355.040039062 98.01953125 390 c 0
 104.759765625 397.889648438 112.110351562 405.240234375 120 411.98046875 c 0
 125.400390625 416.620117188 131.059570312 420.959960938 136.940429688 425 c 1
 131.059570312 429.040039062 125.400390625 433.379882812 120 438.01953125 c 0
 112.110351562 444.759765625 104.759765625 452.110351562 98.01953125 460 c 0
 68.0703125 494.959960938 50 540.370117188 50 590 c 2
 50 600 l 2
 50 649.629882812 68.0703125 695.040039062 98.01953125 730 c 0
 104.759765625 737.889648438 112.110351562 745.240234375 120 751.98046875 c 0
 154.959960938 781.9296875 200.370117188 800 250 800 c 0
 299.629882812 800 345.040039062 781.9296875 380 751.98046875 c 0
 387.889648438 745.240234375 395.240234375 737.889648438 401.98046875 730 c 0
 431.9296875 695.040039062 450 649.629882812 450 600 c 1
 380 600 l 1
 380 671.799804688 321.799804688 730 250 730 c 0
 178.200195312 730 120 671.799804688 120 600 c 2
 120 590 l 2
 120 518.200195312 178.200195312 460 250 460 c 1
 250 390 l 1
 178.200195312 390 120 331.799804688 120 260 c 2
 120 200 l 2
 120 128.200195312 178.200195312 70 250 70 c 0
 321.799804688 70 380 128.200195312 380 200 c 2
 380 390 l 1
 315 390 l 1
EndSplineSet
Validated: 524289
EndChar

StartChar: quotesingle
Encoding: 39 39 6
Width: 170
Flags: HMW
LayerCount: 2
Fore
SplineSet
50 600 m 1
 50 790 l 1
 120 790 l 1
 120 600 l 1
 50 600 l 1
EndSplineSet
Validated: 1
EndChar

StartChar: parenleft
Encoding: 40 40 7
Width: 300
Flags: HMW
LayerCount: 2
Fore
SplineSet
120 -51.98046875 m 0
 77.150390625 -15.3095703125 50 39.169921875 50 100 c 2
 50 700 l 2
 50 760.830078125 77.150390625 815.309570312 120 851.98046875 c 0
 154.959960938 881.9296875 200.370117188 900 250 900 c 1
 250 830 l 1
 178.200195312 830 120 771.799804688 120 700 c 2
 120 100 l 2
 120 28.2001953125 178.200195312 -30 250 -30 c 1
 250 -100 l 1
 200.370117188 -100 154.959960938 -81.9296875 120 -51.98046875 c 0
EndSplineSet
Validated: 524289
EndChar

StartChar: parenright
Encoding: 41 41 8
Width: 300
Flags: HMW
LayerCount: 2
Fore
SplineSet
250 100 m 2
 250 39.169921875 222.849609375 -15.3095703125 180 -51.98046875 c 0
 145.040039062 -81.9296875 99.6298828125 -100 50 -100 c 1
 50 -30 l 1
 121.799804688 -30 180 28.2001953125 180 100 c 2
 180 700 l 2
 180 771.799804688 121.799804688 830 50 830 c 1
 50 900 l 1
 99.6298828125 900 145.040039062 881.9296875 180 851.98046875 c 0
 222.849609375 815.309570312 250 760.830078125 250 700 c 2
 250 100 l 2
EndSplineSet
Validated: 524289
EndChar

StartChar: asterisk
Encoding: 42 42 9
Width: 476
Flags: HMW
LayerCount: 2
Fore
SplineSet
426 664.01953125 m 1
 297.9296875 590 l 1
 426 515.98046875 l 1
 396.030273438 464.01953125 l 1
 267.969726562 538.040039062 l 1
 267.969726562 390 l 1
 208.030273438 390 l 1
 208.030273438 538.040039062 l 1
 79.9697265625 464.01953125 l 1
 50 515.98046875 l 1
 178.0703125 590 l 1
 50 664.01953125 l 1
 79.9697265625 715.98046875 l 1
 208.030273438 641.959960938 l 1
 208.030273438 790 l 1
 267.969726562 790 l 1
 267.969726562 641.959960938 l 1
 396.030273438 715.98046875 l 1
 426 664.01953125 l 1
EndSplineSet
Validated: 524289
EndChar

StartChar: plus
Encoding: 43 43 10
Width: 500
Flags: HMW
LayerCount: 2
Fore
SplineSet
285 540 m 1
 285 375 l 1
 450 375 l 1
 450 305 l 1
 285 305 l 1
 285 140 l 1
 215 140 l 1
 215 305 l 1
 50 305 l 1
 50 375 l 1
 215 375 l 1
 215 540 l 1
 285 540 l 1
EndSplineSet
Validated: 1
EndChar

StartChar: comma
Encoding: 44 44 11
Width: 250
Flags: HMW
LayerCount: 2
Fore
SplineSet
120 -100 m 1
 50 -100 l 1
 130 100 l 1
 200 100 l 1
 120 -100 l 1
EndSplineSet
Validated: 1
EndChar

StartChar: hyphen
Encoding: 45 45 12
Width: 400
Flags: HMW
LayerCount: 2
Fore
SplineSet
50 305 m 1
 50 375 l 1
 350 375 l 1
 350 305 l 1
 50 305 l 1
EndSplineSet
Validated: 1
EndChar

StartChar: period
Encoding: 46 46 13
Width: 180
Flags: HMW
LayerCount: 2
Fore
SplineSet
50 40 m 0
 50 62.091796875 67.908203125 80 90 80 c 0
 112.091796875 80 130 62.091796875 130 40 c 0
 130 17.908203125 112.091796875 0 90 0 c 0
 67.908203125 0 50 17.908203125 50 40 c 0
EndSplineSet
Validated: 524289
EndChar

StartChar: slash
Encoding: 47 47 14
Width: 500
Flags: HMW
LayerCount: 2
Fore
SplineSet
50 10 m 1
 380 790 l 1
 450 790 l 1
 120 10 l 1
 50 10 l 1
EndSplineSet
Validated: 1
EndChar

StartChar: zero
Encoding: 48 48 15
Width: 500
Flags: HMW
LayerCount: 2
Fore
SplineSet
380 751.98046875 m 0
 422.849609375 715.309570312 450 660.830078125 450 600 c 2
 450 200 l 2
 450 139.169921875 422.849609375 84.6904296875 380 48.01953125 c 0
 345.040039062 18.0703125 299.629882812 0 250 0 c 0
 200.370117188 0 154.959960938 18.0703125 120 48.01953125 c 0
 77.150390625 84.6904296875 50 139.169921875 50 200 c 2
 50 600 l 2
 50 660.830078125 77.150390625 715.309570312 120 751.98046875 c 0
 154.959960938 781.9296875 200.370117188 800 250 800 c 0
 299.629882812 800 345.040039062 781.9296875 380 751.98046875 c 0
380 200 m 2
 380 600 l 2
 380 671.799804688 321.799804688 730 250 730 c 0
 178.200195312 730 120 671.799804688 120 600 c 2
 120 200 l 2
 120 128.200195312 178.200195312 70 250 70 c 0
 321.799804688 70 380 128.200195312 380 200 c 2
EndSplineSet
Validated: 524289
EndChar

StartChar: one
Encoding: 49 49 16
Width: 350
Flags: HMW
LayerCount: 2
Fore
SplineSet
230 10 m 1
 230 693.599609375 l 1
 50 600 l 1
 50 670 l 1
 230 763.599609375 l 1
 300 800 l 1
 300 730 l 1
 300 10 l 1
 230 10 l 1
EndSplineSet
Validated: 524289
EndChar

StartChar: two
Encoding: 50 50 17
Width: 500
Flags: HMW
LayerCount: 2
Fore
SplineSet
120.000976562 80.349609375 m 2
 120.000976562 80 l 1
 450.000976562 80 l 1
 450.000976562 10 l 1
 50.0009765625 10 l 1
 50.0009765625 79.650390625 l 2
 49.9814453125 81.7998046875 49.80078125 133.110351562 77.2109375 201.629882812 c 0
 93.060546875 241.240234375 114.991210938 278.990234375 142.401367188 313.83984375 c 0
 166.451171875 344.41015625 195.350585938 377.379882812 227.55078125 399.23046875 c 0
 262.291015625 422.799804688 296.840820312 447.5 325.03125 478.91015625 c 0
 364.590820312 522.98046875 393.80078125 586.4296875 371.87109375 645.33984375 c 0
 353.130859375 695.709960938 303.720703125 730 250.000976562 730 c 0
 178.201171875 730 120.000976562 671.799804688 120.000976562 600 c 1
 50.0009765625 600 l 1
 50.0009765625 710.459960938 139.541015625 800 250.000976562 800 c 0
 363.081054688 800 448.500976562 706.099609375 448.340820312 600 c 0
 448.310546875 582.599609375 445.981445312 564.870117188 441.100585938 547.1796875 c 0
 432.090820312 514.540039062 416.571289062 483.790039062 396.661132812 456.469726562 c 0
 357.090820312 402.169921875 301.380859375 371.849609375 252.331054688 328.580078125 c 0
 205.581054688 287.330078125 167.30078125 236.66015625 143.510742188 178.83984375 c 0
 121.100585938 124.370117188 120.05078125 83.490234375 120.000976562 80.349609375 c 2
EndSplineSet
Validated: 524321
EndChar

StartChar: three
Encoding: 51 51 18
Width: 500
Flags: HMW
LayerCount: 2
Fore
SplineSet
380 751.98046875 m 0
 387.889648438 745.240234375 395.240234375 737.889648438 401.98046875 730 c 0
 431.9296875 695.040039062 450 649.629882812 450 600 c 2
 450 590 l 2
 450 540.370117188 431.9296875 494.959960938 401.98046875 460 c 0
 395.240234375 452.110351562 387.889648438 444.759765625 380 438.01953125 c 0
 374.599609375 433.379882812 368.940429688 429.040039062 363.059570312 425 c 1
 368.940429688 420.959960938 374.599609375 416.620117188 380 411.98046875 c 0
 387.889648438 405.240234375 395.240234375 397.889648438 401.98046875 390 c 0
 431.9296875 355.040039062 450 309.629882812 450 260 c 2
 450 200 l 2
 450 150.370117188 431.9296875 104.959960938 401.98046875 70 c 0
 395.240234375 62.1103515625 387.889648438 54.759765625 380 48.01953125 c 0
 345.040039062 18.0703125 299.629882812 0 250 0 c 0
 200.370117188 0 154.959960938 18.0703125 120 48.01953125 c 0
 112.110351562 54.759765625 104.759765625 62.1103515625 98.01953125 70 c 0
 68.0703125 104.959960938 50 150.370117188 50 200 c 1
 120 200 l 1
 120 128.200195312 178.200195312 70 250 70 c 0
 321.799804688 70 380 128.200195312 380 200 c 2
 380 260 l 2
 380 331.799804688 321.799804688 390 250 390 c 1
 250 460 l 1
 321.799804688 460 380 518.200195312 380 590 c 2
 380 600 l 2
 380 671.799804688 321.799804688 730 250 730 c 0
 178.200195312 730 120 671.799804688 120 600 c 1
 50 600 l 1
 50 649.629882812 68.0703125 695.040039062 98.01953125 730 c 0
 104.759765625 737.889648438 112.110351562 745.240234375 120 751.98046875 c 0
 154.959960938 781.9296875 200.370117188 800 250 800 c 0
 299.629882812 800 345.040039062 781.9296875 380 751.98046875 c 0
EndSplineSet
Validated: 524289
EndChar

StartChar: four
Encoding: 52 52 19
Width: 500
Flags: HMW
LayerCount: 2
Fore
SplineSet
380 790 m 1
 450 790 l 1
 450 10 l 1
 380 10 l 1
 380 390 l 1
 250 390 l 2
 200.370117188 390 154.959960938 408.0703125 120 438.01953125 c 0
 112.110351562 444.759765625 104.759765625 452.110351562 98.01953125 460 c 0
 68.0703125 494.959960938 50 540.370117188 50 590 c 2
 50 790 l 1
 120 790 l 1
 120 590 l 2
 120 518.200195312 178.200195312 460 250 460 c 2
 380 460 l 1
 380 790 l 1
EndSplineSet
Validated: 524289
EndChar

StartChar: five
Encoding: 53 53 20
Width: 500
Flags: HMW
LayerCount: 2
Fore
SplineSet
50 390 m 1
 50 790 l 1
 450 790 l 1
 450 720 l 1
 120 720 l 1
 120 460 l 1
 250 460 l 2
 299.629882812 460 345.040039062 441.9296875 380 411.98046875 c 0
 387.889648438 405.240234375 395.240234375 397.889648438 401.98046875 390 c 0
 431.9296875 355.040039062 450 309.629882812 450 260 c 2
 450 200 l 2
 450 150.370117188 431.9296875 104.959960938 401.98046875 70 c 0
 395.240234375 62.1103515625 387.889648438 54.759765625 380 48.01953125 c 0
 345.040039062 18.0703125 299.629882812 0 250 0 c 0
 200.370117188 0 154.959960938 18.0703125 120 48.01953125 c 0
 112.110351562 54.759765625 104.759765625 62.1103515625 98.01953125 70 c 0
 68.0703125 104.959960938 50 150.370117188 50 200 c 1
 120 200 l 1
 120 128.200195312 178.200195312 70 250 70 c 0
 321.799804688 70 380 128.200195312 380 200 c 2
 380 260 l 2
 380 331.799804688 321.799804688 390 250 390 c 2
 50 390 l 1
EndSplineSet
Validated: 524289
EndChar

StartChar: six
Encoding: 54 54 21
Width: 500
Flags: HMW
LayerCount: 2
Fore
SplineSet
250 730 m 0
 178.200195312 730 120 671.799804688 120 600 c 2
 120 411.98046875 l 1
 125.400390625 416.620117188 131.059570312 420.959960938 136.940429688 425 c 0
 169.099609375 447.080078125 208.040039062 460 250 460 c 0
 291.959960938 460 330.900390625 447.080078125 363.059570312 425 c 0
 368.940429688 420.959960938 374.599609375 416.620117188 380 411.98046875 c 0
 387.889648438 405.240234375 395.240234375 397.889648438 401.98046875 390 c 0
 431.9296875 355.040039062 450 309.629882812 450 260 c 2
 450 200 l 2
 450 139.169921875 422.849609375 84.6904296875 380 48.01953125 c 0
 345.040039062 18.0703125 299.629882812 0 250 0 c 0
 200.370117188 0 154.959960938 18.0703125 120 48.01953125 c 0
 77.150390625 84.6904296875 50 139.169921875 50 200 c 2
 50 600 l 2
 50 660.830078125 77.150390625 715.309570312 120 751.98046875 c 0
 154.959960938 781.9296875 200.370117188 800 250 800 c 0
 299.629882812 800 345.040039062 781.9296875 380 751.98046875 c 0
 422.849609375 715.309570312 450 660.830078125 450 600 c 1
 380 600 l 1
 380 671.799804688 321.799804688 730 250 730 c 0
250 390 m 0
 178.200195312 390 120 331.799804688 120 260 c 2
 120 200 l 2
 120 128.200195312 178.200195312 70 250 70 c 0
 321.799804688 70 380 128.200195312 380 200 c 2
 380 260 l 2
 380 331.799804688 321.799804688 390 250 390 c 0
EndSplineSet
Validated: 524289
EndChar

StartChar: seven
Encoding: 55 55 22
Width: 500
Flags: HMW
LayerCount: 2
Fore
SplineSet
50 720 m 1
 50 790 l 1
 450 790 l 1
 450 720 l 1
 130 10 l 1
 50 10 l 1
 370 720 l 1
 50 720 l 1
EndSplineSet
Validated: 1
EndChar

StartChar: eight
Encoding: 56 56 23
Width: 500
Flags: HMW
LayerCount: 2
Fore
SplineSet
380 751.98046875 m 0
 422.849609375 715.309570312 450 660.830078125 450 600 c 2
 450 590 l 2
 450 529.169921875 422.849609375 474.690429688 380 438.01953125 c 0
 374.599609375 433.379882812 368.940429688 429.040039062 363.059570312 425 c 1
 368.940429688 420.959960938 374.599609375 416.620117188 380 411.98046875 c 0
 422.849609375 375.309570312 450 320.830078125 450 260 c 2
 450 200 l 2
 450 139.169921875 422.849609375 84.6904296875 380 48.01953125 c 0
 345.040039062 18.0703125 299.629882812 0 250 0 c 0
 200.370117188 0 154.959960938 18.0703125 120 48.01953125 c 0
 77.150390625 84.6904296875 50 139.169921875 50 200 c 2
 50 260 l 2
 50 320.830078125 77.150390625 375.309570312 120 411.98046875 c 0
 125.400390625 416.620117188 131.059570312 420.959960938 136.940429688 425 c 1
 131.059570312 429.040039062 125.400390625 433.379882812 120 438.01953125 c 0
 77.150390625 474.690429688 50 529.169921875 50 590 c 2
 50 600 l 2
 50 660.830078125 77.150390625 715.309570312 120 751.98046875 c 0
 154.959960938 781.9296875 200.370117188 800 250 800 c 0
 299.629882812 800 345.040039062 781.9296875 380 751.98046875 c 0
380 260 m 2
 380 331.799804688 321.799804688 390 250 390 c 0
 178.200195312 390 120 331.799804688 120 260 c 2
 120 200 l 2
 120 128.200195312 178.200195312 70 250 70 c 0
 321.799804688 70 380 128.200195312 380 200 c 2
 380 260 l 2
380 590 m 2
 380 600 l 2
 380 671.799804688 321.799804688 730 250 730 c 0
 178.200195312 730 120 671.799804688 120 600 c 2
 120 590 l 2
 120 518.200195312 178.200195312 460 250 460 c 0
 321.799804688 460 380 518.200195312 380 590 c 2
EndSplineSet
Validated: 524289
EndChar

StartChar: nine
Encoding: 57 57 24
Width: 500
Flags: HMW
LayerCount: 2
Fore
SplineSet
380 751.98046875 m 0
 422.849609375 715.309570312 450 660.830078125 450 600 c 2
 450 200 l 2
 450 139.169921875 422.849609375 84.6904296875 380 48.01953125 c 0
 345.040039062 18.0703125 299.629882812 0 250 0 c 0
 200.370117188 0 154.959960938 18.0703125 120 48.01953125 c 0
 77.150390625 84.6904296875 50 139.169921875 50 200 c 1
 120 200 l 1
 120 128.200195312 178.200195312 70 250 70 c 0
 321.799804688 70 380 128.200195312 380 200 c 2
 380 438.01953125 l 1
 374.599609375 433.379882812 368.940429688 429.040039062 363.059570312 425 c 0
 330.900390625 402.919921875 291.959960938 390 250 390 c 0
 208.040039062 390 169.099609375 402.919921875 136.940429688 425 c 0
 131.059570312 429.040039062 125.400390625 433.379882812 120 438.01953125 c 0
 77.150390625 474.690429688 50 529.169921875 50 590 c 2
 50 600 l 2
 50 660.830078125 77.150390625 715.309570312 120 751.98046875 c 0
 154.959960938 781.9296875 200.370117188 800 250 800 c 0
 299.629882812 800 345.040039062 781.9296875 380 751.98046875 c 0
380 590 m 2
 380 600 l 2
 380 671.799804688 321.799804688 730 250 730 c 0
 178.200195312 730 120 671.799804688 120 600 c 2
 120 590 l 2
 120 518.200195312 178.200195312 460 250 460 c 0
 321.799804688 460 380 518.200195312 380 590 c 2
EndSplineSet
Validated: 524289
EndChar

StartChar: colon
Encoding: 58 58 25
Width: 180
Flags: HMW
LayerCount: 2
Fore
SplineSet
50 40 m 0
 50 62.091796875 67.908203125 80 90 80 c 0
 112.091796875 80 130 62.091796875 130 40 c 0
 130 17.908203125 112.091796875 0 90 0 c 0
 67.908203125 0 50 17.908203125 50 40 c 0
50 430 m 0
 50 452.091796875 67.908203125 470 90 470 c 0
 112.091796875 470 130 452.091796875 130 430 c 0
 130 407.908203125 112.091796875 390 90 390 c 0
 67.908203125 390 50 407.908203125 50 430 c 0
EndSplineSet
Validated: 524289
EndChar

StartChar: semicolon
Encoding: 59 59 26
Width: 260
Flags: HMW
LayerCount: 2
Fore
SplineSet
200 100 m 1
 120 -100 l 1
 50 -100 l 1
 130 100 l 1
 200 100 l 1
130 430 m 0
 130 452.091796875 147.908203125 470 170 470 c 0
 192.091796875 470 210 452.091796875 210 430 c 0
 210 407.908203125 192.091796875 390 170 390 c 0
 147.908203125 390 130 407.908203125 130 430 c 0
EndSplineSet
Validated: 524289
EndChar

StartChar: less
Encoding: 60 60 27
Width: 355
Flags: HMW
LayerCount: 2
Fore
SplineSet
220 540 m 1
 305 540 l 1
 135 340 l 1
 305 140 l 1
 220 140 l 1
 50 340 l 1
 220 540 l 1
EndSplineSet
Validated: 1
EndChar

StartChar: equal
Encoding: 61 61 28
Width: 500
Flags: HMW
LayerCount: 2
Fore
SplineSet
50 205 m 1
 50 275 l 1
 450 275 l 1
 450 205 l 1
 50 205 l 1
50 405 m 1
 50 475 l 1
 450 475 l 1
 450 405 l 1
 50 405 l 1
EndSplineSet
Validated: 1
EndChar

StartChar: greater
Encoding: 62 62 29
Width: 355
Flags: HMW
LayerCount: 2
Fore
SplineSet
50 540 m 1
 135 540 l 1
 305 340 l 1
 135 140 l 1
 50 140 l 1
 220 340 l 1
 50 540 l 1
EndSplineSet
Validated: 1
EndChar

StartChar: question
Encoding: 63 63 30
Width: 500
Flags: HMW
LayerCount: 2
Fore
SplineSet
210 40 m 0
 210 62.091796875 227.908203125 80 250 80 c 0
 272.091796875 80 290 62.091796875 290 40 c 0
 290 17.908203125 272.091796875 0 250 0 c 0
 227.908203125 0 210 17.908203125 210 40 c 0
250 800 m 0
 360.459960938 800 450 710.459960938 450 600 c 2
 450 590 l 2
 450 491.48046875 378.76953125 409.599609375 285 393.049804688 c 1
 285 200 l 1
 215 200 l 1
 215 464.76953125 l 1
 226.129882812 461.66015625 237.870117188 460 250 460 c 0
 262.129882812 460 273.870117188 461.66015625 285 464.76953125 c 0
 339.799804688 480.049804688 380 530.330078125 380 590 c 2
 380 600 l 2
 380 671.799804688 321.799804688 730 250 730 c 0
 178.200195312 730 120 671.799804688 120 600 c 1
 50 600 l 1
 50 710.459960938 139.540039062 800 250 800 c 0
EndSplineSet
Validated: 524289
EndChar

StartChar: at
Encoding: 64 64 31
Width: 695
Flags: HMW
LayerCount: 2
Fore
SplineSet
557.870117188 432.870117188 m 0
 585.190429688 405.540039062 606.639648438 373.73046875 621.620117188 338.299804688 c 0
 637.129882812 301.629882812 645 262.66015625 645 222.5 c 2
 645 119.379882812 l 2
 645 74.4599609375 626.6796875 46.7197265625 611.309570312 31.349609375 c 0
 591.099609375 11.1298828125 564 0 535 0 c 0
 506 0 478.900390625 11.1298828125 458.690429688 31.349609375 c 0
 456.190429688 33.849609375 453.790039062 36.5 451.549804688 39.2197265625 c 2
 449.870117188 41.2802734375 l 1
 447.919921875 39.4697265625 l 2
 439.8203125 31.9296875 430.849609375 25.2900390625 421.25 19.73046875 c 0
 398.950195312 6.8203125 373.440429688 0 347.5 0 c 0
 321.559570312 0 296.049804688 6.8203125 273.75 19.73046875 c 0
 251.360351562 32.6796875 232.6796875 51.3603515625 219.73046875 73.75 c 0
 206.8203125 96.0498046875 200 121.559570312 200 147.5 c 2
 200 222.5 l 2
 200 248.440429688 206.8203125 273.950195312 219.73046875 296.25 c 0
 232.6796875 318.639648438 251.360351562 337.3203125 273.75 350.26953125 c 0
 296.049804688 363.1796875 321.559570312 370 347.5 370 c 0
 373.440429688 370 398.950195312 363.1796875 421.25 350.26953125 c 2
 425 348.08984375 l 1
 425 380 l 1
 495 380 l 1
 495 116.879882812 l 1
 495.030273438 116.879882812 l 1
 495.959960938 82.3798828125 516.110351562 70 535 70 c 0
 554.33984375 70 575 82.9697265625 575 119.379882812 c 2
 575 222.5 l 2
 575 347.940429688 472.940429688 450 347.5 450 c 0
 222.059570312 450 120 347.940429688 120 222.5 c 2
 120 147.5 l 2
 120 22.0595703125 222.059570312 -80 347.5 -80 c 0
 407.4296875 -80 463.830078125 -56.98046875 506.58984375 -15.1298828125 c 1
 556.08984375 -64.6201171875 l 1
 529.169921875 -91.1103515625 497.969726562 -111.959960938 463.299804688 -126.620117188 c 0
 426.629882812 -142.129882812 387.669921875 -150 347.5 -150 c 0
 307.33984375 -150 268.379882812 -142.129882812 231.700195312 -126.620117188 c 0
 196.280273438 -111.639648438 164.459960938 -90.1904296875 137.139648438 -62.8603515625 c 0
 109.809570312 -35.5400390625 88.3603515625 -3.7197265625 73.3798828125 31.7001953125 c 0
 57.8701171875 68.3798828125 50 107.33984375 50 147.5 c 2
 50 222.5 l 2
 50 262.66015625 57.8701171875 301.629882812 73.3798828125 338.299804688 c 0
 88.3603515625 373.73046875 109.809570312 405.540039062 137.129882812 432.870117188 c 0
 164.459960938 460.190429688 196.26953125 481.639648438 231.700195312 496.620117188 c 0
 268.370117188 512.129882812 307.33984375 520 347.5 520 c 0
 387.66015625 520 426.629882812 512.129882812 463.299804688 496.620117188 c 0
 498.73046875 481.639648438 530.540039062 460.190429688 557.870117188 432.870117188 c 0
425 147.5 m 2
 425 222.5 l 2
 425 265.23046875 390.23046875 300 347.5 300 c 0
 304.76953125 300 270 265.23046875 270 222.5 c 2
 270 147.5 l 2
 270 104.76953125 304.76953125 70 347.5 70 c 0
 390.23046875 70 425 104.76953125 425 147.5 c 2
EndSplineSet
Validated: 524289
EndChar

StartChar: A
Encoding: 65 65 32
Width: 500
Flags: HMW
LayerCount: 2
Fore
SplineSet
406.629882812 215 m 1
 409.799804688 200 l 1
 450 10 l 1
 380 10 l 1
 339.799804688 200 l 1
 160.200195312 200 l 1
 120 10 l 1
 50 10 l 1
 90.2001953125 200 l 1
 93.3701171875 215 l 1
 105 270 l 1
 108.169921875 285 l 1
 215 790 l 1
 285 790 l 1
 391.830078125 285 l 1
 395 270 l 1
 406.629882812 215 l 1
175 270 m 1
 325 270 l 1
 321.830078125 285 l 1
 250 624.549804688 l 1
 178.169921875 285 l 1
 175 270 l 1
EndSplineSet
Validated: 524289
EndChar

StartChar: B
Encoding: 66 66 33
Width: 500
Flags: HMW
LayerCount: 2
Fore
SplineSet
401.98046875 460 m 0
 395.240234375 452.110351562 387.889648438 444.759765625 380 438.01953125 c 0
 374.599609375 433.379882812 368.940429688 429.040039062 363.059570312 425 c 1
 368.940429688 420.959960938 374.599609375 416.620117188 380 411.98046875 c 0
 387.889648438 405.240234375 395.240234375 397.889648438 401.98046875 390 c 0
 431.9296875 355.040039062 450 309.629882812 450 260 c 2
 450 210 l 2
 450 160.370117188 431.9296875 114.959960938 401.98046875 80 c 0
 395.240234375 72.1103515625 387.889648438 64.759765625 380 58.01953125 c 0
 345.040039062 28.0703125 299.629882812 10 250 10 c 2
 120 10 l 1
 50 10 l 1
 50 790 l 1
 120 790 l 1
 250 790 l 2
 299.629882812 790 345.040039062 771.9296875 380 741.98046875 c 0
 387.889648438 735.240234375 395.240234375 727.889648438 401.98046875 720 c 0
 431.9296875 685.040039062 450 639.629882812 450 590 c 0
 450 540.370117188 431.9296875 494.959960938 401.98046875 460 c 0
380 260 m 2
 380 331.799804688 321.799804688 390 250 390 c 2
 120 390 l 1
 120 80 l 1
 250 80 l 2
 321.799804688 80 380 138.200195312 380 210 c 2
 380 260 l 2
250 460 m 2
 321.799804688 460 380 518.200195312 380 590 c 0
 380 661.799804688 321.799804688 720 250 720 c 2
 120 720 l 1
 120 460 l 1
 250 460 l 2
EndSplineSet
Validated: 524289
EndChar

StartChar: C
Encoding: 67 67 34
Width: 500
Flags: HMW
LayerCount: 2
Fore
SplineSet
250 730.099609375 m 0
 178.200195312 730.099609375 120 671.900390625 120 600.099609375 c 2
 120 200 l 2
 120 128.200195312 178.200195312 70 250 70 c 0
 321.799804688 70 380 128.200195312 380 200 c 1
 450 200 l 1
 450 89.5400390625 360.459960938 0 250 0 c 0
 200.370117188 0 154.959960938 18.0703125 120 48.01953125 c 0
 77.150390625 84.6904296875 50 139.169921875 50 200 c 2
 50 600.099609375 l 2
 50 660.9296875 77.150390625 715.41015625 120 752.080078125 c 0
 154.959960938 782.030273438 200.370117188 800.099609375 250 800.099609375 c 0
 360.459960938 800.099609375 450 710.559570312 450 600.099609375 c 1
 380 600.099609375 l 1
 380 671.900390625 321.799804688 730.099609375 250 730.099609375 c 0
EndSplineSet
Validated: 524289
EndChar

StartChar: D
Encoding: 68 68 35
Width: 500
Flags: HMW
LayerCount: 2
Fore
SplineSet
380 741.98046875 m 0
 387.889648438 735.240234375 395.240234375 727.889648438 401.98046875 720 c 0
 431.9296875 685.040039062 450 639.629882812 450 590 c 2
 450 210 l 2
 450 160.370117188 431.9296875 114.959960938 401.98046875 80 c 0
 395.240234375 72.1103515625 387.889648438 64.759765625 380 58.01953125 c 0
 345.040039062 28.0703125 299.629882812 10 250 10 c 2
 50 10 l 1
 50 790 l 1
 250 790 l 2
 299.629882812 790 345.040039062 771.9296875 380 741.98046875 c 0
380 210 m 2
 380 590 l 2
 380 661.799804688 321.799804688 720 250 720 c 2
 120 720 l 1
 120 80 l 1
 250 80 l 2
 321.799804688 80 380 138.200195312 380 210 c 2
EndSplineSet
Validated: 524289
EndChar

StartChar: E
Encoding: 69 69 36
Width: 500
Flags: HMW
LayerCount: 2
Fore
SplineSet
450 10 m 1
 120 10 l 1
 50 10 l 1
 50 80 l 1
 50 390 l 1
 50 460 l 1
 50 720 l 1
 50 790 l 1
 120 790 l 1
 450 790 l 1
 450 720 l 1
 120 720 l 1
 120 460 l 1
 450 460 l 1
 450 390 l 1
 120 390 l 1
 120 80 l 1
 450 80 l 1
 450 10 l 1
EndSplineSet
Validated: 1
EndChar

StartChar: F
Encoding: 70 70 37
Width: 500
Flags: HMW
LayerCount: 2
Fore
SplineSet
50 790 m 1
 120 790 l 1
 450 790 l 1
 450 720 l 1
 120 720 l 1
 120 460 l 1
 450 460 l 1
 450 390 l 1
 120 390 l 1
 120 10 l 1
 50 10 l 1
 50 390 l 1
 50 460 l 1
 50 720 l 1
 50 790 l 1
EndSplineSet
Validated: 1
EndChar

StartChar: G
Encoding: 71 71 38
Width: 500
Flags: HMW
LayerCount: 2
Fore
SplineSet
120 46.419921875 m 0
 111.580078125 53.6103515625 103.76953125 61.5 96.66015625 70 c 0
 67.5302734375 104.740234375 50 149.51953125 50 198.400390625 c 2
 50 600 l 2
 50 649.629882812 68.0703125 695.040039062 98.01953125 730 c 0
 104.759765625 737.889648438 112.110351562 745.240234375 120 751.98046875 c 0
 154.959960938 781.9296875 200.370117188 800 250 800 c 0
 299.629882812 800 345.040039062 781.9296875 380 751.98046875 c 0
 387.889648438 745.240234375 395.240234375 737.889648438 401.98046875 730 c 0
 431.9296875 695.040039062 450 649.629882812 450 600 c 1
 380 600 l 1
 380 671.799804688 321.799804688 730 250 730 c 0
 178.200195312 730 120 671.799804688 120 600 c 2
 120 200 l 2
 120 128.200195312 178.200195312 70 250 70 c 0
 321.799804688 70 380 128.200195312 380 200 c 2
 380 390 l 1
 250 390 l 1
 250 460 l 1
 450 460 l 1
 450 198.400390625 l 2
 450 149.51953125 432.469726562 104.740234375 403.33984375 70 c 0
 396.23046875 61.5 388.419921875 53.6103515625 380 46.419921875 c 0
 351.099609375 21.66015625 315.059570312 5.01953125 275.389648438 0 c 1
 224.610351562 0 l 1
 184.940429688 5.01953125 148.900390625 21.66015625 120 46.419921875 c 0
EndSplineSet
Validated: 524289
EndChar

StartChar: H
Encoding: 72 72 39
Width: 500
Flags: HMW
LayerCount: 2
Fore
SplineSet
380 790 m 1
 450 790 l 1
 450 460 l 1
 450 390 l 1
 450 10 l 1
 380 10 l 1
 380 390 l 1
 120 390 l 1
 120 10 l 1
 50 10 l 1
 50 390 l 1
 50 460 l 1
 50 790 l 1
 120 790 l 1
 120 460 l 1
 380 460 l 1
 380 790 l 1
EndSplineSet
Validated: 1
EndChar

StartChar: I
Encoding: 73 73 40
Width: 250
Flags: HMW
LayerCount: 2
Fore
SplineSet
50 80 m 1
 90 80 l 1
 90 720 l 1
 55 720 l 1
 55 790 l 1
 90 790 l 1
 160 790 l 1
 195 790 l 1
 195 720 l 1
 160 720 l 1
 160 80 l 1
 200 80 l 1
 200 10 l 1
 160 10 l 1
 90 10 l 1
 50 10 l 1
 50 80 l 1
EndSplineSet
Validated: 1
EndChar

StartChar: J
Encoding: 74 74 41
Width: 500
Flags: HMW
LayerCount: 2
Fore
SplineSet
380 200 m 2
 380 790 l 1
 450 790 l 1
 450 200 l 2
 450 139.169921875 422.849609375 84.6904296875 380 48.01953125 c 0
 345.040039062 18.0703125 299.629882812 0 250 0 c 0
 139.540039062 0 50 89.5400390625 50 200 c 1
 120 200 l 1
 120 128.200195312 178.200195312 70 250 70 c 0
 321.799804688 70 380 128.200195312 380 200 c 2
EndSplineSet
Validated: 524289
EndChar

StartChar: K
Encoding: 75 75 42
Width: 500
Flags: HMW
LayerCount: 2
Fore
SplineSet
370 790 m 1
 450 790 l 1
 200 425 l 1
 450 10 l 1
 369 10 l 1
 120 423.33984375 l 1
 120 10 l 1
 50 10 l 1
 50 790 l 1
 120 790 l 1
 120 425 l 1
 370 790 l 1
EndSplineSet
Validated: 524289
EndChar

StartChar: L
Encoding: 76 76 43
Width: 500
Flags: HMW
LayerCount: 2
Fore
SplineSet
120 790 m 1
 120 80 l 1
 450 80 l 1
 450 10 l 1
 120 10 l 1
 50 10 l 1
 50 80 l 1
 50 790 l 1
 120 790 l 1
EndSplineSet
Validated: 1
EndChar

StartChar: M
Encoding: 77 77 44
Width: 600
Flags: HMW
LayerCount: 2
Fore
SplineSet
480 790 m 1
 550 790 l 1
 550 10 l 1
 480 10 l 1
 480 659.76953125 l 1
 335 390 l 1
 265 390 l 1
 120 659.76953125 l 1
 120 10 l 1
 50 10 l 1
 50 790 l 1
 120 790 l 1
 300 455.120117188 l 1
 480 790 l 1
EndSplineSet
Validated: 524289
EndChar

StartChar: N
Encoding: 78 78 45
Width: 500
Flags: HMW
LayerCount: 2
Fore
SplineSet
380 480 m 1
 380 790 l 1
 450 790 l 1
 450 10 l 1
 380 10 l 1
 380 380 l 1
 120 690 l 1
 120 10 l 1
 50 10 l 1
 50 790 l 1
 120 790 l 1
 380 480 l 1
EndSplineSet
Validated: 1
EndChar

StartChar: O
Encoding: 79 79 46
Width: 500
Flags: HMW
LayerCount: 2
Fore
SplineSet
120 48.01953125 m 0
 77.150390625 84.6904296875 50 139.169921875 50 200 c 2
 50 600 l 2
 50 660.830078125 77.150390625 715.309570312 120 751.98046875 c 0
 154.959960938 781.9296875 200.370117188 800 250 800 c 0
 299.629882812 800 345.040039062 781.9296875 380 751.98046875 c 0
 422.849609375 715.309570312 450 660.830078125 450 600 c 2
 450 200 l 2
 450 139.169921875 422.849609375 84.6904296875 380 48.01953125 c 0
 345.040039062 18.0703125 299.629882812 0 250 0 c 0
 200.370117188 0 154.959960938 18.0703125 120 48.01953125 c 0
120 600 m 2
 120 200 l 2
 120 128.200195312 178.200195312 70 250 70 c 0
 321.799804688 70 380 128.200195312 380 200 c 2
 380 600 l 2
 380 671.799804688 321.799804688 730 250 730 c 0
 178.200195312 730 120 671.799804688 120 600 c 2
EndSplineSet
Validated: 524289
EndChar

StartChar: P
Encoding: 80 80 47
Width: 500
Flags: HMW
LayerCount: 2
Fore
SplineSet
250 790 m 2
 310.830078125 790 365.309570312 762.849609375 401.98046875 720 c 0
 431.9296875 685.040039062 450 639.629882812 450 590 c 0
 450 540.370117188 431.9296875 494.959960938 401.98046875 460 c 0
 365.309570312 417.150390625 310.830078125 390 250 390 c 2
 120 390 l 1
 120 10 l 1
 50 10 l 1
 50 790 l 1
 120 790 l 1
 250 790 l 2
250 460 m 2
 321.799804688 460 380 518.200195312 380 590 c 0
 380 661.799804688 321.799804688 720 250 720 c 2
 120 720 l 1
 120 460 l 1
 250 460 l 2
EndSplineSet
Validated: 524289
EndChar

StartChar: Q
Encoding: 81 81 48
Width: 500
Flags: HMW
LayerCount: 2
Fore
SplineSet
380 751.98046875 m 0
 422.849609375 715.309570312 450 660.830078125 450 600 c 2
 450 200 l 2
 450 155.58984375 435.51953125 114.580078125 411.030273438 81.400390625 c 1
 450 42.4296875 l 1
 407.580078125 0 l 1
 368.610351562 38.9697265625 l 1
 335.419921875 14.4697265625 294.400390625 0 250 0 c 0
 200.370117188 0 154.959960938 18.0703125 120 48.01953125 c 0
 77.150390625 84.6904296875 50 139.169921875 50 200 c 2
 50 600 l 2
 50 660.830078125 77.150390625 715.309570312 120 751.98046875 c 0
 154.959960938 781.9296875 200.370117188 800 250 800 c 0
 299.629882812 800 345.040039062 781.9296875 380 751.98046875 c 0
322.719726562 169.709960938 m 1
 360.66015625 131.759765625 l 1
 372.919921875 151.599609375 380 174.969726562 380 200 c 2
 380 600 l 2
 380 671.799804688 321.799804688 730 250 730 c 0
 178.200195312 730 120 671.799804688 120 600 c 2
 120 200 l 2
 120 128.200195312 178.200195312 70 250 70 c 0
 275.030273438 70 298.400390625 77.080078125 318.23046875 89.33984375 c 1
 280.290039062 127.280273438 l 1
 322.719726562 169.709960938 l 1
EndSplineSet
Validated: 524289
EndChar

StartChar: R
Encoding: 82 82 49
Width: 500
Flags: HMW
LayerCount: 2
Fore
SplineSet
401.98046875 460 m 0
 395.240234375 452.110351562 387.889648438 444.759765625 380 438.01953125 c 0
 374.599609375 433.379882812 368.940429688 429.040039062 363.059570312 425 c 1
 368.940429688 420.959960938 374.599609375 416.620117188 380 411.98046875 c 0
 387.889648438 405.240234375 395.240234375 397.889648438 401.98046875 390 c 0
 431.9296875 355.040039062 450 309.629882812 450 260 c 2
 450 10 l 1
 380 10 l 1
 380 260 l 2
 380 331.799804688 321.799804688 390 250 390 c 2
 120 390 l 1
 120 10 l 1
 50 10 l 1
 50 790 l 1
 120 790 l 1
 250 790 l 2
 299.629882812 790 345.040039062 771.9296875 380 741.98046875 c 0
 387.889648438 735.240234375 395.240234375 727.889648438 401.98046875 720 c 0
 431.9296875 685.040039062 450 639.629882812 450 590 c 0
 450 540.370117188 431.9296875 494.959960938 401.98046875 460 c 0
250 460 m 2
 321.799804688 460 380 518.200195312 380 590 c 0
 380 661.799804688 321.799804688 720 250 720 c 2
 120 720 l 1
 120 460 l 1
 250 460 l 2
EndSplineSet
Validated: 524289
EndChar

StartChar: S
Encoding: 83 83 50
Width: 500
Flags: HMW
LayerCount: 2
Fore
SplineSet
414.450195312 373.040039062 m 0
 423.490234375 359.849609375 430.98046875 345.58984375 436.720703125 330.639648438 c 0
 445.350585938 308.139648438 450 284.099609375 450 259.990234375 c 2
 450 199.990234375 l 2
 450 89.5302734375 360.459960938 -0.009765625 250 -0.009765625 c 0
 139.540039062 -0.009765625 50 89.5302734375 50 199.990234375 c 1
 120 199.990234375 l 1
 120 128.190429688 178.200195312 69.990234375 250 69.990234375 c 0
 321.799804688 69.990234375 380 128.190429688 380 199.990234375 c 2
 380 199.990234375 380 259.990234375 380 259.990234375 c 2
 380 317.190429688 337.669921875 371.110351562 282.360351562 385.190429688 c 0
 258.790039062 391.190429688 233.970703125 390.049804688 210.08984375 394.610351562 c 0
 152.540039062 405.610351562 101.629882812 447.8203125 77.310546875 500.639648438 c 0
 65.8798828125 525.459960938 59.990234375 552.6796875 59.990234375 580 c 2
 59.990234375 610 l 2
 59.990234375 714.9296875 145.060546875 800 249.990234375 800 c 0
 354.919921875 800 439.990234375 714.9296875 439.990234375 610 c 2
 439.990234375 600 l 1
 369.990234375 600 l 1
 369.990234375 610 l 2
 369.990234375 676.26953125 316.259765625 730 249.990234375 730 c 0
 183.720703125 730 129.990234375 676.26953125 129.990234375 610 c 2
 129.990234375 610 129.990234375 580.009765625 129.990234375 580 c 0
 129.990234375 552.1796875 140.560546875 525.009765625 158.709960938 504 c 0
 189.600585938 468.25 236.25 464.049804688 279.75 456.259765625 c 0
 334.870117188 446.389648438 382.379882812 419.83984375 414.450195312 373.040039062 c 0
EndSplineSet
Validated: 524289
EndChar

StartChar: T
Encoding: 84 84 51
Width: 500
Flags: HMW
LayerCount: 2
Fore
SplineSet
215 790 m 1
 285 790 l 1
 450 790 l 1
 450 720 l 1
 285 720 l 1
 285 10 l 1
 215 10 l 1
 215 720 l 1
 50 720 l 1
 50 790 l 1
 215 790 l 1
EndSplineSet
Validated: 1
EndChar

StartChar: U
Encoding: 85 85 52
Width: 500
Flags: HMW
LayerCount: 2
Fore
SplineSet
380 751.98046875 m 1
 380 790 l 1
 450 790 l 1
 450 600 l 1
 450 545.240234375 l 1
 450 200 l 2
 450 139.169921875 422.849609375 84.6904296875 380 48.01953125 c 0
 345.040039062 18.0703125 299.629882812 0 250 0 c 0
 200.370117188 0 154.959960938 18.0703125 120 48.01953125 c 0
 77.150390625 84.6904296875 50 139.169921875 50 200 c 2
 50 506.059570312 l 1
 50 600 l 1
 50 790 l 1
 120 790 l 1
 120 751.98046875 l 1
 120 506.059570312 l 1
 120 200 l 2
 120 128.200195312 178.200195312 70 250 70 c 0
 321.799804688 70 380 128.200195312 380 200 c 2
 380 545.240234375 l 1
 380 751.98046875 l 1
EndSplineSet
Validated: 524289
EndChar

StartChar: V
Encoding: 86 86 53
Width: 500
Flags: HMW
LayerCount: 2
Fore
SplineSet
250 175.450195312 m 1
 380 790 l 1
 450 790 l 1
 285 10 l 1
 215 10 l 1
 50 790 l 1
 120 790 l 1
 250 175.450195312 l 1
EndSplineSet
Validated: 524289
EndChar

StartChar: W
Encoding: 87 87 54
Width: 700
Flags: HMW
LayerCount: 2
Fore
SplineSet
580 303.709960938 m 1
 580 790 l 1
 650 790 l 1
 650 167.5 l 2
 650 111.360351562 622.389648438 61.6796875 580 31.2900390625 c 0
 552.540039062 11.599609375 518.879882812 0 482.5 0 c 0
 446.120117188 0 412.459960938 11.599609375 385 31.2900390625 c 0
 371.759765625 40.7802734375 359.959960938 52.16015625 350 65.0302734375 c 1
 340.040039062 52.16015625 328.240234375 40.7802734375 315 31.2900390625 c 0
 287.540039062 11.599609375 253.879882812 0 217.5 0 c 0
 181.120117188 0 147.459960938 11.599609375 120 31.2900390625 c 0
 77.6103515625 61.6796875 50 111.360351562 50 167.5 c 2
 50 790 l 1
 120 790 l 1
 120 303.709960938 l 1
 120 167.5 l 2
 120 113.650390625 163.650390625 70 217.5 70 c 0
 271.349609375 70 315 113.650390625 315 167.5 c 2
 315 303.709960938 l 1
 315 790 l 1
 385 790 l 1
 385 303.709960938 l 1
 385 167.5 l 2
 385 113.650390625 428.650390625 70 482.5 70 c 0
 536.349609375 70 580 113.650390625 580 167.5 c 2
 580 303.709960938 l 1
EndSplineSet
Validated: 524289
EndChar

StartChar: X
Encoding: 88 88 55
Width: 500
Flags: HMW
LayerCount: 2
Fore
SplineSet
380 790 m 1
 450 790 l 1
 285 400 l 1
 450 10 l 1
 380 10 l 1
 250 317.26953125 l 1
 120 10 l 1
 50 10 l 1
 215 400 l 1
 50 790 l 1
 120 790 l 1
 250 482.73046875 l 1
 380 790 l 1
EndSplineSet
Validated: 524289
EndChar

StartChar: Y
Encoding: 89 89 56
Width: 500
Flags: HMW
LayerCount: 2
Fore
SplineSet
285 548.1796875 m 1
 380 790 l 1
 450 790 l 1
 285 370 l 1
 285 10 l 1
 215 10 l 1
 215 370 l 1
 50 790 l 1
 120 790 l 1
 215 548.1796875 l 1
 250 459.08984375 l 1
 285 548.1796875 l 1
EndSplineSet
Validated: 524289
EndChar

StartChar: Z
Encoding: 90 90 57
Width: 500
Flags: HMW
LayerCount: 2
Fore
SplineSet
50 720 m 1
 50 790 l 1
 450 790 l 1
 450 720 l 1
 120 80 l 1
 450 80 l 1
 450 10 l 1
 50 10 l 1
 50 80 l 1
 380 720 l 1
 50 720 l 1
EndSplineSet
Validated: 1
EndChar

StartChar: bracketleft
Encoding: 91 91 58
Width: 300
Flags: HMW
LayerCount: 2
Fore
SplineSet
50 900 m 1
 120 900 l 1
 250 900 l 1
 250 830 l 1
 120 830 l 1
 120 -30 l 1
 250 -30 l 1
 250 -100 l 1
 120 -100 l 1
 50 -100 l 1
 50 -30 l 1
 50 830 l 1
 50 900 l 1
EndSplineSet
Validated: 1
EndChar

StartChar: backslash
Encoding: 92 92 59
Width: 500
Flags: HMW
LayerCount: 2
Fore
SplineSet
50 790 m 1
 120 790 l 1
 450 10 l 1
 380 10 l 1
 50 790 l 1
EndSplineSet
Validated: 1
EndChar

StartChar: bracketright
Encoding: 93 93 60
Width: 300
Flags: HMW
LayerCount: 2
Fore
SplineSet
50 900 m 1
 180 900 l 1
 250 900 l 1
 250 830 l 1
 250 -30 l 1
 250 -100 l 1
 180 -100 l 1
 50 -100 l 1
 50 -30 l 1
 180 -30 l 1
 180 830 l 1
 50 830 l 1
 50 900 l 1
EndSplineSet
Validated: 1
EndChar

StartChar: asciicircum
Encoding: 94 94 61
Width: 500
Flags: HMW
LayerCount: 2
Fore
SplineSet
50 830 m 1
 250 1000 l 1
 450 830 l 1
 450 745 l 1
 250 915 l 1
 50 745 l 1
 50 830 l 1
EndSplineSet
Validated: 1
EndChar

StartChar: underscore
Encoding: 95 95 62
Width: 500
Flags: HMW
LayerCount: 2
Fore
SplineSet
50 10 m 1
 50 80 l 1
 450 80 l 1
 450 10 l 1
 50 10 l 1
EndSplineSet
Validated: 1
EndChar

StartChar: grave
Encoding: 96 96 63
Width: 250
Flags: HMW
LayerCount: 2
Fore
SplineSet
50 790 m 1
 120 790 l 1
 200 600 l 1
 130 600 l 1
 50 790 l 1
EndSplineSet
Validated: 1
EndChar

StartChar: a
Encoding: 97 97 64
Width: 500
Flags: HMW
LayerCount: 2
Fore
SplineSet
380 451.98046875 m 1
 380 490 l 1
 450 490 l 1
 450 300 l 1
 450 200 l 1
 450 10 l 1
 380 10 l 1
 380 48.01953125 l 1
 345.040039062 18.0703125 299.629882812 0 250 0 c 0
 200.370117188 0 154.959960938 18.0703125 120 48.01953125 c 0
 77.150390625 84.6904296875 50 139.169921875 50 200 c 2
 50 300 l 2
 50 360.830078125 77.150390625 415.309570312 120 451.98046875 c 0
 154.959960938 481.9296875 200.370117188 500 250 500 c 0
 299.629882812 500 345.040039062 481.9296875 380 451.98046875 c 1
250 70 m 0
 321.799804688 70 380 128.200195312 380 200 c 2
 380 300 l 2
 380 371.799804688 321.799804688 430 250 430 c 0
 178.200195312 430 120 371.799804688 120 300 c 2
 120 200 l 2
 120 128.200195312 178.200195312 70 250 70 c 0
EndSplineSet
Validated: 524289
EndChar

StartChar: b
Encoding: 98 98 65
Width: 500
Flags: HMW
LayerCount: 2
Fore
SplineSet
380 451.98046875 m 0
 422.849609375 415.309570312 450 360.830078125 450 300 c 2
 450 200 l 2
 450 139.169921875 422.849609375 84.6904296875 380 48.01953125 c 0
 345.040039062 18.0703125 299.629882812 0 250 0 c 0
 200.370117188 0 154.959960938 18.0703125 120 48.01953125 c 1
 120 10 l 1
 50 10 l 1
 50 200 l 1
 50 300 l 1
 50 790 l 1
 120 790 l 1
 120 451.98046875 l 1
 154.959960938 481.9296875 200.370117188 500 250 500 c 0
 299.629882812 500 345.040039062 481.9296875 380 451.98046875 c 0
380 200 m 2
 380 300 l 2
 380 371.799804688 321.799804688 430 250 430 c 0
 178.200195312 430 120 371.799804688 120 300 c 2
 120 200 l 2
 120 128.200195312 178.200195312 70 250 70 c 0
 321.799804688 70 380 128.200195312 380 200 c 2
EndSplineSet
Validated: 524289
EndChar

StartChar: c
Encoding: 99 99 66
Width: 500
Flags: HMW
LayerCount: 2
Fore
SplineSet
250 430 m 0
 178.200195312 430 120 371.799804688 120 300 c 2
 120 200 l 2
 120 128.200195312 178.200195312 70 250 70 c 0
 321.799804688 70 380 128.200195312 380 200 c 1
 450 200 l 1
 450 139.169921875 422.849609375 84.6904296875 380 48.01953125 c 0
 345.040039062 18.0703125 299.629882812 0 250 0 c 0
 200.370117188 0 154.959960938 18.0703125 120 48.01953125 c 0
 77.150390625 84.6904296875 50 139.169921875 50 200 c 2
 50 300 l 2
 50 360.830078125 77.150390625 415.309570312 120 451.98046875 c 0
 154.959960938 481.9296875 200.370117188 500 250 500 c 0
 299.629882812 500 345.040039062 481.9296875 380 451.98046875 c 0
 422.849609375 415.309570312 450 360.830078125 450 300 c 1
 380 300 l 1
 380 371.799804688 321.799804688 430 250 430 c 0
EndSplineSet
Validated: 524289
EndChar

StartChar: d
Encoding: 100 100 67
Width: 500
Flags: HMW
LayerCount: 2
Fore
SplineSet
380 451.98046875 m 1
 380 790 l 1
 450 790 l 1
 450 300 l 1
 450 200 l 1
 450 10 l 1
 380 10 l 1
 380 48.01953125 l 1
 345.040039062 18.0703125 299.629882812 0 250 0 c 0
 200.370117188 0 154.959960938 18.0703125 120 48.01953125 c 0
 77.150390625 84.6904296875 50 139.169921875 50 200 c 2
 50 300 l 2
 50 360.830078125 77.150390625 415.309570312 120 451.98046875 c 0
 154.959960938 481.9296875 200.370117188 500 250 500 c 0
 299.629882812 500 345.040039062 481.9296875 380 451.98046875 c 1
250 70 m 0
 321.799804688 70 380 128.200195312 380 200 c 2
 380 300 l 2
 380 371.799804688 321.799804688 430 250 430 c 0
 178.200195312 430 120 371.799804688 120 300 c 2
 120 200 l 2
 120 128.200195312 178.200195312 70 250 70 c 0
EndSplineSet
Validated: 524289
EndChar

StartChar: e
Encoding: 101 101 68
Width: 500
Flags: HMW
LayerCount: 2
Fore
SplineSet
120 48.01953125 m 0
 77.150390625 84.6904296875 50 139.169921875 50 200 c 2
 50 270 l 1
 50 300 l 2
 50 360.830078125 77.150390625 415.309570312 120 451.98046875 c 0
 154.959960938 481.9296875 200.370117188 500 250 500 c 0
 299.629882812 500 345.040039062 481.9296875 380 451.98046875 c 0
 422.849609375 415.309570312 450 360.830078125 450 300 c 2
 450 270 l 1
 450 200 l 1
 380 200 l 1
 120 200 l 1
 120 128.200195312 178.200195312 70 250 70 c 0
 304.080078125 70 350.440429688 103.01953125 370.030273438 150 c 1
 443.690429688 150 l 1
 433.3203125 109.6796875 410.690429688 74.2802734375 380 48.01953125 c 0
 345.040039062 18.0703125 299.629882812 0 250 0 c 0
 200.370117188 0 154.959960938 18.0703125 120 48.01953125 c 0
120 300 m 2
 120 270 l 1
 380 270 l 1
 380 300 l 2
 380 371.799804688 321.799804688 430 250 430 c 0
 178.200195312 430 120 371.799804688 120 300 c 2
EndSplineSet
Validated: 524289
EndChar

StartChar: f
Encoding: 102 102 69
Width: 500
Flags: HMW
LayerCount: 2
Fore
SplineSet
285 682.5 m 2
 285 575.009765625 l 1
 285 490 l 1
 450 490 l 1
 450 420 l 1
 285 420 l 1
 285 10 l 1
 215 10 l 1
 215 420 l 1
 50 420 l 1
 50 490 l 1
 215 490 l 1
 215 682.5 l 2
 215 730.48046875 243.76953125 771.75 285 789.990234375 c 1
 285 790 l 1
 299.530273438 796.4296875 315.599609375 800 332.5 800 c 0
 397.389648438 800 450 747.389648438 450 682.5 c 1
 380 682.5 l 1
 380 708.73046875 358.73046875 730 332.5 730 c 0
 306.26953125 730 285 708.73046875 285 682.5 c 2
EndSplineSet
Validated: 524289
EndChar

StartChar: g
Encoding: 103 103 70
Width: 500
Flags: HMW
LayerCount: 2
Fore
SplineSet
120 48.01953125 m 0
 89.3095703125 74.2802734375 66.6796875 109.6796875 56.3095703125 150 c 0
 52.1904296875 165.98046875 50 182.73046875 50 200 c 2
 50 300 l 2
 50 360.830078125 77.150390625 415.309570312 120 451.98046875 c 0
 154.959960938 481.9296875 200.370117188 500 250 500 c 0
 299.629882812 500 345.040039062 481.9296875 380 451.98046875 c 1
 380 490 l 1
 450 490 l 1
 450 300 l 1
 450 200 l 1
 450 100 l 1
 450 10 l 1
 450 0 l 2
 450 -60.830078125 422.849609375 -115.309570312 380 -151.98046875 c 0
 345.040039062 -181.9296875 299.629882812 -200 250 -200 c 0
 200.370117188 -200 154.959960938 -181.9296875 120 -151.98046875 c 0
 89.3095703125 -125.719726562 66.6796875 -90.3203125 56.3095703125 -50 c 1
 129.969726562 -50 l 1
 149.549804688 -96.98046875 195.919921875 -130 250 -130 c 0
 304.080078125 -130 350.450195312 -96.98046875 370.030273438 -50 c 0
 376.459960938 -34.6103515625 380 -17.7197265625 380 0 c 2
 380 10 l 1
 380 48.01953125 l 1
 345.040039062 18.0703125 299.629882812 0 250 0 c 0
 200.370117188 0 154.959960938 18.0703125 120 48.01953125 c 0
120 300 m 2
 120 251.98046875 l 1
 120 200 l 2
 120 182.280273438 123.540039062 165.389648438 129.969726562 150 c 0
 149.549804688 103.01953125 195.919921875 70 250 70 c 0
 304.080078125 70 350.450195312 103.01953125 370.030273438 150 c 0
 376.459960938 165.389648438 380 182.280273438 380 200 c 2
 380 251.98046875 l 1
 380 300 l 2
 380 371.799804688 321.799804688 430 250 430 c 0
 178.200195312 430 120 371.799804688 120 300 c 2
EndSplineSet
Validated: 524289
EndChar

StartChar: h
Encoding: 104 104 71
Width: 500
Flags: HMW
LayerCount: 2
Fore
SplineSet
380 451.98046875 m 0
 422.849609375 415.309570312 450 360.830078125 450 300 c 2
 450 10 l 1
 380 10 l 1
 380 300 l 2
 380 371.799804688 321.799804688 430 250 430 c 0
 178.200195312 430 120 371.799804688 120 300 c 2
 120 10 l 1
 50 10 l 1
 50 300 l 1
 50 790 l 1
 120 790 l 1
 120 451.98046875 l 1
 154.959960938 481.9296875 200.370117188 500 250 500 c 0
 299.629882812 500 345.040039062 481.9296875 380 451.98046875 c 0
EndSplineSet
Validated: 524289
EndChar

StartChar: i
Encoding: 105 105 72
Width: 190
Flags: HMW
LayerCount: 2
Fore
SplineSet
60 10 m 1
 60 490 l 1
 130 490 l 1
 130 10 l 1
 60 10 l 1
50 627.5 m 0
 50 652.352539062 70.1474609375 672.5 95 672.5 c 0
 119.852539062 672.5 140 652.352539062 140 627.5 c 0
 140 602.647460938 119.852539062 582.5 95 582.5 c 0
 70.1474609375 582.5 50 602.647460938 50 627.5 c 0
EndSplineSet
Validated: 524289
EndChar

StartChar: j
Encoding: 106 106 73
Width: 345
Flags: HMW
LayerCount: 2
Fore
SplineSet
205 627.5 m 0
 205 652.352539062 225.147460938 672.5 250 672.5 c 0
 274.852539062 672.5 295 652.352539062 295 627.5 c 0
 295 602.647460938 274.852539062 582.5 250 582.5 c 0
 225.147460938 582.5 205 602.647460938 205 627.5 c 0
167.5 -130 m 0
 193.73046875 -130 215 -108.73046875 215 -82.5 c 2
 215 24.990234375 l 1
 215 490 l 1
 285 490 l 1
 285 -82.5 l 2
 285 -130.48046875 256.23046875 -171.75 215 -189.990234375 c 1
 215 -190 l 1
 200.469726562 -196.4296875 184.400390625 -200 167.5 -200 c 0
 102.610351562 -200 50 -147.389648438 50 -82.5 c 1
 120 -82.5 l 1
 120 -108.73046875 141.26953125 -130 167.5 -130 c 0
EndSplineSet
Validated: 524289
EndChar

StartChar: k
Encoding: 107 107 74
Width: 500
Flags: HMW
LayerCount: 2
Fore
SplineSet
365 490 m 1
 450 490 l 1
 205 235 l 1
 450 10 l 1
 364 10 l 1
 120 234.080078125 l 1
 120 10 l 1
 50 10 l 1
 50 790 l 1
 120 790 l 1
 120 235 l 1
 365 490 l 1
EndSplineSet
Validated: 524289
EndChar

StartChar: l
Encoding: 108 108 75
Width: 170
Flags: HMW
LayerCount: 2
Fore
SplineSet
50 10 m 1
 50 790 l 1
 120 790 l 1
 120 10 l 1
 50 10 l 1
EndSplineSet
Validated: 1
EndChar

StartChar: m
Encoding: 109 109 76
Width: 800
Flags: HMW
LayerCount: 2
Fore
SplineSet
680 456 m 0
 722.75 420.690429688 750 367.280273438 750 307.5 c 2
 750 10 l 1
 680 10 l 1
 680 159 l 1
 680 307.5 l 2
 680 375.150390625 625.150390625 430 557.5 430 c 0
 489.849609375 430 435 375.150390625 435 307.5 c 2
 435 159 l 1
 435 10 l 1
 365 10 l 1
 365 159 l 1
 365 307.5 l 2
 365 375.150390625 310.150390625 430 242.5 430 c 0
 174.849609375 430 120 375.150390625 120 307.5 c 2
 120 159 l 1
 120 10 l 1
 50 10 l 1
 50 490 l 1
 120 490 l 1
 120 456 l 1
 153.290039062 483.48046875 195.959960938 500 242.5 500 c 0
 289.040039062 500 331.709960938 483.48046875 365 456 c 0
 378.280273438 445.030273438 390.0703125 432.309570312 400 418.200195312 c 1
 409.9296875 432.309570312 421.719726562 445.030273438 435 456 c 0
 468.290039062 483.48046875 510.959960938 500 557.5 500 c 0
 604.040039062 500 646.709960938 483.48046875 680 456 c 0
EndSplineSet
Validated: 524289
EndChar

StartChar: n
Encoding: 110 110 77
Width: 500
Flags: HMW
LayerCount: 2
Fore
SplineSet
380 451.98046875 m 0
 422.849609375 415.309570312 450 360.830078125 450 300 c 2
 450 10 l 1
 380 10 l 1
 380 148.01953125 l 1
 380 300 l 2
 380 371.799804688 321.799804688 430 250 430 c 0
 178.200195312 430 120 371.799804688 120 300 c 2
 120 148.01953125 l 1
 120 10 l 1
 50 10 l 1
 50 300 l 1
 50 490 l 1
 120 490 l 1
 120 451.98046875 l 1
 154.959960938 481.9296875 200.370117188 500 250 500 c 0
 299.629882812 500 345.040039062 481.9296875 380 451.98046875 c 0
EndSplineSet
Validated: 524289
EndChar

StartChar: o
Encoding: 111 111 78
Width: 500
Flags: HMW
LayerCount: 2
Fore
SplineSet
120 47.3798828125 m 0
 77.150390625 84.0498046875 50 138.530273438 50 199.360351562 c 2
 50 299.360351562 l 2
 50 360.190429688 77.150390625 414.669921875 120 451.33984375 c 0
 154.959960938 481.290039062 200.370117188 499.360351562 250 499.360351562 c 0
 299.629882812 499.360351562 345.040039062 481.290039062 380 451.33984375 c 0
 422.849609375 414.669921875 450 360.190429688 450 299.360351562 c 2
 450 199.360351562 l 2
 450 138.530273438 422.849609375 84.0498046875 380 47.3798828125 c 0
 345.040039062 17.4296875 299.629882812 -0.6396484375 250 -0.6396484375 c 0
 200.370117188 -0.6396484375 154.959960938 17.4296875 120 47.3798828125 c 0
120 299.360351562 m 2
 120 199.360351562 l 2
 120 127.559570312 178.200195312 69.3603515625 250 69.3603515625 c 0
 321.799804688 69.3603515625 380 127.559570312 380 199.360351562 c 2
 380 299.360351562 l 2
 380 371.16015625 321.799804688 429.360351562 250 429.360351562 c 0
 178.200195312 429.360351562 120 371.16015625 120 299.360351562 c 2
EndSplineSet
Validated: 524289
EndChar

StartChar: p
Encoding: 112 112 79
Width: 500
Flags: HMW
LayerCount: 2
Fore
SplineSet
380 451.33984375 m 0
 422.849609375 414.669921875 450 360.190429688 450 299.360351562 c 2
 450 199.360351562 l 2
 450 138.530273438 422.849609375 84.0498046875 380 47.3798828125 c 0
 345.040039062 17.4296875 299.629882812 -0.6396484375 250 -0.6396484375 c 0
 200.370117188 -0.6396484375 154.959960938 17.4296875 120 47.3798828125 c 1
 120 -200 l 1
 50 -200 l 1
 50 199.360351562 l 1
 50 299.360351562 l 1
 50 490 l 1
 120 490 l 1
 120 451.33984375 l 1
 154.959960938 481.290039062 200.370117188 499.360351562 250 499.360351562 c 0
 299.629882812 499.360351562 345.040039062 481.290039062 380 451.33984375 c 0
380 199.360351562 m 2
 380 299.360351562 l 2
 380 371.16015625 321.799804688 429.360351562 250 429.360351562 c 0
 178.200195312 429.360351562 120 371.16015625 120 299.360351562 c 2
 120 199.360351562 l 2
 120 127.559570312 178.200195312 69.3603515625 250 69.3603515625 c 0
 321.799804688 69.3603515625 380 127.559570312 380 199.360351562 c 2
EndSplineSet
Validated: 524289
EndChar

StartChar: q
Encoding: 113 113 80
Width: 500
Flags: HMW
LayerCount: 2
Fore
SplineSet
380 451.98046875 m 1
 380 490 l 1
 450 490 l 1
 450 300 l 1
 450 200 l 1
 450 -200 l 1
 380 -200 l 1
 380 48.01953125 l 1
 345.040039062 18.0703125 299.629882812 0 250 0 c 0
 200.370117188 0 154.959960938 18.0703125 120 48.01953125 c 0
 77.150390625 84.6904296875 50 139.169921875 50 200 c 2
 50 300 l 2
 50 360.830078125 77.150390625 415.309570312 120 451.98046875 c 0
 154.959960938 481.9296875 200.370117188 500 250 500 c 0
 299.629882812 500 345.040039062 481.9296875 380 451.98046875 c 1
250 70 m 0
 321.799804688 70 380 128.200195312 380 200 c 2
 380 300 l 2
 380 371.799804688 321.799804688 430 250 430 c 0
 178.200195312 430 120 371.799804688 120 300 c 2
 120 200 l 2
 120 128.200195312 178.200195312 70 250 70 c 0
EndSplineSet
Validated: 524289
EndChar

StartChar: r
Encoding: 114 114 81
Width: 500
Flags: HMW
LayerCount: 2
Fore
SplineSet
380 451.98046875 m 0
 422.849609375 415.309570312 450 360.830078125 450 300 c 1
 380 300 l 1
 380 371.799804688 321.799804688 430 250 430 c 0
 178.200195312 430 120 371.799804688 120 300 c 2
 120 48.01953125 l 1
 120 10 l 1
 50 10 l 1
 50 200 l 1
 50 300 l 1
 50 490 l 1
 120 490 l 1
 120 451.98046875 l 1
 154.959960938 481.9296875 200.370117188 500 250 500 c 0
 299.629882812 500 345.040039062 481.9296875 380 451.98046875 c 0
EndSplineSet
Validated: 524289
EndChar

StartChar: s
Encoding: 115 115 82
Width: 500
Flags: HMW
LayerCount: 2
Fore
SplineSet
311.580078125 278.650390625 m 0
 365.459960938 267.98046875 421.059570312 234.580078125 442.26953125 181.889648438 c 0
 447.299804688 169.389648438 450 156 450 142.509765625 c 0
 450 63.8095703125 360.459960938 0.009765625 250 0.009765625 c 0
 139.540039062 0.009765625 50 63.8095703125 50 142.509765625 c 1
 120 142.509765625 l 1
 120 102.469726562 178.200195312 70.009765625 250 70.009765625 c 0
 321.799804688 70.009765625 380 102.469726562 380 142.509765625 c 0
 380 178.330078125 336.830078125 200.690429688 306.9296875 207.900390625 c 0
 280.309570312 214.3203125 252.58984375 213.889648438 225.360351562 216.799804688 c 0
 163.450195312 223.41015625 95.7001953125 252.169921875 69.4599609375 312.830078125 c 0
 67.3896484375 317.629882812 65.6201171875 322.559570312 64.1904296875 327.58984375 c 0
 61.419921875 337.309570312 59.990234375 347.400390625 59.990234375 357.509765625 c 0
 59.990234375 436.209960938 145.059570312 500.009765625 249.990234375 500.009765625 c 0
 354.919921875 500.009765625 439.990234375 436.209960938 439.990234375 357.509765625 c 1
 369.990234375 357.509765625 l 1
 369.990234375 397.549804688 316.259765625 430.009765625 249.990234375 430.009765625 c 0
 183.719726562 430.009765625 129.990234375 397.549804688 129.990234375 357.509765625 c 0
 129.990234375 289.76953125 227.83984375 287.16015625 274.490234375 283.379882812 c 0
 286.919921875 282.370117188 299.33984375 281.0703125 311.580078125 278.650390625 c 0
EndSplineSet
Validated: 524289
EndChar

StartChar: t
Encoding: 116 116 83
Width: 500
Flags: HMW
LayerCount: 2
Fore
SplineSet
285 790 m 1
 285 490 l 1
 450 490 l 1
 450 420 l 1
 285 420 l 1
 285 10 l 1
 215 10 l 1
 215 420 l 1
 50 420 l 1
 50 490 l 1
 215 490 l 1
 215 790 l 1
 285 790 l 1
EndSplineSet
Validated: 1
EndChar

StartChar: u
Encoding: 117 117 84
Width: 500
Flags: HMW
LayerCount: 2
Fore
SplineSet
380 351.98046875 m 1
 380 490 l 1
 450 490 l 1
 450 200 l 2
 450 139.169921875 422.849609375 84.6904296875 380 48.01953125 c 0
 345.040039062 18.0703125 299.629882812 0 250 0 c 0
 200.370117188 0 154.959960938 18.0703125 120 48.01953125 c 0
 77.150390625 84.6904296875 50 139.169921875 50 200 c 2
 50 490 l 1
 120 490 l 1
 120 351.98046875 l 1
 120 200 l 2
 120 128.200195312 178.200195312 70 250 70 c 0
 321.799804688 70 380 128.200195312 380 200 c 2
 380 351.98046875 l 1
EndSplineSet
Validated: 524289
EndChar

StartChar: v
Encoding: 118 118 85
Width: 500
Flags: HMW
LayerCount: 2
Fore
SplineSet
250 111.8203125 m 1
 380 490 l 1
 450 490 l 1
 285 10 l 1
 215 10 l 1
 50 490 l 1
 120 490 l 1
 250 111.8203125 l 1
EndSplineSet
Validated: 524289
EndChar

StartChar: w
Encoding: 119 119 86
Width: 800
Flags: HMW
LayerCount: 2
Fore
SplineSet
680 341 m 1
 680.009765625 341 l 1
 680.009765625 490 l 1
 750.009765625 490 l 1
 750.009765625 192.5 l 2
 750.009765625 132.719726562 722.759765625 79.3095703125 680.009765625 44 c 0
 646.719726562 16.51953125 604.049804688 0 557.509765625 0 c 0
 510.969726562 0 468.299804688 16.51953125 435.009765625 44 c 0
 428.370117188 49.48046875 422.099609375 55.41015625 416.25 61.7197265625 c 0
 414.790039062 63.2998046875 413.349609375 64.900390625 411.940429688 66.5302734375 c 0
 407.709960938 71.41015625 403.719726562 76.509765625 400 81.7998046875 c 1
 390.0703125 67.6904296875 378.280273438 54.9697265625 365 44 c 0
 331.709960938 16.51953125 289.040039062 0 242.5 0 c 0
 195.959960938 0 153.290039062 16.51953125 120 44 c 0
 77.25 79.3095703125 50 132.719726562 50 192.5 c 2
 50 490 l 1
 120 490 l 1
 120 341 l 1
 120 192.5 l 2
 120 124.849609375 174.849609375 70 242.5 70 c 0
 310.150390625 70 365 124.849609375 365 192.5 c 2
 365 341 l 1
 365 490 l 1
 435 490 l 1
 435 341 l 1
 435 192.5 l 2
 435 124.849609375 489.849609375 70 557.5 70 c 0
 625.150390625 70 680 124.849609375 680 192.5 c 2
 680 341 l 1
EndSplineSet
Validated: 524289
EndChar

StartChar: x
Encoding: 120 120 87
Width: 500
Flags: HMW
LayerCount: 2
Fore
SplineSet
365 490 m 1
 450 490 l 1
 292.5 250 l 1
 450 10 l 1
 365 10 l 1
 250 185.240234375 l 1
 135 10 l 1
 50 10 l 1
 207.5 250 l 1
 50 490 l 1
 135 490 l 1
 250 314.759765625 l 1
 365 490 l 1
EndSplineSet
Validated: 524289
EndChar

StartChar: y
Encoding: 121 121 88
Width: 500
Flags: HMW
LayerCount: 2
Fore
SplineSet
380 451.98046875 m 1
 380 490 l 1
 450 490 l 1
 450 300 l 1
 450 200 l 1
 450 100 l 1
 450 0 l 2
 450 -60.830078125 422.849609375 -115.309570312 380 -151.98046875 c 0
 345.040039062 -181.9296875 299.629882812 -200 250 -200 c 0
 200.370117188 -200 154.959960938 -181.9296875 120 -151.98046875 c 0
 89.3095703125 -125.719726562 66.6796875 -90.3203125 56.3095703125 -50 c 1
 129.969726562 -50 l 1
 149.559570312 -96.98046875 195.919921875 -130 250 -130 c 0
 321.799804688 -130 380 -71.7998046875 380 0 c 2
 380 48.01953125 l 1
 345.040039062 18.0703125 299.629882812 0 250 0 c 0
 200.370117188 0 154.959960938 18.0703125 120 48.01953125 c 0
 89.3095703125 74.2802734375 66.6796875 109.6796875 56.3095703125 150 c 0
 52.1904296875 165.98046875 50 182.73046875 50 200 c 2
 50 278.530273438 l 1
 50 300 l 1
 50 490 l 1
 120 490 l 1
 120 451.98046875 l 1
 120 278.530273438 l 1
 120 200 l 2
 120 182.280273438 123.540039062 165.389648438 129.969726562 150 c 0
 149.549804688 103.01953125 195.919921875 70 250 70 c 0
 304.080078125 70 350.450195312 103.01953125 370.030273438 150 c 0
 376.459960938 165.389648438 380 182.280273438 380 200 c 2
 380 251.98046875 l 1
 380 451.98046875 l 1
EndSplineSet
Validated: 524289
EndChar

StartChar: z
Encoding: 122 122 89
Width: 500
Flags: HMW
LayerCount: 2
Fore
SplineSet
50 420 m 1
 50 490 l 1
 450 490 l 1
 450 420 l 1
 140 80 l 1
 450 80 l 1
 450 10 l 1
 50 10 l 1
 50 80 l 1
 360 420 l 1
 50 420 l 1
EndSplineSet
Validated: 1
EndChar

StartChar: braceleft
Encoding: 123 123 90
Width: 430
Flags: HMW
LayerCount: 2
Fore
SplineSet
180 700 m 2
 180 760.830078125 207.150390625 815.309570312 250 851.98046875 c 0
 284.959960938 881.9296875 330.370117188 900 380 900 c 1
 380 830 l 1
 308.200195312 830 250 771.799804688 250 700 c 2
 250 435 l 1
 250 365 l 1
 250 100 l 2
 250 28.2001953125 308.200195312 -30 380 -30 c 1
 380 -100 l 1
 330.370117188 -100 284.959960938 -81.9296875 250 -51.98046875 c 0
 207.150390625 -15.3095703125 180 39.169921875 180 100 c 2
 180 365 l 1
 50 365 l 1
 50 435 l 1
 180 435 l 1
 180 700 l 2
EndSplineSet
Validated: 524289
EndChar

StartChar: bar
Encoding: 124 124 91
Width: 170
Flags: HMW
LayerCount: 2
Fore
SplineSet
50 -90 m 1
 50 790 l 1
 120 790 l 1
 120 -90 l 1
 50 -90 l 1
EndSplineSet
Validated: 1
EndChar

StartChar: braceright
Encoding: 125 125 92
Width: 430
Flags: HMW
LayerCount: 2
Fore
SplineSet
250 700 m 2
 250 435 l 1
 380 435 l 1
 380 365 l 1
 250 365 l 1
 250 100 l 2
 250 39.169921875 222.849609375 -15.3095703125 180 -51.98046875 c 0
 145.040039062 -81.9296875 99.6298828125 -100 50 -100 c 1
 50 -30 l 1
 121.799804688 -30 180 28.2001953125 180 100 c 2
 180 365 l 1
 180 435 l 1
 180 700 l 2
 180 771.799804688 121.799804688 830 50 830 c 1
 50 900 l 1
 99.6298828125 900 145.040039062 881.9296875 180 851.98046875 c 0
 222.849609375 815.309570312 250 760.830078125 250 700 c 2
EndSplineSet
Validated: 524289
EndChar

StartChar: asciitilde
Encoding: 126 126 93
Width: 465
Flags: HMW
LayerCount: 2
Fore
SplineSet
415 377.709960938 m 2
 413.809570312 374.530273438 407.0703125 357.809570312 391.389648438 341.059570312 c 0
 369.309570312 317.469726562 340.259765625 305 307.389648438 305 c 0
 272.190429688 305 238.940429688 320.580078125 218.459960938 346.690429688 c 0
 212.120117188 354.76953125 207.389648438 363.009765625 203.219726562 370.709960938 c 0
 202.559570312 371.91015625 201.919921875 373.120117188 201.26953125 374.330078125 c 0
 198.650390625 379.209960938 196.1796875 383.8203125 193.669921875 387.5 c 0
 193.440429688 387.849609375 193.190429688 388.190429688 192.950195312 388.530273438 c 0
 185.709960938 398.530273438 171.83984375 405 157.610351562 405 c 0
 144.849609375 405 134.490234375 400.889648438 125.950195312 392.450195312 c 0
 118.580078125 385.169921875 115.450195312 377.709960938 115.450195312 377.709960938 c 1
 50 402.290039062 l 2
 51.1904296875 405.469726562 57.9296875 422.190429688 73.6103515625 438.940429688 c 0
 95.6904296875 462.530273438 124.740234375 475 157.610351562 475 c 0
 194.049804688 475 229.280273438 457.610351562 249.549804688 429.610351562 c 0
 250.1796875 428.73046875 250.799804688 427.849609375 251.389648438 426.98046875 c 0
 256.009765625 420.219726562 259.650390625 413.419921875 262.860351562 407.419921875 c 0
 263.459960938 406.299804688 264.049804688 405.190429688 264.66015625 404.080078125 c 0
 267.360351562 399.08984375 270.290039062 393.919921875 273.41015625 389.940429688 c 0
 280.540039062 380.870117188 293.870117188 375 307.389648438 375 c 0
 320.150390625 375 330.509765625 379.110351562 339.049804688 387.549804688 c 0
 346.419921875 394.830078125 349.549804688 402.290039062 349.549804688 402.290039062 c 1
 415 377.709960938 l 2
EndSplineSet
Validated: 524289
EndChar

StartChar: exclamdown
Encoding: 161 161 94
Width: 180
Flags: HMW
LayerCount: 2
Fore
SplineSet
55 -200 m 1
 55 390 l 1
 125 390 l 1
 125 -200 l 1
 55 -200 l 1
50 550 m 0
 50 572.091796875 67.908203125 590 90 590 c 0
 112.091796875 590 130 572.091796875 130 550 c 0
 130 527.908203125 112.091796875 510 90 510 c 0
 67.908203125 510 50 527.908203125 50 550 c 0
EndSplineSet
Validated: 524289
EndChar

StartChar: cent
Encoding: 162 162 95
Width: 500
Flags: HMW
LayerCount: 2
Fore
SplineSet
380 300 m 1
 380 359.669921875 339.799804688 409.950195312 285 425.23046875 c 1
 285 74.76953125 l 1
 339.799804688 90.0498046875 380 140.330078125 380 200 c 1
 450 200 l 1
 450 139.169921875 422.849609375 84.6904296875 380 48.01953125 c 0
 353.450195312 25.26953125 320.870117188 9.3896484375 285 3.0595703125 c 1
 285 -90 l 1
 215 -90 l 1
 215 3.0595703125 l 1
 179.129882812 9.3896484375 146.549804688 25.2802734375 120 48.01953125 c 0
 77.150390625 84.6904296875 50 139.169921875 50 200 c 2
 50 300 l 2
 50 360.830078125 77.150390625 415.309570312 120 451.98046875 c 0
 146.549804688 474.73046875 179.129882812 490.610351562 215 496.940429688 c 1
 215 590 l 1
 285 590 l 1
 285 496.940429688 l 1
 320.870117188 490.610351562 353.450195312 474.719726562 380 451.98046875 c 0
 422.849609375 415.309570312 450 360.830078125 450 300 c 1
 380 300 l 1
120 200 m 2
 120 140.330078125 160.200195312 90.0498046875 215 74.76953125 c 1
 215 425.23046875 l 1
 160.200195312 409.950195312 120 359.669921875 120 300 c 2
 120 200 l 2
EndSplineSet
Validated: 524289
EndChar

StartChar: sterling
Encoding: 163 163 96
Width: 500
Flags: HMW
LayerCount: 2
Fore
SplineSet
220 650 m 2
 220 523.099609375 l 1
 220 460 l 1
 450 460 l 1
 450 390 l 1
 220 390 l 1
 220 80 l 1
 450 80 l 1
 450 10 l 1
 220 10 l 1
 150 10 l 1
 50 10 l 1
 50 80 l 1
 150 80 l 1
 150 390 l 1
 50 390 l 1
 50 460 l 1
 150 460 l 1
 150 650 l 2
 150 703.4296875 177.940429688 750.33984375 220 776.900390625 c 0
 243.150390625 791.530273438 270.58984375 800 300 800 c 0
 382.83984375 800 450 732.83984375 450 650 c 1
 380 650 l 1
 380 694.1796875 344.1796875 730 300 730 c 0
 255.8203125 730 220 694.1796875 220 650 c 2
EndSplineSet
Validated: 524289
EndChar

StartChar: currency
Encoding: 164 164 97
Width: 500
Flags: HMW
LayerCount: 2
Fore
SplineSet
99.4697265625 100.16015625 m 1
 50 149.650390625 l 1
 122.129882812 221.8203125 l 1
 108.08984375 244.639648438 100 271.509765625 100 300.259765625 c 0
 100 329.009765625 108.08984375 355.879882812 122.129882812 378.700195312 c 1
 50 450.870117188 l 1
 99.4697265625 500.360351562 l 1
 171.620117188 428.169921875 l 1
 194.4296875 442.1796875 221.26953125 450.259765625 250 450.259765625 c 0
 278.73046875 450.259765625 305.5703125 442.1796875 328.379882812 428.169921875 c 1
 400.530273438 500.360351562 l 1
 450 450.870117188 l 1
 377.870117188 378.700195312 l 1
 391.91015625 355.879882812 400 329.009765625 400 300.259765625 c 0
 400 271.509765625 391.91015625 244.639648438 377.870117188 221.8203125 c 1
 450 149.650390625 l 1
 400.530273438 100.16015625 l 1
 328.379882812 172.349609375 l 1
 305.5703125 158.33984375 278.73046875 150.259765625 250 150.259765625 c 0
 221.26953125 150.259765625 194.4296875 158.33984375 171.620117188 172.349609375 c 1
 99.4697265625 100.16015625 l 1
170.040039062 300.259765625 m 0
 170.040039062 291.110351562 171.580078125 282.3203125 174.41015625 274.129882812 c 0
 182.400390625 250.969726562 200.73046875 232.629882812 223.879882812 224.629882812 c 0
 232.0703125 221.799804688 240.849609375 220.259765625 250 220.259765625 c 0
 259.150390625 220.259765625 267.9296875 221.799804688 276.120117188 224.629882812 c 0
 299.26953125 232.629882812 317.599609375 250.969726562 325.58984375 274.129882812 c 0
 328.419921875 282.3203125 329.959960938 291.110351562 329.959960938 300.259765625 c 0
 329.959960938 309.41015625 328.419921875 318.200195312 325.58984375 326.389648438 c 0
 317.599609375 349.549804688 299.26953125 367.889648438 276.120117188 375.889648438 c 0
 267.9296875 378.719726562 259.150390625 380.259765625 250 380.259765625 c 0
 240.849609375 380.259765625 232.0703125 378.719726562 223.879882812 375.889648438 c 0
 200.73046875 367.889648438 182.400390625 349.549804688 174.41015625 326.389648438 c 0
 171.580078125 318.200195312 170.040039062 309.41015625 170.040039062 300.259765625 c 0
EndSplineSet
Validated: 524289
EndChar

StartChar: yen
Encoding: 165 165 98
Width: 500
Flags: HMW
LayerCount: 2
Fore
SplineSet
380.3203125 790 m 1
 450.3203125 790 l 1
 320.55078125 459.6796875 l 1
 450 459.6796875 l 1
 450 389.6796875 l 1
 293.05078125 389.6796875 l 1
 285.3203125 370 l 1
 285.3203125 270 l 1
 450.3203125 270 l 1
 450.3203125 200 l 1
 285.3203125 200 l 1
 285.3203125 10 l 1
 215.3203125 10 l 1
 215.3203125 200 l 1
 50.3203125 200 l 1
 50.3203125 270 l 1
 215.3203125 270 l 1
 215.3203125 370 l 1
 207.58984375 389.6796875 l 1
 50 389.6796875 l 1
 50 459.6796875 l 1
 180.08984375 459.6796875 l 1
 50.3203125 790 l 1
 120.3203125 790 l 1
 215.3203125 548.1796875 l 1
 250.08984375 459.6796875 l 1
 250.55078125 459.6796875 l 1
 285.3203125 548.1796875 l 1
 380.3203125 790 l 1
EndSplineSet
Validated: 524289
EndChar

StartChar: brokenbar
Encoding: 166 166 99
Width: 170
Flags: HMW
LayerCount: 2
Fore
SplineSet
50 400 m 1
 50 790 l 1
 120 790 l 1
 120 400 l 1
 50 400 l 1
50 -190 m 1
 50 200 l 1
 120 200 l 1
 120 -190 l 1
 50 -190 l 1
EndSplineSet
Validated: 1
EndChar

StartChar: section
Encoding: 167 167 100
Width: 477
Flags: HMW
LayerCount: 2
Fore
SplineSet
238.5 -134.01953125 m 0
 306.169921875 -134.01953125 361.01953125 -79.1796875 361.01953125 -11.5 c 0
 361.01953125 56.1796875 306.169921875 111.030273438 238.5 111.030273438 c 0
 198.950195312 111.030273438 162.25 123.209960938 131.940429688 144.01953125 c 0
 82.4501953125 177.990234375 50 234.969726562 50 299.530273438 c 0
 50 364.08984375 82.4501953125 421.059570312 131.940429688 455.040039062 c 1
 82.4501953125 489.009765625 50 545.990234375 50 610.549804688 c 0
 50 714.66015625 134.389648438 799.049804688 238.5 799.049804688 c 0
 342.610351562 799.049804688 427 714.66015625 427 610.549804688 c 1
 361.01953125 610.549804688 l 1
 361.01953125 678.23046875 306.169921875 733.080078125 238.5 733.080078125 c 0
 170.830078125 733.080078125 115.98046875 678.209960938 115.98046875 610.540039062 c 0
 115.98046875 542.870117188 170.830078125 488.01953125 238.5 488.01953125 c 0
 278.049804688 488.01953125 314.75 475.83984375 345.059570312 455.030273438 c 0
 394.549804688 421.059570312 427 364.080078125 427 299.51953125 c 0
 427 234.959960938 394.549804688 177.990234375 345.059570312 144.009765625 c 1
 394.549804688 110.040039062 427 53.0595703125 427 -11.5 c 0
 427 -115.610351562 342.610351562 -200 238.5 -200 c 0
 134.389648438 -200 50 -115.610351562 50 -11.5 c 1
 115.98046875 -11.5 l 1
 115.98046875 -79.169921875 170.830078125 -134.01953125 238.5 -134.01953125 c 0
238.5 177 m 0
 306.169921875 177 361.01953125 231.860351562 361.01953125 299.530273438 c 0
 361.01953125 367.200195312 306.169921875 422.049804688 238.5 422.049804688 c 0
 170.830078125 422.049804688 115.98046875 367.209960938 115.98046875 299.530273438 c 0
 115.98046875 231.849609375 170.830078125 177 238.5 177 c 0
EndSplineSet
Validated: 524289
EndChar

StartChar: dieresis
Encoding: 168 168 101
Width: 290
Flags: HMW
LayerCount: 2
Fore
SplineSet
50 745 m 0
 50 764.330078125 65.669921875 780 85 780 c 0
 104.330078125 780 120 764.330078125 120 745 c 0
 120 725.669921875 104.330078125 710 85 710 c 0
 65.669921875 710 50 725.669921875 50 745 c 0
170 745 m 0
 170 764.330078125 185.669921875 780 205 780 c 0
 224.330078125 780 240 764.330078125 240 745 c 0
 240 725.669921875 224.330078125 710 205 710 c 0
 185.669921875 710 170 725.669921875 170 745 c 0
EndSplineSet
Validated: 524289
EndChar

StartChar: copyright
Encoding: 169 169 102
Width: 695
Flags: HMW
LayerCount: 2
Fore
SplineSet
557.870117188 647.870117188 m 0
 585.190429688 620.540039062 606.639648438 588.73046875 621.620117188 553.299804688 c 0
 637.129882812 516.629882812 645 477.66015625 645 437.5 c 2
 645 362.5 l 2
 645 322.33984375 637.129882812 283.370117188 621.620117188 246.700195312 c 0
 606.639648438 211.26953125 585.190429688 179.459960938 557.870117188 152.129882812 c 0
 530.540039062 124.809570312 498.73046875 103.360351562 463.299804688 88.3798828125 c 0
 426.629882812 72.8701171875 387.66015625 65 347.5 65 c 0
 307.33984375 65 268.370117188 72.8701171875 231.700195312 88.3798828125 c 0
 196.26953125 103.360351562 164.459960938 124.809570312 137.129882812 152.129882812 c 0
 109.809570312 179.459960938 88.3603515625 211.26953125 73.3798828125 246.700195312 c 0
 57.8701171875 283.370117188 50 322.33984375 50 362.5 c 2
 50 437.5 l 2
 50 477.66015625 57.8701171875 516.629882812 73.3798828125 553.299804688 c 0
 88.3603515625 588.73046875 109.809570312 620.540039062 137.129882812 647.870117188 c 0
 164.459960938 675.190429688 196.26953125 696.639648438 231.700195312 711.620117188 c 0
 268.370117188 727.129882812 307.33984375 735 347.5 735 c 0
 387.66015625 735 426.629882812 727.129882812 463.299804688 711.620117188 c 0
 498.73046875 696.639648438 530.540039062 675.190429688 557.870117188 647.870117188 c 0
575 362.5 m 2
 575 437.5 l 2
 575 562.940429688 472.940429688 665 347.5 665 c 0
 222.059570312 665 120 562.940429688 120 437.5 c 2
 120 362.5 l 2
 120 237.059570312 222.059570312 135 347.5 135 c 0
 472.940429688 135 575 237.059570312 575 362.5 c 2
347.5 515 m 0
 304.76953125 515 270 480.23046875 270 437.5 c 2
 270 362.5 l 2
 270 319.76953125 304.76953125 285 347.5 285 c 0
 389.400390625 285 423.629882812 318.419921875 424.959960938 360 c 1
 494.98046875 360 l 1
 494.549804688 334.9296875 487.759765625 310.33984375 475.26953125 288.75 c 0
 462.3203125 266.360351562 443.639648438 247.6796875 421.25 234.73046875 c 0
 398.940429688 221.8203125 373.440429688 215 347.5 215 c 0
 321.559570312 215 296.059570312 221.8203125 273.75 234.73046875 c 0
 251.360351562 247.6796875 232.6796875 266.360351562 219.73046875 288.75 c 0
 206.8203125 311.059570312 200 336.559570312 200 362.5 c 2
 200 437.5 l 2
 200 463.440429688 206.8203125 488.940429688 219.73046875 511.25 c 0
 232.6796875 533.639648438 251.360351562 552.3203125 273.75 565.26953125 c 0
 296.059570312 578.1796875 321.559570312 585 347.5 585 c 0
 373.440429688 585 398.940429688 578.1796875 421.25 565.26953125 c 0
 443.639648438 552.3203125 462.3203125 533.639648438 475.26953125 511.25 c 0
 487.759765625 489.66015625 494.549804688 465.0703125 494.98046875 440 c 1
 424.959960938 440 l 1
 423.629882812 481.580078125 389.400390625 515 347.5 515 c 0
EndSplineSet
Validated: 524289
EndChar

StartChar: ordfeminine
Encoding: 170 170 103
Width: 300
Flags: HMW
LayerCount: 2
Fore
SplineSet
215 795 m 1
 250 795 l 1
 250 700 l 1
 250 650 l 1
 250 555 l 1
 215 555 l 1
 215 574.009765625 l 1
 197.51953125 559.040039062 174.809570312 550 150 550 c 0
 125.190429688 550 102.48046875 559.040039062 85 574.009765625 c 0
 63.580078125 592.349609375 50 619.58984375 50 650 c 2
 50 700 l 2
 50 730.41015625 63.580078125 757.650390625 85 775.990234375 c 0
 102.48046875 790.969726562 125.190429688 800 150 800 c 0
 174.809570312 800 197.51953125 790.969726562 215 775.990234375 c 1
 215 795 l 1
150 585 m 0
 185.900390625 585 215 614.099609375 215 650 c 2
 215 700 l 2
 215 735.900390625 185.900390625 765 150 765 c 0
 114.099609375 765 85 735.900390625 85 700 c 2
 85 650 l 2
 85 614.099609375 114.099609375 585 150 585 c 0
EndSplineSet
Validated: 524289
EndChar

StartChar: guillemotleft
Encoding: 171 171 104
Width: 440
Flags: HMW
LayerCount: 2
Fore
SplineSet
320 190 m 1
 190 340 l 1
 320 490 l 1
 390 490 l 1
 260 340 l 1
 390 190 l 1
 320 190 l 1
250 190 m 1
 180 190 l 1
 50 340 l 1
 180 490 l 1
 250 490 l 1
 120 340 l 1
 250 190 l 1
EndSplineSet
Validated: 1
EndChar

StartChar: logicalnot
Encoding: 172 172 105
Width: 400
Flags: HMW
LayerCount: 2
Fore
SplineSet
350 205 m 1
 280 205 l 1
 280 305 l 1
 50 305 l 1
 50 375 l 1
 280 375 l 1
 350 375 l 1
 350 305 l 1
 350 205 l 1
EndSplineSet
Validated: 1
EndChar

StartChar: uni00AD
Encoding: 173 173 106
Width: 400
Flags: HMW
LayerCount: 2
Fore
SplineSet
50 305 m 1
 50 375 l 1
 350 375 l 1
 350 305 l 1
 50 305 l 1
EndSplineSet
Validated: 1
EndChar

StartChar: registered
Encoding: 174 174 107
Width: 710
Flags: HMW
LayerCount: 2
Fore
SplineSet
355 810 m 0
 436.469726562 810 513.059570312 778.26953125 570.669921875 720.669921875 c 0
 628.26953125 663.059570312 660 586.469726562 660 505 c 0
 660 423.530273438 628.26953125 346.940429688 570.669921875 289.330078125 c 0
 513.059570312 231.73046875 436.469726562 200 355 200 c 0
 273.530273438 200 196.940429688 231.73046875 139.330078125 289.330078125 c 0
 81.73046875 346.940429688 50 423.530273438 50 505 c 0
 50 586.469726562 81.73046875 663.059570312 139.330078125 720.669921875 c 0
 196.940429688 778.26953125 273.530273438 810 355 810 c 0
355 260.849609375 m 0
 489.629882812 260.849609375 599.150390625 370.370117188 599.150390625 505 c 0
 599.150390625 639.629882812 489.629882812 749.150390625 355 749.150390625 c 0
 220.370117188 749.150390625 110.849609375 639.629882812 110.849609375 505 c 0
 110.849609375 370.370117188 220.370117188 260.849609375 355 260.849609375 c 0
461.700195312 601.610351562 m 0
 461.700195312 582.849609375 456.759765625 564.400390625 447.419921875 548.259765625 c 0
 442.549804688 539.830078125 436.5703125 532.139648438 429.610351562 525.33984375 c 1
 436.5703125 518.530273438 442.549804688 510.83984375 447.419921875 502.419921875 c 0
 456.759765625 486.280273438 461.700195312 467.830078125 461.700195312 449.0703125 c 2
 461.700195312 301.700195312 l 1
 400.849609375 301.700195312 l 1
 400.849609375 449.0703125 l 2
 400.849609375 474.349609375 380.280273438 494.919921875 355 494.919921875 c 2
 309.150390625 494.919921875 l 1
 309.150390625 301.700195312 l 1
 248.299804688 301.700195312 l 1
 248.299804688 708.299804688 l 1
 355 708.299804688 l 2
 373.759765625 708.299804688 392.209960938 703.370117188 408.349609375 694.030273438 c 0
 424.540039062 684.66015625 438.049804688 671.150390625 447.419921875 654.959960938 c 0
 456.759765625 638.8203125 461.700195312 620.370117188 461.700195312 601.610351562 c 0
355 555.759765625 m 2
 380.280273438 555.759765625 400.849609375 576.330078125 400.849609375 601.610351562 c 0
 400.849609375 626.889648438 380.280273438 647.459960938 355 647.459960938 c 2
 309.150390625 647.459960938 l 1
 309.150390625 555.759765625 l 1
 355 555.759765625 l 2
EndSplineSet
Validated: 524289
EndChar

StartChar: macron
Encoding: 175 175 108
Width: 400
Flags: HMW
LayerCount: 2
Fore
SplineSet
50 720 m 1
 50 790 l 1
 350 790 l 1
 350 720 l 1
 50 720 l 1
EndSplineSet
Validated: 1
EndChar

StartChar: degree
Encoding: 176 176 109
Width: 300
Flags: HMW
LayerCount: 2
Fore
SplineSet
150 800 m 0
 205.23046875 800 250 755.23046875 250 700 c 0
 250 644.76953125 205.23046875 600 150 600 c 0
 94.76953125 600 50 644.76953125 50 700 c 0
 50 755.23046875 94.76953125 800 150 800 c 0
150 635 m 0
 185.900390625 635 215 664.099609375 215 700 c 0
 215 735.900390625 185.900390625 765 150 765 c 0
 114.099609375 765 85 735.900390625 85 700 c 0
 85 664.099609375 114.099609375 635 150 635 c 0
EndSplineSet
Validated: 524289
EndChar

StartChar: plusminus
Encoding: 177 177 110
Width: 500
Flags: HMW
LayerCount: 2
Fore
SplineSet
50 10 m 1
 50 80 l 1
 450 80 l 1
 450 10 l 1
 50 10 l 1
285 555 m 1
 285 390 l 1
 450 390 l 1
 450 320 l 1
 285 320 l 1
 285 155 l 1
 215 155 l 1
 215 320 l 1
 50 320 l 1
 50 390 l 1
 215 390 l 1
 215 555 l 1
 285 555 l 1
EndSplineSet
Validated: 1
EndChar

StartChar: uni00B2
Encoding: 178 178 111
Width: 229
Flags: HMW
LayerCount: 2
Fore
SplineSet
91.580078125 598.830078125 m 2
 87.7001953125 586.290039062 l 1
 179 586.290039062 l 1
 179 550.219726562 l 1
 50 550.219726562 l 1
 50.1298828125 568.370117188 l 2
 50.150390625 570.700195312 50.2900390625 572.830078125 50.4296875 574.629882812 c 0
 51.0595703125 582.76953125 52.419921875 591.219726562 54.490234375 599.780273438 c 0
 54.75 600.879882812 55.0302734375 601.990234375 55.3203125 603.08984375 c 0
 59.8603515625 620.349609375 67.1103515625 636.3203125 76.8798828125 650.540039062 c 0
 87.3603515625 665.780273438 100.200195312 678.219726562 115.059570312 687.5 c 0
 125.540039062 694.059570312 133.830078125 703.530273438 138.41015625 714.200195312 c 0
 143.799804688 726.75 144.23046875 740.4296875 139.509765625 749.080078125 c 0
 134.599609375 758.099609375 124.799804688 763.919921875 114.559570312 763.919921875 c 0
 98.900390625 763.919921875 86.16015625 751.1796875 86.16015625 735.5 c 2
 86.16015625 732.959960938 l 1
 50.1298828125 732.959960938 l 1
 50.1298828125 735.5 l 2
 50.1298828125 771.059570312 79.0400390625 799.990234375 114.5703125 799.990234375 c 0
 126.0703125 799.990234375 137.440429688 796.83984375 147.450195312 790.889648438 c 0
 157.450195312 784.940429688 165.650390625 776.459960938 171.16015625 766.349609375 c 0
 176.540039062 756.469726562 179.169921875 744.559570312 178.75 731.919921875 c 0
 178.400390625 721.209960938 175.900390625 710.16015625 171.530273438 699.98046875 c 0
 164.08984375 682.620117188 150.8203125 667.330078125 134.150390625 656.919921875 c 0
 114.75 644.799804688 99.23046875 623.620117188 91.580078125 598.830078125 c 2
EndSplineSet
Validated: 524289
EndChar

StartChar: uni00B3
Encoding: 179 179 112
Width: 227
Flags: HMW
LayerCount: 2
Fore
SplineSet
145.25 791.5 m 0
 154.889648438 785.9296875 162.9296875 777.889648438 168.5 768.25 c 0
 174.059570312 758.650390625 177 747.669921875 177 736.5 c 2
 177 733.450195312 l 2
 177 722.280273438 174.059570312 711.299804688 168.5 701.690429688 c 0
 166.900390625 698.919921875 165.080078125 696.259765625 163.0703125 693.759765625 c 2
 158.240234375 687.719726562 l 1
 163.0703125 681.690429688 l 2
 165.080078125 679.190429688 166.900390625 676.51953125 168.5 673.75 c 0
 174.059570312 664.150390625 177 653.169921875 177 642 c 2
 177 614.559570312 l 2
 177 603.389648438 174.059570312 592.41015625 168.5 582.809570312 c 0
 162.9296875 573.1796875 154.889648438 565.129882812 145.25 559.559570312 c 0
 135.650390625 554 124.669921875 551.059570312 113.5 551.059570312 c 0
 102.330078125 551.059570312 91.349609375 554 81.740234375 559.559570312 c 0
 72.1103515625 565.129882812 64.0703125 573.169921875 58.5 582.809570312 c 0
 52.9296875 592.41015625 50 603.400390625 50 614.559570312 c 2
 50 617.099609375 l 1
 85.5498046875 617.099609375 l 1
 85.5498046875 614.559570312 l 2
 85.5498046875 599.150390625 98.08984375 586.620117188 113.5 586.620117188 c 0
 128.91015625 586.620117188 141.440429688 599.150390625 141.440429688 614.559570312 c 2
 141.440429688 642 l 2
 141.440429688 657.41015625 128.91015625 669.950195312 113.5 669.950195312 c 2
 95.830078125 669.950195312 l 1
 95.830078125 705.5 l 1
 113.5 705.5 l 2
 128.91015625 705.5 141.440429688 718.040039062 141.440429688 733.450195312 c 2
 141.440429688 736.5 l 2
 141.440429688 751.91015625 128.91015625 764.440429688 113.5 764.440429688 c 0
 98.08984375 764.440429688 85.5498046875 751.91015625 85.5498046875 736.5 c 2
 85.5498046875 733.959960938 l 1
 50 733.959960938 l 1
 50 736.5 l 2
 50 747.66015625 52.9404296875 758.650390625 58.5 768.25 c 0
 64.0703125 777.879882812 72.099609375 785.9296875 81.75 791.5 c 0
 91.349609375 797.059570312 102.330078125 800 113.5 800 c 0
 124.669921875 800 135.650390625 797.059570312 145.25 791.5 c 0
EndSplineSet
Validated: 524289
EndChar

StartChar: acute
Encoding: 180 180 113
Width: 250
Flags: HMW
LayerCount: 2
Fore
SplineSet
200 790 m 1
 120 600 l 1
 50 600 l 1
 130 790 l 1
 200 790 l 1
EndSplineSet
Validated: 1
EndChar

StartChar: mu
Encoding: 181 181 114
Width: 500
Flags: HMW
LayerCount: 2
Fore
SplineSet
380 351.98046875 m 1
 380 490 l 1
 450 490 l 1
 450 10 l 1
 380 10 l 1
 380 48.01953125 l 1
 345.040039062 18.0703125 299.629882812 0 250 0 c 0
 200.370117188 0 154.959960938 18.0703125 120 48.01953125 c 1
 120 -190 l 1
 50 -190 l 1
 50 490 l 1
 120 490 l 1
 120 351.98046875 l 1
 120 200 l 2
 120 128.200195312 178.200195312 70 250 70 c 0
 321.799804688 70 380 128.200195312 380 200 c 2
 380 351.98046875 l 1
EndSplineSet
Validated: 524289
EndChar

StartChar: paragraph
Encoding: 182 182 115
Width: 500
Flags: HMW
LayerCount: 2
Fore
SplineSet
300 790 m 1
 380 790 l 1
 450 790 l 1
 450 720 l 1
 450 460 l 1
 450 390 l 1
 450 -200 l 1
 380 -200 l 1
 380 390 l 1
 380 460 l 1
 380 720 l 1
 300 720 l 1
 300 710.030273438 l 1
 300 469.969726562 l 1
 300 460 l 1
 300 396.309570312 l 1
 300 390 l 1
 300 -200 l 1
 230 -200 l 1
 230 390.990234375 l 1
 128.9296875 401.01953125 50 486.290039062 50 590 c 0
 50 693.709960938 128.9296875 778.98046875 230 789.009765625 c 0
 236.580078125 789.669921875 243.25 790 250 790 c 2
 300 790 l 1
120 590 m 0
 120 525 167.700195312 471.150390625 230 461.530273438 c 1
 230 718.469726562 l 1
 167.700195312 708.849609375 120 655 120 590 c 0
EndSplineSet
Validated: 524289
EndChar

StartChar: periodcentered
Encoding: 183 183 116
Width: 180
Flags: HMW
LayerCount: 2
Fore
SplineSet
50 345 m 0
 50 367.091796875 67.908203125 385 90 385 c 0
 112.091796875 385 130 367.091796875 130 345 c 0
 130 322.908203125 112.091796875 305 90 305 c 0
 67.908203125 305 50 322.908203125 50 345 c 0
EndSplineSet
Validated: 524289
EndChar

StartChar: cedilla
Encoding: 184 184 117
Width: 170
Flags: HMW
LayerCount: 2
Fore
SplineSet
50 -95 m 1
 50 95 l 1
 120 95 l 1
 120 -95 l 1
 50 -95 l 1
EndSplineSet
Validated: 1
EndChar

StartChar: uni00B9
Encoding: 185 185 118
Width: 182
Flags: HMW
LayerCount: 2
Fore
SplineSet
50 731.280273438 m 1
 50 767.219726562 l 1
 132 800 l 1
 132 550 l 1
 96.41015625 550 l 1
 96.41015625 749.83984375 l 1
 82.83984375 744.41015625 l 1
 50 731.280273438 l 1
EndSplineSet
Validated: 524289
EndChar

StartChar: ordmasculine
Encoding: 186 186 119
Width: 300
Flags: HMW
LayerCount: 2
Fore
SplineSet
215 775.990234375 m 0
 236.419921875 757.66015625 250 730.419921875 250 700 c 2
 250 650 l 2
 250 619.580078125 236.419921875 592.33984375 215 574.009765625 c 0
 197.51953125 559.040039062 174.809570312 550 150 550 c 0
 125.190429688 550 102.48046875 559.040039062 85 574.009765625 c 0
 63.580078125 592.33984375 50 619.580078125 50 650 c 2
 50 700 l 2
 50 730.419921875 63.580078125 757.66015625 85 775.990234375 c 0
 102.48046875 790.969726562 125.190429688 800 150 800 c 0
 174.809570312 800 197.51953125 790.969726562 215 775.990234375 c 0
215 650 m 2
 215 700 l 2
 215 735.900390625 185.900390625 765 150 765 c 0
 114.099609375 765 85 735.900390625 85 700 c 2
 85 650 l 2
 85 614.099609375 114.099609375 585 150 585 c 0
 185.900390625 585 215 614.099609375 215 650 c 2
EndSplineSet
Validated: 524289
EndChar

StartChar: guillemotright
Encoding: 187 187 120
Width: 440
Flags: HMW
LayerCount: 2
Fore
SplineSet
120 490 m 1
 250 340 l 1
 120 190 l 1
 50 190 l 1
 180 340 l 1
 50 490 l 1
 120 490 l 1
190 490 m 1
 260 490 l 1
 390 340 l 1
 260 190 l 1
 190 190 l 1
 320 340 l 1
 190 490 l 1
EndSplineSet
Validated: 1
EndChar

StartChar: onequarter
Encoding: 188 188 121
Width: 500
Flags: HMW
LayerCount: 2
Fore
SplineSet
50 10 m 1
 405 790 l 1
 450 790 l 1
 95 10 l 1
 50 10 l 1
96.41015625 749.83984375 m 1
 82.83984375 744.41015625 l 1
 50 731.280273438 l 1
 50 767.219726562 l 1
 132 800 l 1
 132 550 l 1
 96.41015625 550 l 1
 96.41015625 749.83984375 l 1
413.419921875 165.809570312 m 1
 413.419921875 260 l 1
 450 260 l 1
 450 10 l 1
 413.41015625 10 l 1
 413.41015625 129.309570312 l 1
 384.490234375 129.309570312 l 2
 372.98046875 129.309570312 361.650390625 132.33984375 351.740234375 138.059570312 c 0
 347.990234375 140.23046875 344.4296875 142.780273438 341.169921875 145.650390625 c 0
 335.830078125 150.360351562 331.3203125 155.860351562 327.76953125 161.990234375 c 0
 322.040039062 171.870117188 319 183.169921875 319 194.66015625 c 2
 319 260 l 1
 355.580078125 260 l 1
 355.580078125 194.66015625 l 2
 355.580078125 178.75 368.559570312 165.809570312 384.5 165.809570312 c 2
 413.419921875 165.809570312 l 1
EndSplineSet
Validated: 524289
EndChar

StartChar: onehalf
Encoding: 189 189 122
Width: 500
Flags: HMW
LayerCount: 2
Fore
SplineSet
50 10 m 1
 405 790 l 1
 450 790 l 1
 95 10 l 1
 50 10 l 1
362.580078125 58.6103515625 m 2
 358.700195312 46.0703125 l 1
 450 46.0703125 l 1
 450 10 l 1
 321 10 l 1
 321.129882812 28.150390625 l 2
 321.150390625 30.48046875 321.290039062 32.6103515625 321.4296875 34.41015625 c 0
 322.059570312 42.5498046875 323.419921875 51 325.490234375 59.5595703125 c 0
 325.75 60.66015625 326.030273438 61.76953125 326.3203125 62.8701171875 c 0
 330.860351562 80.1298828125 338.110351562 96.099609375 347.879882812 110.3203125 c 0
 358.360351562 125.559570312 371.200195312 138 386.059570312 147.280273438 c 0
 396.540039062 153.83984375 404.830078125 163.309570312 409.41015625 173.98046875 c 0
 414.799804688 186.530273438 415.23046875 200.209960938 410.509765625 208.860351562 c 0
 405.599609375 217.879882812 395.799804688 223.700195312 385.559570312 223.700195312 c 0
 369.900390625 223.700195312 357.16015625 210.959960938 357.16015625 195.280273438 c 2
 357.16015625 192.740234375 l 1
 321.129882812 192.740234375 l 1
 321.129882812 195.280273438 l 2
 321.129882812 230.83984375 350.040039062 259.76953125 385.5703125 259.76953125 c 0
 397.0703125 259.76953125 408.440429688 256.620117188 418.450195312 250.669921875 c 0
 428.450195312 244.719726562 436.650390625 236.240234375 442.16015625 226.129882812 c 0
 447.540039062 216.25 450.169921875 204.33984375 449.75 191.700195312 c 0
 449.400390625 180.990234375 446.900390625 169.950195312 442.530273438 159.759765625 c 0
 435.08984375 142.400390625 421.8203125 127.110351562 405.150390625 116.700195312 c 0
 385.75 104.580078125 370.23046875 83.400390625 362.580078125 58.6103515625 c 2
132 550 m 1
 96.41015625 550 l 1
 96.41015625 749.83984375 l 1
 82.83984375 744.41015625 l 1
 50 731.280273438 l 1
 50 767.219726562 l 1
 132 800 l 1
 132 550 l 1
EndSplineSet
Validated: 524289
EndChar

StartChar: threequarters
Encoding: 190 190 123
Width: 500
Flags: HMW
LayerCount: 2
Fore
SplineSet
50 10 m 1
 405 790 l 1
 450 790 l 1
 95 10 l 1
 50 10 l 1
81.740234375 559.559570312 m 0
 72.099609375 565.129882812 64.0703125 573.1796875 58.5 582.809570312 c 0
 52.9296875 592.41015625 50 603.400390625 50 614.559570312 c 2
 50 617.099609375 l 1
 85.5498046875 617.099609375 l 1
 85.5498046875 614.559570312 l 2
 85.5498046875 599.150390625 98.08984375 586.620117188 113.5 586.620117188 c 0
 128.91015625 586.620117188 141.440429688 599.150390625 141.440429688 614.559570312 c 2
 141.440429688 642 l 2
 141.440429688 657.41015625 128.91015625 669.950195312 113.5 669.950195312 c 2
 95.830078125 669.950195312 l 1
 95.830078125 705.5 l 1
 113.5 705.5 l 2
 128.91015625 705.5 141.440429688 718.040039062 141.440429688 733.450195312 c 2
 141.440429688 736.5 l 2
 141.440429688 751.91015625 128.91015625 764.440429688 113.5 764.440429688 c 0
 98.08984375 764.440429688 85.5498046875 751.91015625 85.5498046875 736.5 c 2
 85.5498046875 733.959960938 l 1
 50 733.959960938 l 1
 50 736.5 l 2
 50 747.66015625 52.9404296875 758.650390625 58.5 768.25 c 0
 64.0703125 777.879882812 72.099609375 785.9296875 81.75 791.5 c 0
 91.349609375 797.059570312 102.330078125 800 113.5 800 c 0
 124.669921875 800 135.650390625 797.059570312 145.25 791.5 c 0
 154.879882812 785.9296875 162.9296875 777.889648438 168.5 768.25 c 0
 174.059570312 758.650390625 177 747.669921875 177 736.5 c 2
 177 733.450195312 l 2
 177 722.280273438 174.059570312 711.299804688 168.5 701.690429688 c 0
 166.900390625 698.919921875 165.080078125 696.259765625 163.0703125 693.759765625 c 2
 158.240234375 687.719726562 l 1
 163.0703125 681.690429688 l 2
 165.080078125 679.190429688 166.900390625 676.51953125 168.5 673.75 c 0
 174.059570312 664.150390625 177 653.169921875 177 642 c 2
 177 614.559570312 l 2
 177 603.389648438 174.059570312 592.41015625 168.5 582.809570312 c 0
 162.9296875 573.1796875 154.889648438 565.129882812 145.25 559.559570312 c 0
 135.650390625 554 124.669921875 551.059570312 113.5 551.059570312 c 0
 102.330078125 551.059570312 91.349609375 554 81.740234375 559.559570312 c 0
413.419921875 165.809570312 m 1
 413.419921875 260 l 1
 450 260 l 1
 450 10 l 1
 413.41015625 10 l 1
 413.41015625 129.309570312 l 1
 384.490234375 129.309570312 l 2
 372.98046875 129.309570312 361.650390625 132.33984375 351.740234375 138.059570312 c 0
 347.990234375 140.23046875 344.4296875 142.780273438 341.169921875 145.650390625 c 0
 335.830078125 150.360351562 331.3203125 155.860351562 327.76953125 161.990234375 c 0
 322.040039062 171.870117188 319 183.169921875 319 194.66015625 c 2
 319 260 l 1
 355.580078125 260 l 1
 355.580078125 194.66015625 l 2
 355.580078125 178.75 368.559570312 165.809570312 384.5 165.809570312 c 2
 413.419921875 165.809570312 l 1
EndSplineSet
Validated: 524289
EndChar

StartChar: questiondown
Encoding: 191 191 124
Width: 500
Flags: HMW
LayerCount: 2
Fore
SplineSet
210 560 m 0
 210 582.091796875 227.908203125 600 250 600 c 0
 272.091796875 600 290 582.091796875 290 560 c 0
 290 537.908203125 272.091796875 520 250 520 c 0
 227.908203125 520 210 537.908203125 210 560 c 0
250 -130 m 0
 321.799804688 -130 380 -71.7998046875 380 0 c 1
 450 0 l 1
 450 -110.459960938 360.459960938 -200 250 -200 c 0
 139.540039062 -200 50 -110.459960938 50 0 c 2
 50 10 l 2
 50 108.51953125 121.23046875 190.400390625 215 206.950195312 c 1
 215 400 l 1
 285 400 l 1
 285 135.23046875 l 1
 273.870117188 138.33984375 262.129882812 140 250 140 c 0
 237.870117188 140 226.129882812 138.33984375 215 135.23046875 c 0
 160.200195312 119.950195312 120 69.669921875 120 10 c 2
 120 0 l 2
 120 -71.7998046875 178.200195312 -130 250 -130 c 0
EndSplineSet
Validated: 524289
EndChar

StartChar: Agrave
Encoding: 192 192 125
Width: 500
Flags: HMW
LayerCount: 2
Fore
SplineSet
320 835 m 1
 250 835 l 1
 180 1000 l 1
 250 1000 l 1
 320 835 l 1
406.629882812 215 m 1
 409.799804688 200 l 1
 450 10 l 1
 380 10 l 1
 339.799804688 200 l 1
 160.200195312 200 l 1
 120 10 l 1
 50 10 l 1
 90.2001953125 200 l 1
 93.3701171875 215 l 1
 105 270 l 1
 108.169921875 285 l 1
 215 790 l 1
 285 790 l 1
 391.830078125 285 l 1
 395 270 l 1
 406.629882812 215 l 1
175 270 m 1
 325 270 l 1
 321.830078125 285 l 1
 250 624.549804688 l 1
 178.169921875 285 l 1
 175 270 l 1
EndSplineSet
Validated: 524289
EndChar

StartChar: Aacute
Encoding: 193 193 126
Width: 500
Flags: HMW
LayerCount: 2
Fore
SplineSet
320 1000 m 1
 250 835 l 1
 180 835 l 1
 250 1000 l 1
 320 1000 l 1
406.629882812 215 m 1
 409.799804688 200 l 1
 450 10 l 1
 380 10 l 1
 339.799804688 200 l 1
 160.200195312 200 l 1
 120 10 l 1
 50 10 l 1
 90.2001953125 200 l 1
 93.3701171875 215 l 1
 105 270 l 1
 108.169921875 285 l 1
 215 790 l 1
 285 790 l 1
 391.830078125 285 l 1
 395 270 l 1
 406.629882812 215 l 1
175 270 m 1
 325 270 l 1
 321.830078125 285 l 1
 250 624.549804688 l 1
 178.169921875 285 l 1
 175 270 l 1
EndSplineSet
Validated: 524289
EndChar

StartChar: Acircumflex
Encoding: 194 194 127
Width: 500
Flags: HMW
LayerCount: 2
Fore
SplineSet
351.059570312 825 m 1
 251.059570312 920 l 1
 151.059570312 825 l 1
 151.059570312 905 l 1
 251.059570312 1000 l 1
 351.059570312 905 l 1
 351.059570312 825 l 1
406.629882812 215 m 1
 409.799804688 200 l 1
 450 10 l 1
 380 10 l 1
 339.799804688 200 l 1
 160.200195312 200 l 1
 120 10 l 1
 50 10 l 1
 90.2001953125 200 l 1
 93.3701171875 215 l 1
 105 270 l 1
 108.169921875 285 l 1
 215 790 l 1
 285 790 l 1
 391.830078125 285 l 1
 395 270 l 1
 406.629882812 215 l 1
175 270 m 1
 325 270 l 1
 321.830078125 285 l 1
 250 624.549804688 l 1
 178.169921875 285 l 1
 175 270 l 1
EndSplineSet
Validated: 524289
EndChar

StartChar: Atilde
Encoding: 195 195 128
Width: 500
Flags: HMW
LayerCount: 2
Fore
SplineSet
406.629882812 215 m 1
 409.799804688 200 l 1
 450 10 l 1
 380 10 l 1
 339.799804688 200 l 1
 160.200195312 200 l 1
 120 10 l 1
 50 10 l 1
 90.2001953125 200 l 1
 93.3701171875 215 l 1
 105 270 l 1
 108.169921875 285 l 1
 215 790 l 1
 285 790 l 1
 391.830078125 285 l 1
 395 270 l 1
 406.629882812 215 l 1
175 270 m 1
 325 270 l 1
 321.830078125 285 l 1
 250 624.549804688 l 1
 178.169921875 285 l 1
 175 270 l 1
432.5 902.709960938 m 2
 431.309570312 899.530273438 424.5703125 882.809570312 408.889648438 866.059570312 c 0
 386.809570312 842.469726562 357.759765625 830 324.889648438 830 c 0
 289.690429688 830 256.440429688 845.580078125 235.959960938 871.690429688 c 0
 229.620117188 879.76953125 224.889648438 888.009765625 220.719726562 895.709960938 c 0
 220.059570312 896.91015625 219.419921875 898.120117188 218.76953125 899.330078125 c 0
 216.150390625 904.209960938 213.6796875 908.8203125 211.169921875 912.5 c 0
 210.940429688 912.849609375 210.690429688 913.190429688 210.450195312 913.530273438 c 0
 203.209960938 923.530273438 189.33984375 930 175.110351562 930 c 0
 162.349609375 930 151.990234375 925.889648438 143.450195312 917.450195312 c 0
 136.080078125 910.169921875 132.950195312 902.709960938 132.950195312 902.709960938 c 1
 67.5 927.290039062 l 2
 68.6904296875 930.469726562 75.4296875 947.190429688 91.1103515625 963.940429688 c 0
 113.190429688 987.530273438 142.240234375 1000 175.110351562 1000 c 0
 211.549804688 1000 246.780273438 982.610351562 267.049804688 954.610351562 c 0
 267.6796875 953.73046875 268.299804688 952.849609375 268.889648438 951.98046875 c 0
 273.509765625 945.219726562 277.150390625 938.419921875 280.360351562 932.419921875 c 0
 280.959960938 931.299804688 281.549804688 930.190429688 282.16015625 929.080078125 c 0
 284.860351562 924.08984375 287.790039062 918.919921875 290.91015625 914.940429688 c 0
 298.040039062 905.870117188 311.370117188 900 324.889648438 900 c 0
 337.650390625 900 348.009765625 904.110351562 356.549804688 912.549804688 c 0
 363.919921875 919.830078125 367.049804688 927.290039062 367.049804688 927.290039062 c 1
 432.5 902.709960938 l 2
EndSplineSet
Validated: 524289
EndChar

StartChar: Adieresis
Encoding: 196 196 129
Width: 500
Flags: HMW
LayerCount: 2
Fore
SplineSet
275 917.5 m 0
 275 939.591796875 292.908203125 957.5 315 957.5 c 0
 337.091796875 957.5 355 939.591796875 355 917.5 c 0
 355 895.408203125 337.091796875 877.5 315 877.5 c 0
 292.908203125 877.5 275 895.408203125 275 917.5 c 0
145 917.5 m 0
 145 939.591796875 162.908203125 957.5 185 957.5 c 0
 207.091796875 957.5 225 939.591796875 225 917.5 c 0
 225 895.408203125 207.091796875 877.5 185 877.5 c 0
 162.908203125 877.5 145 895.408203125 145 917.5 c 0
406.629882812 215 m 1
 409.799804688 200 l 1
 450 10 l 1
 380 10 l 1
 339.799804688 200 l 1
 160.200195312 200 l 1
 120 10 l 1
 50 10 l 1
 90.2001953125 200 l 1
 93.3701171875 215 l 1
 105 270 l 1
 108.169921875 285 l 1
 215 790 l 1
 285 790 l 1
 391.830078125 285 l 1
 395 270 l 1
 406.629882812 215 l 1
175 270 m 1
 325 270 l 1
 321.830078125 285 l 1
 250 624.549804688 l 1
 178.169921875 285 l 1
 175 270 l 1
EndSplineSet
Validated: 524289
EndChar

StartChar: Aring
Encoding: 197 197 130
Width: 500
Flags: HMW
LayerCount: 2
Fore
SplineSet
250 825 m 0
 201.6796875 825 162.5 864.1796875 162.5 912.5 c 0
 162.5 960.8203125 201.6796875 1000 250 1000 c 0
 298.3203125 1000 337.5 960.8203125 337.5 912.5 c 0
 337.5 864.1796875 298.3203125 825 250 825 c 0
250 947.5 m 0
 230.669921875 947.5 215 931.830078125 215 912.5 c 0
 215 893.169921875 230.669921875 877.5 250 877.5 c 0
 269.330078125 877.5 285 893.169921875 285 912.5 c 0
 285 931.830078125 269.330078125 947.5 250 947.5 c 0
406.629882812 215 m 1
 409.799804688 200 l 1
 450 10 l 1
 380 10 l 1
 339.799804688 200 l 1
 160.200195312 200 l 1
 120 10 l 1
 50 10 l 1
 90.2001953125 200 l 1
 93.3701171875 215 l 1
 105 270 l 1
 108.169921875 285 l 1
 215 790 l 1
 285 790 l 1
 391.830078125 285 l 1
 395 270 l 1
 406.629882812 215 l 1
175 270 m 1
 325 270 l 1
 321.830078125 285 l 1
 250 624.549804688 l 1
 178.169921875 285 l 1
 175 270 l 1
EndSplineSet
Validated: 524289
EndChar

StartChar: AE
Encoding: 198 198 131
Width: 800
Flags: HMW
LayerCount: 2
Fore
SplineSet
350 790 m 1
 420 790 l 1
 750 790 l 1
 750 720 l 1
 420 720 l 1
 420 460 l 1
 750 460 l 1
 750 390 l 1
 420 390 l 1
 420 270 l 1
 420 200 l 1
 420 80 l 1
 750 80 l 1
 750 10 l 1
 420 10 l 1
 350 10 l 1
 350 80 l 1
 350 200 l 1
 193.080078125 200 l 1
 120 10 l 1
 50 10 l 1
 123.080078125 200 l 1
 150 270 l 1
 350 790 l 1
350 390 m 1
 350 460 l 1
 350 608 l 1
 220 270 l 1
 350 270 l 1
 350 390 l 1
EndSplineSet
Validated: 524289
EndChar

StartChar: Ccedilla
Encoding: 199 199 132
Width: 500
Flags: HMW
LayerCount: 2
Fore
SplineSet
120 47.9697265625 m 0
 77.150390625 84.6396484375 50 139.120117188 50 199.950195312 c 2
 50 600.049804688 l 2
 50 660.879882812 77.150390625 715.360351562 120 752.030273438 c 0
 154.959960938 781.98046875 200.370117188 800.049804688 250 800.049804688 c 0
 360.459960938 800.049804688 450 710.509765625 450 600.049804688 c 1
 380 600.049804688 l 1
 380 671.849609375 321.799804688 730.049804688 250 730.049804688 c 0
 178.200195312 730.049804688 120 671.849609375 120 600.049804688 c 2
 120 199.950195312 l 2
 120 128.150390625 178.200195312 69.9501953125 250 69.9501953125 c 0
 321.799804688 69.9501953125 380 128.150390625 380 199.950195312 c 1
 450 199.950195312 l 1
 450 101.4296875 378.76953125 19.5595703125 285 3.009765625 c 1
 285 -100 l 1
 215 -100 l 1
 215 3.009765625 l 1
 179.129882812 9.33984375 146.549804688 25.23046875 120 47.9697265625 c 0
EndSplineSet
Validated: 524289
EndChar

StartChar: Egrave
Encoding: 200 200 133
Width: 500
Flags: HMW
LayerCount: 2
Fore
SplineSet
320 835 m 1
 250 835 l 1
 180 1000 l 1
 250 1000 l 1
 320 835 l 1
50 790 m 1
 120 790 l 1
 450 790 l 1
 450 720 l 1
 120 720 l 1
 120 460 l 1
 450 460 l 1
 450 390 l 1
 120 390 l 1
 120 80 l 1
 450 80 l 1
 450 10 l 1
 120 10 l 1
 50 10 l 1
 50 80 l 1
 50 390 l 1
 50 460 l 1
 50 720 l 1
 50 790 l 1
EndSplineSet
Validated: 1
EndChar

StartChar: Eacute
Encoding: 201 201 134
Width: 500
Flags: HMW
LayerCount: 2
Fore
SplineSet
320 1000 m 1
 250 835 l 1
 180 835 l 1
 250 1000 l 1
 320 1000 l 1
450 720 m 1
 120 720 l 1
 120 460 l 1
 450 460 l 1
 450 390 l 1
 120 390 l 1
 120 80 l 1
 450 80 l 1
 450 10 l 1
 120 10 l 1
 50 10 l 1
 50 80 l 1
 50 390 l 1
 50 460 l 1
 50 720 l 1
 50 790 l 1
 120 790 l 1
 450 790 l 1
 450 720 l 1
EndSplineSet
Validated: 1
EndChar

StartChar: Ecircumflex
Encoding: 202 202 135
Width: 500
Flags: HMW
LayerCount: 2
Fore
SplineSet
350 905 m 1
 350 825 l 1
 250 920 l 1
 150 825 l 1
 150 905 l 1
 250 1000 l 1
 350 905 l 1
50 790 m 1
 120 790 l 1
 450 790 l 1
 450 720 l 1
 120 720 l 1
 120 460 l 1
 450 460 l 1
 450 390 l 1
 120 390 l 1
 120 80 l 1
 450 80 l 1
 450 10 l 1
 120 10 l 1
 50 10 l 1
 50 80 l 1
 50 390 l 1
 50 460 l 1
 50 720 l 1
 50 790 l 1
EndSplineSet
Validated: 1
EndChar

StartChar: Edieresis
Encoding: 203 203 136
Width: 500
Flags: HMW
LayerCount: 2
Fore
SplineSet
275 917.5 m 0
 275 939.591796875 292.908203125 957.5 315 957.5 c 0
 337.091796875 957.5 355 939.591796875 355 917.5 c 0
 355 895.408203125 337.091796875 877.5 315 877.5 c 0
 292.908203125 877.5 275 895.408203125 275 917.5 c 0
145 917.5 m 0
 145 939.591796875 162.908203125 957.5 185 957.5 c 0
 207.091796875 957.5 225 939.591796875 225 917.5 c 0
 225 895.408203125 207.091796875 877.5 185 877.5 c 0
 162.908203125 877.5 145 895.408203125 145 917.5 c 0
50 790 m 1
 120 790 l 1
 450 790 l 1
 450 720 l 1
 120 720 l 1
 120 460 l 1
 450 460 l 1
 450 390 l 1
 120 390 l 1
 120 80 l 1
 450 80 l 1
 450 10 l 1
 120 10 l 1
 50 10 l 1
 50 80 l 1
 50 390 l 1
 50 460 l 1
 50 720 l 1
 50 790 l 1
EndSplineSet
Validated: 524289
EndChar

StartChar: Igrave
Encoding: 204 204 137
Width: 240
Flags: HMW
LayerCount: 2
Fore
SplineSet
190 835 m 1
 120 835 l 1
 50 1000 l 1
 120 1000 l 1
 190 835 l 1
50 80 m 1
 85 80 l 1
 85 720 l 1
 50 720 l 1
 50 790 l 1
 85 790 l 1
 155 790 l 1
 190 790 l 1
 190 720 l 1
 155 720 l 1
 155 80 l 1
 190 80 l 1
 190 10 l 1
 155 10 l 1
 85 10 l 1
 50 10 l 1
 50 80 l 1
EndSplineSet
Validated: 1
EndChar

StartChar: Iacute
Encoding: 205 205 138
Width: 240
Flags: HMW
LayerCount: 2
Fore
SplineSet
190 1000 m 1
 120 835 l 1
 50 835 l 1
 120 1000 l 1
 190 1000 l 1
50 80 m 1
 85 80 l 1
 85 720 l 1
 50 720 l 1
 50 790 l 1
 85 790 l 1
 155 790 l 1
 190 790 l 1
 190 720 l 1
 155 720 l 1
 155 80 l 1
 190 80 l 1
 190 10 l 1
 155 10 l 1
 85 10 l 1
 50 10 l 1
 50 80 l 1
EndSplineSet
Validated: 1
EndChar

StartChar: Icircumflex
Encoding: 206 206 139
Width: 300
Flags: HMW
LayerCount: 2
Fore
SplineSet
250 905 m 1
 250 825 l 1
 150 920 l 1
 50 825 l 1
 50 905 l 1
 150 1000 l 1
 250 905 l 1
220 720 m 1
 185 720 l 1
 185 80 l 1
 220 80 l 1
 220 10 l 1
 185 10 l 1
 115 10 l 1
 80 10 l 1
 80 80 l 1
 115 80 l 1
 115 720 l 1
 80 720 l 1
 80 790 l 1
 115 790 l 1
 185 790 l 1
 220 790 l 1
 220 720 l 1
EndSplineSet
Validated: 1
EndChar

StartChar: Idieresis
Encoding: 207 207 140
Width: 310
Flags: HMW
LayerCount: 2
Fore
SplineSet
180 917.5 m 0
 180 939.591796875 197.908203125 957.5 220 957.5 c 0
 242.091796875 957.5 260 939.591796875 260 917.5 c 0
 260 895.408203125 242.091796875 877.5 220 877.5 c 0
 197.908203125 877.5 180 895.408203125 180 917.5 c 0
50 917.5 m 0
 50 939.591796875 67.908203125 957.5 90 957.5 c 0
 112.091796875 957.5 130 939.591796875 130 917.5 c 0
 130 895.408203125 112.091796875 877.5 90 877.5 c 0
 67.908203125 877.5 50 895.408203125 50 917.5 c 0
85 790 m 1
 120 790 l 1
 190 790 l 1
 225 790 l 1
 225 720 l 1
 190 720 l 1
 190 80 l 1
 225 80 l 1
 225 10 l 1
 190 10 l 1
 120 10 l 1
 85 10 l 1
 85 80 l 1
 120 80 l 1
 120 720 l 1
 85 720 l 1
 85 790 l 1
EndSplineSet
Validated: 524289
EndChar

StartChar: Eth
Encoding: 208 208 141
Width: 565
Flags: HMW
LayerCount: 2
Fore
SplineSet
445 741.98046875 m 0
 452.889648438 735.240234375 460.240234375 727.889648438 466.98046875 720 c 0
 496.9296875 685.040039062 515 639.629882812 515 590 c 2
 515 210 l 2
 515 160.370117188 496.9296875 114.959960938 466.98046875 80 c 0
 460.240234375 72.1103515625 452.889648438 64.759765625 445 58.01953125 c 0
 410.040039062 28.0703125 364.629882812 10 315 10 c 2
 115 10 l 1
 115 390 l 1
 50 390 l 1
 50 460 l 1
 115 460 l 1
 115 790 l 1
 315 790 l 2
 364.629882812 790 410.040039062 771.9296875 445 741.98046875 c 0
445 210 m 2
 445 590 l 2
 445 661.799804688 386.799804688 720 315 720 c 2
 185 720 l 1
 185 460 l 1
 250 460 l 1
 250 390 l 1
 185 390 l 1
 185 80 l 1
 315 80 l 2
 386.799804688 80 445 138.200195312 445 210 c 2
EndSplineSet
Validated: 524289
EndChar

StartChar: Ntilde
Encoding: 209 209 142
Width: 500
Flags: HMW
LayerCount: 2
Fore
SplineSet
120 690 m 1
 120 10 l 1
 50 10 l 1
 50 790 l 1
 120 790 l 1
 380 480 l 1
 380 790 l 1
 450 790 l 1
 450 10 l 1
 380 10 l 1
 380 380 l 1
 120 690 l 1
432.5 902.709960938 m 2
 431.309570312 899.530273438 424.5703125 882.809570312 408.889648438 866.059570312 c 0
 386.809570312 842.469726562 357.759765625 830 324.889648438 830 c 0
 289.690429688 830 256.440429688 845.580078125 235.959960938 871.690429688 c 0
 229.620117188 879.76953125 224.889648438 888.009765625 220.719726562 895.709960938 c 0
 220.059570312 896.91015625 219.419921875 898.120117188 218.76953125 899.330078125 c 0
 216.150390625 904.209960938 213.6796875 908.8203125 211.169921875 912.5 c 0
 210.940429688 912.849609375 210.690429688 913.190429688 210.450195312 913.530273438 c 0
 203.209960938 923.530273438 189.33984375 930 175.110351562 930 c 0
 162.349609375 930 151.990234375 925.889648438 143.450195312 917.450195312 c 0
 136.080078125 910.169921875 132.950195312 902.709960938 132.950195312 902.709960938 c 1
 67.5 927.290039062 l 2
 68.6904296875 930.469726562 75.4296875 947.190429688 91.1103515625 963.940429688 c 0
 113.190429688 987.530273438 142.240234375 1000 175.110351562 1000 c 0
 211.549804688 1000 246.780273438 982.610351562 267.049804688 954.610351562 c 0
 267.6796875 953.73046875 268.299804688 952.849609375 268.889648438 951.98046875 c 0
 273.509765625 945.219726562 277.150390625 938.419921875 280.360351562 932.419921875 c 0
 280.959960938 931.299804688 281.549804688 930.190429688 282.16015625 929.080078125 c 0
 284.860351562 924.08984375 287.790039062 918.919921875 290.91015625 914.940429688 c 0
 298.040039062 905.870117188 311.370117188 900 324.889648438 900 c 0
 337.650390625 900 348.009765625 904.110351562 356.549804688 912.549804688 c 0
 363.919921875 919.830078125 367.049804688 927.290039062 367.049804688 927.290039062 c 1
 432.5 902.709960938 l 2
EndSplineSet
Validated: 524289
EndChar

StartChar: Ograve
Encoding: 210 210 143
Width: 500
Flags: HMW
LayerCount: 2
Fore
SplineSet
320 835 m 1
 250 835 l 1
 180 1000 l 1
 250 1000 l 1
 320 835 l 1
380 751.98046875 m 0
 422.849609375 715.309570312 450 660.830078125 450 600 c 2
 450 200 l 2
 450 139.169921875 422.849609375 84.6904296875 380 48.01953125 c 0
 345.040039062 18.0703125 299.629882812 0 250 0 c 0
 200.370117188 0 154.959960938 18.0703125 120 48.01953125 c 0
 77.150390625 84.6904296875 50 139.169921875 50 200 c 2
 50 600 l 2
 50 660.830078125 77.150390625 715.309570312 120 751.98046875 c 0
 154.959960938 781.9296875 200.370117188 800 250 800 c 0
 299.629882812 800 345.040039062 781.9296875 380 751.98046875 c 0
380 200 m 2
 380 600 l 2
 380 671.799804688 321.799804688 730 250 730 c 0
 178.200195312 730 120 671.799804688 120 600 c 2
 120 200 l 2
 120 128.200195312 178.200195312 70 250 70 c 0
 321.799804688 70 380 128.200195312 380 200 c 2
EndSplineSet
Validated: 524289
EndChar

StartChar: Oacute
Encoding: 211 211 144
Width: 500
Flags: HMW
LayerCount: 2
Fore
SplineSet
320 1000 m 1
 250 835 l 1
 180 835 l 1
 250 1000 l 1
 320 1000 l 1
380 751.98046875 m 0
 422.849609375 715.309570312 450 660.830078125 450 600 c 2
 450 200 l 2
 450 139.169921875 422.849609375 84.6904296875 380 48.01953125 c 0
 345.040039062 18.0703125 299.629882812 0 250 0 c 0
 200.370117188 0 154.959960938 18.0703125 120 48.01953125 c 0
 77.150390625 84.6904296875 50 139.169921875 50 200 c 2
 50 600 l 2
 50 660.830078125 77.150390625 715.309570312 120 751.98046875 c 0
 154.959960938 781.9296875 200.370117188 800 250 800 c 0
 299.629882812 800 345.040039062 781.9296875 380 751.98046875 c 0
380 200 m 2
 380 600 l 2
 380 671.799804688 321.799804688 730 250 730 c 0
 178.200195312 730 120 671.799804688 120 600 c 2
 120 200 l 2
 120 128.200195312 178.200195312 70 250 70 c 0
 321.799804688 70 380 128.200195312 380 200 c 2
EndSplineSet
Validated: 524289
EndChar

StartChar: Ocircumflex
Encoding: 212 212 145
Width: 500
Flags: HMW
LayerCount: 2
Fore
SplineSet
350 825 m 1
 250 920 l 1
 150 825 l 1
 150 905 l 1
 250 1000 l 1
 350 905 l 1
 350 825 l 1
380 751.98046875 m 0
 422.849609375 715.309570312 450 660.830078125 450 600 c 2
 450 200 l 2
 450 139.169921875 422.849609375 84.6904296875 380 48.01953125 c 0
 345.040039062 18.0703125 299.629882812 0 250 0 c 0
 200.370117188 0 154.959960938 18.0703125 120 48.01953125 c 0
 77.150390625 84.6904296875 50 139.169921875 50 200 c 2
 50 600 l 2
 50 660.830078125 77.150390625 715.309570312 120 751.98046875 c 0
 154.959960938 781.9296875 200.370117188 800 250 800 c 0
 299.629882812 800 345.040039062 781.9296875 380 751.98046875 c 0
380 200 m 2
 380 600 l 2
 380 671.799804688 321.799804688 730 250 730 c 0
 178.200195312 730 120 671.799804688 120 600 c 2
 120 200 l 2
 120 128.200195312 178.200195312 70 250 70 c 0
 321.799804688 70 380 128.200195312 380 200 c 2
EndSplineSet
Validated: 524289
EndChar

StartChar: Otilde
Encoding: 213 213 146
Width: 500
Flags: HMW
LayerCount: 2
Fore
SplineSet
432.5 902.709960938 m 2
 431.309570312 899.530273438 424.5703125 882.809570312 408.889648438 866.059570312 c 0
 386.809570312 842.469726562 357.759765625 830 324.889648438 830 c 0
 289.690429688 830 256.440429688 845.580078125 235.959960938 871.690429688 c 0
 229.620117188 879.76953125 224.889648438 888.009765625 220.719726562 895.709960938 c 0
 220.059570312 896.91015625 219.419921875 898.120117188 218.76953125 899.330078125 c 0
 216.150390625 904.209960938 213.6796875 908.8203125 211.169921875 912.5 c 0
 210.940429688 912.849609375 210.690429688 913.190429688 210.450195312 913.530273438 c 0
 203.209960938 923.530273438 189.33984375 930 175.110351562 930 c 0
 162.349609375 930 151.990234375 925.889648438 143.450195312 917.450195312 c 0
 136.080078125 910.169921875 132.950195312 902.709960938 132.950195312 902.709960938 c 1
 67.5 927.290039062 l 2
 68.6904296875 930.469726562 75.4296875 947.190429688 91.1103515625 963.940429688 c 0
 113.190429688 987.530273438 142.240234375 1000 175.110351562 1000 c 0
 211.549804688 1000 246.780273438 982.610351562 267.049804688 954.610351562 c 0
 267.6796875 953.73046875 268.299804688 952.849609375 268.889648438 951.98046875 c 0
 273.509765625 945.219726562 277.150390625 938.419921875 280.360351562 932.419921875 c 0
 280.959960938 931.299804688 281.549804688 930.190429688 282.16015625 929.080078125 c 0
 284.860351562 924.08984375 287.790039062 918.919921875 290.91015625 914.940429688 c 0
 298.040039062 905.870117188 311.370117188 900 324.889648438 900 c 0
 337.650390625 900 348.009765625 904.110351562 356.549804688 912.549804688 c 0
 363.919921875 919.830078125 367.049804688 927.290039062 367.049804688 927.290039062 c 1
 432.5 902.709960938 l 2
380 751.98046875 m 0
 422.849609375 715.309570312 450 660.830078125 450 600 c 2
 450 200 l 2
 450 139.169921875 422.849609375 84.6904296875 380 48.01953125 c 0
 345.040039062 18.0703125 299.629882812 0 250 0 c 0
 200.370117188 0 154.959960938 18.0703125 120 48.01953125 c 0
 77.150390625 84.6904296875 50 139.169921875 50 200 c 2
 50 600 l 2
 50 660.830078125 77.150390625 715.309570312 120 751.98046875 c 0
 154.959960938 781.9296875 200.370117188 800 250 800 c 0
 299.629882812 800 345.040039062 781.9296875 380 751.98046875 c 0
380 200 m 2
 380 600 l 2
 380 671.799804688 321.799804688 730 250 730 c 0
 178.200195312 730 120 671.799804688 120 600 c 2
 120 200 l 2
 120 128.200195312 178.200195312 70 250 70 c 0
 321.799804688 70 380 128.200195312 380 200 c 2
EndSplineSet
Validated: 524289
EndChar

StartChar: Odieresis
Encoding: 214 214 147
Width: 500
Flags: HMW
LayerCount: 2
Fore
SplineSet
275 912.5 m 0
 275 934.591796875 292.908203125 952.5 315 952.5 c 0
 337.091796875 952.5 355 934.591796875 355 912.5 c 0
 355 890.408203125 337.091796875 872.5 315 872.5 c 0
 292.908203125 872.5 275 890.408203125 275 912.5 c 0
145 912.5 m 0
 145 934.591796875 162.908203125 952.5 185 952.5 c 0
 207.091796875 952.5 225 934.591796875 225 912.5 c 0
 225 890.408203125 207.091796875 872.5 185 872.5 c 0
 162.908203125 872.5 145 890.408203125 145 912.5 c 0
380 751.98046875 m 0
 422.849609375 715.309570312 450 660.830078125 450 600 c 2
 450 200 l 2
 450 139.169921875 422.849609375 84.6904296875 380 48.01953125 c 0
 345.040039062 18.0703125 299.629882812 0 250 0 c 0
 200.370117188 0 154.959960938 18.0703125 120 48.01953125 c 0
 77.150390625 84.6904296875 50 139.169921875 50 200 c 2
 50 600 l 2
 50 660.830078125 77.150390625 715.309570312 120 751.98046875 c 0
 154.959960938 781.9296875 200.370117188 800 250 800 c 0
 299.629882812 800 345.040039062 781.9296875 380 751.98046875 c 0
380 200 m 2
 380 600 l 2
 380 671.799804688 321.799804688 730 250 730 c 0
 178.200195312 730 120 671.799804688 120 600 c 2
 120 200 l 2
 120 128.200195312 178.200195312 70 250 70 c 0
 321.799804688 70 380 128.200195312 380 200 c 2
EndSplineSet
Validated: 524289
EndChar

StartChar: multiply
Encoding: 215 215 148
Width: 432
Flags: HMW
LayerCount: 2
Fore
SplineSet
332.549804688 506 m 1
 382 456.549804688 l 1
 265.450195312 340 l 1
 382 223.450195312 l 1
 332.549804688 174 l 1
 216 290.549804688 l 1
 99.4501953125 174 l 1
 50 223.450195312 l 1
 166.549804688 340 l 1
 50 456.549804688 l 1
 99.4501953125 506 l 1
 216 389.450195312 l 1
 332.549804688 506 l 1
EndSplineSet
Validated: 524289
EndChar

StartChar: Oslash
Encoding: 216 216 149
Width: 500
Flags: HMW
LayerCount: 2
Fore
SplineSet
448.259765625 749.169921875 m 1
 424.629882812 697.530273438 l 1
 440.780273438 668.6796875 450 635.419921875 450 600 c 2
 450 200 l 2
 450 139.169921875 422.849609375 84.6904296875 380 48.01953125 c 0
 345.040039062 18.0703125 299.629882812 0 250 0 c 0
 202.879882812 0 159.580078125 16.2900390625 125.389648438 43.5595703125 c 1
 115.389648438 21.7001953125 l 1
 51.740234375 50.830078125 l 1
 75.3701171875 102.469726562 l 1
 59.2197265625 131.3203125 50 164.580078125 50 200 c 2
 50 600 l 2
 50 660.830078125 77.150390625 715.309570312 120 751.98046875 c 0
 154.959960938 781.9296875 200.370117188 800 250 800 c 0
 297.120117188 800 340.419921875 783.709960938 374.610351562 756.440429688 c 1
 384.610351562 778.299804688 l 1
 448.259765625 749.169921875 l 1
120 600 m 2
 120 200.009765625 l 1
 344.080078125 689.719726562 l 1
 320.400390625 714.540039062 287.009765625 730 250 730 c 0
 178.200195312 730 120 671.799804688 120 600 c 2
380 200 m 2
 380 599.990234375 l 1
 155.919921875 110.280273438 l 1
 179.599609375 85.4599609375 212.990234375 70 250 70 c 0
 321.799804688 70 380 128.200195312 380 200 c 2
EndSplineSet
Validated: 524289
EndChar

StartChar: Ugrave
Encoding: 217 217 150
Width: 500
Flags: HMW
LayerCount: 2
Fore
SplineSet
180 1000 m 1
 250 1000 l 1
 320 835 l 1
 250 835 l 1
 180 1000 l 1
380 751.98046875 m 1
 380 790 l 1
 450 790 l 1
 450 600 l 1
 450 545.240234375 l 1
 450 200 l 2
 450 139.169921875 422.849609375 84.6904296875 380 48.01953125 c 0
 345.040039062 18.0703125 299.629882812 0 250 0 c 0
 200.370117188 0 154.959960938 18.0703125 120 48.01953125 c 0
 77.150390625 84.6904296875 50 139.169921875 50 200 c 2
 50 506.059570312 l 1
 50 600 l 1
 50 790 l 1
 120 790 l 1
 120 751.98046875 l 1
 120 506.059570312 l 1
 120 200 l 2
 120 128.200195312 178.200195312 70 250 70 c 0
 321.799804688 70 380 128.200195312 380 200 c 2
 380 545.240234375 l 1
 380 751.98046875 l 1
EndSplineSet
Validated: 524289
EndChar

StartChar: Uacute
Encoding: 218 218 151
Width: 500
Flags: HMW
LayerCount: 2
Fore
SplineSet
180 835 m 1
 250 1000 l 1
 320 1000 l 1
 250 835 l 1
 180 835 l 1
380 751.98046875 m 1
 380 790 l 1
 450 790 l 1
 450 600 l 1
 450 545.240234375 l 1
 450 200 l 2
 450 139.169921875 422.849609375 84.6904296875 380 48.01953125 c 0
 345.040039062 18.0703125 299.629882812 0 250 0 c 0
 200.370117188 0 154.959960938 18.0703125 120 48.01953125 c 0
 77.150390625 84.6904296875 50 139.169921875 50 200 c 2
 50 506.059570312 l 1
 50 600 l 1
 50 790 l 1
 120 790 l 1
 120 751.98046875 l 1
 120 506.059570312 l 1
 120 200 l 2
 120 128.200195312 178.200195312 70 250 70 c 0
 321.799804688 70 380 128.200195312 380 200 c 2
 380 545.240234375 l 1
 380 751.98046875 l 1
EndSplineSet
Validated: 524289
EndChar

StartChar: Ucircumflex
Encoding: 219 219 152
Width: 500
Flags: HMW
LayerCount: 2
Fore
SplineSet
350 825 m 1
 250 920 l 1
 150 825 l 1
 150 905 l 1
 250 1000 l 1
 350 905 l 1
 350 825 l 1
380 751.98046875 m 1
 380 790 l 1
 450 790 l 1
 450 600 l 1
 450 545.240234375 l 1
 450 200 l 2
 450 139.169921875 422.849609375 84.6904296875 380 48.01953125 c 0
 345.040039062 18.0703125 299.629882812 0 250 0 c 0
 200.370117188 0 154.959960938 18.0703125 120 48.01953125 c 0
 77.150390625 84.6904296875 50 139.169921875 50 200 c 2
 50 506.059570312 l 1
 50 600 l 1
 50 790 l 1
 120 790 l 1
 120 751.98046875 l 1
 120 506.059570312 l 1
 120 200 l 2
 120 128.200195312 178.200195312 70 250 70 c 0
 321.799804688 70 380 128.200195312 380 200 c 2
 380 545.240234375 l 1
 380 751.98046875 l 1
EndSplineSet
Validated: 524289
EndChar

StartChar: Udieresis
Encoding: 220 220 153
Width: 500
Flags: HMW
LayerCount: 2
Fore
SplineSet
275 912.5 m 0
 275 934.591796875 292.908203125 952.5 315 952.5 c 0
 337.091796875 952.5 355 934.591796875 355 912.5 c 0
 355 890.408203125 337.091796875 872.5 315 872.5 c 0
 292.908203125 872.5 275 890.408203125 275 912.5 c 0
145 912.5 m 0
 145 934.591796875 162.908203125 952.5 185 952.5 c 0
 207.091796875 952.5 225 934.591796875 225 912.5 c 0
 225 890.408203125 207.091796875 872.5 185 872.5 c 0
 162.908203125 872.5 145 890.408203125 145 912.5 c 0
120 48.01953125 m 0
 77.150390625 84.6904296875 50 139.169921875 50 200 c 2
 50 506.059570312 l 1
 50 600 l 1
 50 790 l 1
 120 790 l 1
 120 751.98046875 l 1
 120 506.059570312 l 1
 120 200 l 2
 120 128.200195312 178.200195312 70 250 70 c 0
 321.799804688 70 380 128.200195312 380 200 c 2
 380 545.240234375 l 1
 380 751.98046875 l 1
 380 790 l 1
 450 790 l 1
 450 600 l 1
 450 545.240234375 l 1
 450 200 l 2
 450 139.169921875 422.849609375 84.6904296875 380 48.01953125 c 0
 345.040039062 18.0703125 299.629882812 0 250 0 c 0
 200.370117188 0 154.959960938 18.0703125 120 48.01953125 c 0
EndSplineSet
Validated: 524289
EndChar

StartChar: Yacute
Encoding: 221 221 154
Width: 500
Flags: HMW
LayerCount: 2
Fore
SplineSet
320 1000 m 1
 250 835 l 1
 180 835 l 1
 250 1000 l 1
 320 1000 l 1
285 548.1796875 m 1
 380 790 l 1
 450 790 l 1
 285 370 l 1
 285 10 l 1
 215 10 l 1
 215 370 l 1
 50 790 l 1
 120 790 l 1
 215 548.1796875 l 1
 250 459.08984375 l 1
 285 548.1796875 l 1
EndSplineSet
Validated: 524289
EndChar

StartChar: Thorn
Encoding: 222 222 155
Width: 500
Flags: HMW
LayerCount: 2
Fore
SplineSet
250 450 m 2
 310.830078125 450 365.309570312 422.849609375 401.98046875 380 c 0
 431.9296875 345.040039062 450 299.629882812 450 250 c 0
 450 200.370117188 431.9296875 154.959960938 401.98046875 120 c 0
 365.309570312 77.150390625 310.830078125 50 250 50 c 2
 120 50 l 1
 120 10 l 1
 50 10 l 1
 50 50 l 1
 50 120 l 1
 50 380 l 1
 50 450 l 1
 50 490 l 1
 120 490 l 1
 120 450 l 1
 250 450 l 2
120 120 m 1
 250 120 l 2
 321.799804688 120 380 178.200195312 380 250 c 0
 380 321.799804688 321.799804688 380 250 380 c 2
 120 380 l 1
 120 120 l 1
EndSplineSet
Validated: 524289
EndChar

StartChar: germandbls
Encoding: 223 223 156
Width: 500
Flags: HMW
LayerCount: 2
Fore
SplineSet
380 751.98046875 m 0
 422.849609375 715.309570312 450 660.830078125 450 600 c 2
 450 590 l 2
 450 529.169921875 422.849609375 474.690429688 380 438.01953125 c 0
 374.599609375 433.379882812 368.940429688 429.040039062 363.059570312 425 c 1
 368.940429688 420.959960938 374.599609375 416.620117188 380 411.98046875 c 0
 422.849609375 375.309570312 450 320.830078125 450 260 c 2
 450 200 l 2
 450 139.169921875 422.849609375 84.6904296875 380 48.01953125 c 0
 345.040039062 18.0703125 299.629882812 0 250 0 c 1
 250 70 l 1
 321.799804688 70 380 128.200195312 380 200 c 2
 380 260 l 2
 380 331.799804688 321.799804688 390 250 390 c 1
 250 460 l 1
 321.799804688 460 380 518.200195312 380 590 c 2
 380 600 l 2
 380 671.799804688 321.799804688 730 250 730 c 0
 178.200195312 730 120 671.799804688 120 600 c 2
 120 0 l 1
 50 0 l 1
 50 600 l 2
 50 660.830078125 77.150390625 715.309570312 120 751.98046875 c 0
 154.959960938 781.9296875 200.370117188 800 250 800 c 0
 299.629882812 800 345.040039062 781.9296875 380 751.98046875 c 0
EndSplineSet
Validated: 524289
EndChar

StartChar: agrave
Encoding: 224 224 157
Width: 500
Flags: HMW
LayerCount: 2
Fore
SplineSet
320 537.669921875 m 1
 250 537.669921875 l 1
 180 702.669921875 l 1
 250 702.669921875 l 1
 320 537.669921875 l 1
380 451.98046875 m 1
 380 490 l 1
 450 490 l 1
 450 300 l 1
 450 200 l 1
 450 10 l 1
 380 10 l 1
 380 48.01953125 l 1
 345.040039062 18.0703125 299.629882812 0 250 0 c 0
 200.370117188 0 154.959960938 18.0703125 120 48.01953125 c 0
 77.150390625 84.6904296875 50 139.169921875 50 200 c 2
 50 300 l 2
 50 360.830078125 77.150390625 415.309570312 120 451.98046875 c 0
 154.959960938 481.9296875 200.370117188 500 250 500 c 0
 299.629882812 500 345.040039062 481.9296875 380 451.98046875 c 1
250 70 m 0
 321.799804688 70 380 128.200195312 380 200 c 2
 380 300 l 2
 380 371.799804688 321.799804688 430 250 430 c 0
 178.200195312 430 120 371.799804688 120 300 c 2
 120 200 l 2
 120 128.200195312 178.200195312 70 250 70 c 0
EndSplineSet
Validated: 524289
EndChar

StartChar: aacute
Encoding: 225 225 158
Width: 500
Flags: HMW
LayerCount: 2
Fore
SplineSet
320 702.669921875 m 1
 250 537.669921875 l 1
 180 537.669921875 l 1
 250 702.669921875 l 1
 320 702.669921875 l 1
380 451.98046875 m 1
 380 490 l 1
 450 490 l 1
 450 300 l 1
 450 200 l 1
 450 10 l 1
 380 10 l 1
 380 48.01953125 l 1
 345.040039062 18.0703125 299.629882812 0 250 0 c 0
 200.370117188 0 154.959960938 18.0703125 120 48.01953125 c 0
 77.150390625 84.6904296875 50 139.169921875 50 200 c 2
 50 300 l 2
 50 360.830078125 77.150390625 415.309570312 120 451.98046875 c 0
 154.959960938 481.9296875 200.370117188 500 250 500 c 0
 299.629882812 500 345.040039062 481.9296875 380 451.98046875 c 1
250 70 m 0
 321.799804688 70 380 128.200195312 380 200 c 2
 380 300 l 2
 380 371.799804688 321.799804688 430 250 430 c 0
 178.200195312 430 120 371.799804688 120 300 c 2
 120 200 l 2
 120 128.200195312 178.200195312 70 250 70 c 0
EndSplineSet
Validated: 524289
EndChar

StartChar: acircumflex
Encoding: 226 226 159
Width: 500
Flags: HMW
LayerCount: 2
Fore
SplineSet
350 525 m 1
 250 620 l 1
 150 525 l 1
 150 605 l 1
 250 700 l 1
 350 605 l 1
 350 525 l 1
380 451.98046875 m 1
 380 490 l 1
 450 490 l 1
 450 300 l 1
 450 200 l 1
 450 10 l 1
 380 10 l 1
 380 48.01953125 l 1
 345.040039062 18.0703125 299.629882812 0 250 0 c 0
 200.370117188 0 154.959960938 18.0703125 120 48.01953125 c 0
 77.150390625 84.6904296875 50 139.169921875 50 200 c 2
 50 300 l 2
 50 360.830078125 77.150390625 415.309570312 120 451.98046875 c 0
 154.959960938 481.9296875 200.370117188 500 250 500 c 0
 299.629882812 500 345.040039062 481.9296875 380 451.98046875 c 1
250 70 m 0
 321.799804688 70 380 128.200195312 380 200 c 2
 380 300 l 2
 380 371.799804688 321.799804688 430 250 430 c 0
 178.200195312 430 120 371.799804688 120 300 c 2
 120 200 l 2
 120 128.200195312 178.200195312 70 250 70 c 0
EndSplineSet
Validated: 524289
EndChar

StartChar: atilde
Encoding: 227 227 160
Width: 500
Flags: HMW
LayerCount: 2
Fore
SplineSet
432.5 602.709960938 m 2
 431.309570312 599.530273438 424.5703125 582.809570312 408.889648438 566.059570312 c 0
 386.809570312 542.469726562 357.759765625 530 324.889648438 530 c 0
 289.690429688 530 256.440429688 545.580078125 235.959960938 571.690429688 c 0
 229.620117188 579.76953125 224.889648438 588.009765625 220.719726562 595.709960938 c 0
 220.059570312 596.91015625 219.419921875 598.120117188 218.76953125 599.330078125 c 0
 216.150390625 604.209960938 213.6796875 608.8203125 211.169921875 612.5 c 0
 210.940429688 612.849609375 210.690429688 613.190429688 210.450195312 613.530273438 c 0
 203.209960938 623.530273438 189.33984375 630 175.110351562 630 c 0
 162.349609375 630 151.990234375 625.889648438 143.450195312 617.450195312 c 0
 136.080078125 610.169921875 132.950195312 602.709960938 132.950195312 602.709960938 c 1
 67.5 627.290039062 l 2
 68.6904296875 630.469726562 75.4296875 647.190429688 91.1103515625 663.940429688 c 0
 113.190429688 687.530273438 142.240234375 700 175.110351562 700 c 0
 211.549804688 700 246.780273438 682.610351562 267.049804688 654.610351562 c 0
 267.6796875 653.73046875 268.299804688 652.849609375 268.889648438 651.98046875 c 0
 273.509765625 645.219726562 277.150390625 638.419921875 280.360351562 632.419921875 c 0
 280.959960938 631.299804688 281.549804688 630.190429688 282.16015625 629.080078125 c 0
 284.860351562 624.08984375 287.790039062 618.919921875 290.91015625 614.940429688 c 0
 298.040039062 605.870117188 311.370117188 600 324.889648438 600 c 0
 337.650390625 600 348.009765625 604.110351562 356.549804688 612.549804688 c 0
 363.919921875 619.830078125 367.049804688 627.290039062 367.049804688 627.290039062 c 1
 432.5 602.709960938 l 2
380 451.98046875 m 1
 380 490 l 1
 450 490 l 1
 450 300 l 1
 450 200 l 1
 450 10 l 1
 380 10 l 1
 380 48.01953125 l 1
 345.040039062 18.0703125 299.629882812 0 250 0 c 0
 200.370117188 0 154.959960938 18.0703125 120 48.01953125 c 0
 77.150390625 84.6904296875 50 139.169921875 50 200 c 2
 50 300 l 2
 50 360.830078125 77.150390625 415.309570312 120 451.98046875 c 0
 154.959960938 481.9296875 200.370117188 500 250 500 c 0
 299.629882812 500 345.040039062 481.9296875 380 451.98046875 c 1
250 70 m 0
 321.799804688 70 380 128.200195312 380 200 c 2
 380 300 l 2
 380 371.799804688 321.799804688 430 250 430 c 0
 178.200195312 430 120 371.799804688 120 300 c 2
 120 200 l 2
 120 128.200195312 178.200195312 70 250 70 c 0
EndSplineSet
Validated: 524289
EndChar

StartChar: adieresis
Encoding: 228 228 161
Width: 500
Flags: HMW
LayerCount: 2
Fore
SplineSet
275 617.5 m 0
 275 639.591796875 292.908203125 657.5 315 657.5 c 0
 337.091796875 657.5 355 639.591796875 355 617.5 c 0
 355 595.408203125 337.091796875 577.5 315 577.5 c 0
 292.908203125 577.5 275 595.408203125 275 617.5 c 0
145 617.5 m 0
 145 639.591796875 162.908203125 657.5 185 657.5 c 0
 207.091796875 657.5 225 639.591796875 225 617.5 c 0
 225 595.408203125 207.091796875 577.5 185 577.5 c 0
 162.908203125 577.5 145 595.408203125 145 617.5 c 0
380 451.98046875 m 1
 380 490 l 1
 450 490 l 1
 450 300 l 1
 450 200 l 1
 450 10 l 1
 380 10 l 1
 380 48.01953125 l 1
 345.040039062 18.0703125 299.629882812 0 250 0 c 0
 200.370117188 0 154.959960938 18.0703125 120 48.01953125 c 0
 77.150390625 84.6904296875 50 139.169921875 50 200 c 2
 50 300 l 2
 50 360.830078125 77.150390625 415.309570312 120 451.98046875 c 0
 154.959960938 481.9296875 200.370117188 500 250 500 c 0
 299.629882812 500 345.040039062 481.9296875 380 451.98046875 c 1
250 70 m 0
 321.799804688 70 380 128.200195312 380 200 c 2
 380 300 l 2
 380 371.799804688 321.799804688 430 250 430 c 0
 178.200195312 430 120 371.799804688 120 300 c 2
 120 200 l 2
 120 128.200195312 178.200195312 70 250 70 c 0
EndSplineSet
Validated: 524289
EndChar

StartChar: aring
Encoding: 229 229 162
Width: 500
Flags: HMW
LayerCount: 2
Fore
SplineSet
337.5 612.5 m 0
 337.5 564.1796875 298.3203125 525 250 525 c 0
 201.6796875 525 162.5 564.1796875 162.5 612.5 c 0
 162.5 660.8203125 201.6796875 700 250 700 c 0
 298.3203125 700 337.5 660.8203125 337.5 612.5 c 0
215 612.5 m 0
 215 593.169921875 230.669921875 577.5 250 577.5 c 0
 269.330078125 577.5 285 593.169921875 285 612.5 c 0
 285 631.830078125 269.330078125 647.5 250 647.5 c 0
 230.669921875 647.5 215 631.830078125 215 612.5 c 0
380 451.98046875 m 1
 380 490 l 1
 450 490 l 1
 450 300 l 1
 450 200 l 1
 450 10 l 1
 380 10 l 1
 380 48.01953125 l 1
 345.040039062 18.0703125 299.629882812 0 250 0 c 0
 200.370117188 0 154.959960938 18.0703125 120 48.01953125 c 0
 77.150390625 84.6904296875 50 139.169921875 50 200 c 2
 50 300 l 2
 50 360.830078125 77.150390625 415.309570312 120 451.98046875 c 0
 154.959960938 481.9296875 200.370117188 500 250 500 c 0
 299.629882812 500 345.040039062 481.9296875 380 451.98046875 c 1
250 70 m 0
 321.799804688 70 380 128.200195312 380 200 c 2
 380 300 l 2
 380 371.799804688 321.799804688 430 250 430 c 0
 178.200195312 430 120 371.799804688 120 300 c 2
 120 200 l 2
 120 128.200195312 178.200195312 70 250 70 c 0
EndSplineSet
Validated: 524289
EndChar

StartChar: ae
Encoding: 230 230 163
Width: 830
Flags: HMW
LayerCount: 2
Fore
SplineSet
710 451.98046875 m 0
 752.849609375 415.309570312 780 360.830078125 780 300 c 2
 780 270 l 1
 780 200 l 1
 710 200 l 1
 450 200 l 1
 450 128.200195312 508.200195312 70 580 70 c 0
 634.080078125 70 680.439453125 103.01953125 700.030273438 150 c 1
 773.689453125 150 l 1
 763.3203125 109.6796875 740.689453125 74.2802734375 710 48.01953125 c 0
 675.040039062 18.0703125 629.629882812 0 580 0 c 0
 530.370117188 0 484.959960938 18.0703125 450 48.01953125 c 1
 450 10 l 1
 380 10 l 1
 380 48.01953125 l 1
 345.040039062 18.0703125 299.629882812 0 250 0 c 0
 200.370117188 0 154.959960938 18.0703125 120 48.01953125 c 0
 77.1494140625 84.6904296875 50 139.169921875 50 200 c 2
 50 300 l 2
 50 360.830078125 77.1494140625 415.309570312 120 451.98046875 c 0
 154.959960938 481.9296875 200.370117188 500 250 500 c 0
 299.629882812 500 345.040039062 481.9296875 380 451.98046875 c 1
 380 490 l 1
 450 490 l 1
 450 451.98046875 l 1
 484.959960938 481.9296875 530.370117188 500 580 500 c 0
 629.629882812 500 675.040039062 481.9296875 710 451.98046875 c 0
250 70 m 0
 321.799804688 70 380 128.200195312 380 200 c 2
 380 270 l 1
 380 300 l 2
 380 371.799804688 321.799804688 430 250 430 c 0
 178.200195312 430 120 371.799804688 120 300 c 2
 120 200 l 2
 120 128.200195312 178.200195312 70 250 70 c 0
450 270 m 1
 710 270 l 1
 710 300 l 2
 710 371.799804688 651.799804688 430 580 430 c 0
 508.200195312 430 450 371.799804688 450 300 c 2
 450 270 l 1
EndSplineSet
Validated: 524289
EndChar

StartChar: ccedilla
Encoding: 231 231 164
Width: 500
Flags: HMW
LayerCount: 2
Fore
SplineSet
250 430 m 0
 178.200195312 430 120 371.799804688 120 300 c 2
 120 200 l 2
 120 128.200195312 178.200195312 70 250 70 c 0
 321.799804688 70 380 128.200195312 380 200 c 1
 450 200 l 1
 450 139.169921875 422.849609375 84.6904296875 380 48.01953125 c 0
 353.450195312 25.26953125 320.870117188 9.3896484375 285 3.0595703125 c 1
 285 -100 l 1
 215 -100 l 1
 215 3.0595703125 l 1
 179.129882812 9.3896484375 146.549804688 25.2802734375 120 48.01953125 c 0
 77.150390625 84.6904296875 50 139.169921875 50 200 c 2
 50 300 l 2
 50 360.830078125 77.150390625 415.309570312 120 451.98046875 c 0
 154.959960938 481.9296875 200.370117188 500 250 500 c 0
 299.629882812 500 345.040039062 481.9296875 380 451.98046875 c 0
 422.849609375 415.309570312 450 360.830078125 450 300 c 1
 380 300 l 1
 380 371.799804688 321.799804688 430 250 430 c 0
EndSplineSet
Validated: 524289
EndChar

StartChar: egrave
Encoding: 232 232 165
Width: 500
Flags: HMW
LayerCount: 2
Fore
SplineSet
320 537.669921875 m 1
 250 537.669921875 l 1
 180 702.669921875 l 1
 250 702.669921875 l 1
 320 537.669921875 l 1
380 451.98046875 m 0
 422.849609375 415.309570312 450 360.830078125 450 300 c 2
 450 270 l 1
 450 200 l 1
 380 200 l 1
 120 200 l 1
 120 128.200195312 178.200195312 70 250 70 c 0
 304.080078125 70 350.440429688 103.01953125 370.030273438 150 c 1
 443.690429688 150 l 1
 433.3203125 109.6796875 410.690429688 74.2802734375 380 48.01953125 c 0
 345.040039062 18.0703125 299.629882812 0 250 0 c 0
 200.370117188 0 154.959960938 18.0703125 120 48.01953125 c 0
 77.150390625 84.6904296875 50 139.169921875 50 200 c 2
 50 270 l 1
 50 300 l 2
 50 360.830078125 77.150390625 415.309570312 120 451.98046875 c 0
 154.959960938 481.9296875 200.370117188 500 250 500 c 0
 299.629882812 500 345.040039062 481.9296875 380 451.98046875 c 0
120 270 m 1
 380 270 l 1
 380 300 l 2
 380 371.799804688 321.799804688 430 250 430 c 0
 178.200195312 430 120 371.799804688 120 300 c 2
 120 270 l 1
EndSplineSet
Validated: 524289
EndChar

StartChar: eacute
Encoding: 233 233 166
Width: 500
Flags: HMW
LayerCount: 2
Fore
SplineSet
320 700 m 1
 250 535 l 1
 180 535 l 1
 250 700 l 1
 320 700 l 1
380 451.98046875 m 0
 422.849609375 415.309570312 450 360.830078125 450 300 c 2
 450 270 l 1
 450 200 l 1
 380 200 l 1
 120 200 l 1
 120 128.200195312 178.200195312 70 250 70 c 0
 304.080078125 70 350.440429688 103.01953125 370.030273438 150 c 1
 443.690429688 150 l 1
 433.3203125 109.6796875 410.690429688 74.2802734375 380 48.01953125 c 0
 345.040039062 18.0703125 299.629882812 0 250 0 c 0
 200.370117188 0 154.959960938 18.0703125 120 48.01953125 c 0
 77.150390625 84.6904296875 50 139.169921875 50 200 c 2
 50 270 l 1
 50 300 l 2
 50 360.830078125 77.150390625 415.309570312 120 451.98046875 c 0
 154.959960938 481.9296875 200.370117188 500 250 500 c 0
 299.629882812 500 345.040039062 481.9296875 380 451.98046875 c 0
120 270 m 1
 380 270 l 1
 380 300 l 2
 380 371.799804688 321.799804688 430 250 430 c 0
 178.200195312 430 120 371.799804688 120 300 c 2
 120 270 l 1
EndSplineSet
Validated: 524289
EndChar

StartChar: ecircumflex
Encoding: 234 234 167
Width: 500
Flags: HMW
LayerCount: 2
Fore
SplineSet
350 525 m 1
 250 620 l 1
 150 525 l 1
 150 605 l 1
 250 700 l 1
 350 605 l 1
 350 525 l 1
380 451.98046875 m 0
 422.849609375 415.309570312 450 360.830078125 450 300 c 2
 450 270 l 1
 450 200 l 1
 380 200 l 1
 120 200 l 1
 120 128.200195312 178.200195312 70 250 70 c 0
 304.080078125 70 350.440429688 103.01953125 370.030273438 150 c 1
 443.690429688 150 l 1
 433.3203125 109.6796875 410.690429688 74.2802734375 380 48.01953125 c 0
 345.040039062 18.0703125 299.629882812 0 250 0 c 0
 200.370117188 0 154.959960938 18.0703125 120 48.01953125 c 0
 77.150390625 84.6904296875 50 139.169921875 50 200 c 2
 50 270 l 1
 50 300 l 2
 50 360.830078125 77.150390625 415.309570312 120 451.98046875 c 0
 154.959960938 481.9296875 200.370117188 500 250 500 c 0
 299.629882812 500 345.040039062 481.9296875 380 451.98046875 c 0
120 270 m 1
 380 270 l 1
 380 300 l 2
 380 371.799804688 321.799804688 430 250 430 c 0
 178.200195312 430 120 371.799804688 120 300 c 2
 120 270 l 1
EndSplineSet
Validated: 524289
EndChar

StartChar: edieresis
Encoding: 235 235 168
Width: 500
Flags: HMW
LayerCount: 2
Fore
SplineSet
275 617.5 m 0
 275 639.591796875 292.908203125 657.5 315 657.5 c 0
 337.091796875 657.5 355 639.591796875 355 617.5 c 0
 355 595.408203125 337.091796875 577.5 315 577.5 c 0
 292.908203125 577.5 275 595.408203125 275 617.5 c 0
145 617.5 m 0
 145 639.591796875 162.908203125 657.5 185 657.5 c 0
 207.091796875 657.5 225 639.591796875 225 617.5 c 0
 225 595.408203125 207.091796875 577.5 185 577.5 c 0
 162.908203125 577.5 145 595.408203125 145 617.5 c 0
380 451.98046875 m 0
 422.849609375 415.309570312 450 360.830078125 450 300 c 2
 450 270 l 1
 450 200 l 1
 380 200 l 1
 120 200 l 1
 120 128.200195312 178.200195312 70 250 70 c 0
 304.080078125 70 350.440429688 103.01953125 370.030273438 150 c 1
 443.690429688 150 l 1
 433.3203125 109.6796875 410.690429688 74.2802734375 380 48.01953125 c 0
 345.040039062 18.0703125 299.629882812 0 250 0 c 0
 200.370117188 0 154.959960938 18.0703125 120 48.01953125 c 0
 77.150390625 84.6904296875 50 139.169921875 50 200 c 2
 50 270 l 1
 50 300 l 2
 50 360.830078125 77.150390625 415.309570312 120 451.98046875 c 0
 154.959960938 481.9296875 200.370117188 500 250 500 c 0
 299.629882812 500 345.040039062 481.9296875 380 451.98046875 c 0
120 270 m 1
 380 270 l 1
 380 300 l 2
 380 371.799804688 321.799804688 430 250 430 c 0
 178.200195312 430 120 371.799804688 120 300 c 2
 120 270 l 1
EndSplineSet
Validated: 524289
EndChar

StartChar: igrave
Encoding: 236 236 169
Width: 240
Flags: HMW
LayerCount: 2
Fore
SplineSet
50 700 m 1
 120 700 l 1
 190 535 l 1
 120 535 l 1
 50 700 l 1
85 10 m 1
 85 490 l 1
 155 490 l 1
 155 10 l 1
 85 10 l 1
EndSplineSet
Validated: 1
EndChar

StartChar: iacute
Encoding: 237 237 170
Width: 240
Flags: HMW
LayerCount: 2
Fore
SplineSet
120 700 m 1
 190 700 l 1
 120 535 l 1
 50 535 l 1
 120 700 l 1
85 10 m 1
 85 490 l 1
 155 490 l 1
 155 10 l 1
 85 10 l 1
EndSplineSet
Validated: 1
EndChar

StartChar: icircumflex
Encoding: 238 238 171
Width: 300
Flags: HMW
LayerCount: 2
Fore
SplineSet
250 605 m 1
 250 525 l 1
 150 620 l 1
 50 525 l 1
 50 605 l 1
 150 700 l 1
 250 605 l 1
115 10 m 1
 115 490 l 1
 185 490 l 1
 185 10 l 1
 115 10 l 1
EndSplineSet
Validated: 1
EndChar

StartChar: idieresis
Encoding: 239 239 172
Width: 310
Flags: HMW
LayerCount: 2
Fore
SplineSet
180 612.5 m 0
 180 634.591796875 197.908203125 652.5 220 652.5 c 0
 242.091796875 652.5 260 634.591796875 260 612.5 c 0
 260 590.408203125 242.091796875 572.5 220 572.5 c 0
 197.908203125 572.5 180 590.408203125 180 612.5 c 0
50 612.5 m 0
 50 634.591796875 67.908203125 652.5 90 652.5 c 0
 112.091796875 652.5 130 634.591796875 130 612.5 c 0
 130 590.408203125 112.091796875 572.5 90 572.5 c 0
 67.908203125 572.5 50 590.408203125 50 612.5 c 0
120 10 m 1
 120 490 l 1
 190 490 l 1
 190 10 l 1
 120 10 l 1
EndSplineSet
Validated: 524289
EndChar

StartChar: eth
Encoding: 240 240 173
Width: 565
Flags: HMW
LayerCount: 2
Fore
SplineSet
450 790 m 1
 450 660 l 1
 515 660 l 1
 515 590 l 1
 450 590 l 1
 450 300 l 1
 450 200 l 1
 450 10 l 1
 380 10 l 1
 380 48.01953125 l 1
 345.040039062 18.0703125 299.629882812 0 250 0 c 0
 200.370117188 0 154.959960938 18.0703125 120 48.01953125 c 0
 77.150390625 84.6904296875 50 139.169921875 50 200 c 2
 50 300 l 2
 50 360.830078125 77.150390625 415.309570312 120 451.98046875 c 0
 154.959960938 481.9296875 200.370117188 500 250 500 c 0
 299.629882812 500 345.040039062 481.9296875 380 451.98046875 c 1
 380 590 l 1
 315 590 l 1
 315 660 l 1
 380 660 l 1
 380 790 l 1
 450 790 l 1
250 70 m 0
 321.799804688 70 380 128.200195312 380 200 c 2
 380 300 l 2
 380 371.799804688 321.799804688 430 250 430 c 0
 178.200195312 430 120 371.799804688 120 300 c 2
 120 200 l 2
 120 128.200195312 178.200195312 70 250 70 c 0
EndSplineSet
Validated: 524289
EndChar

StartChar: ntilde
Encoding: 241 241 174
Width: 500
Flags: HMW
LayerCount: 2
Fore
SplineSet
432.5 602.709960938 m 2
 431.309570312 599.530273438 424.5703125 582.809570312 408.889648438 566.059570312 c 0
 386.809570312 542.469726562 357.759765625 530 324.889648438 530 c 0
 289.690429688 530 256.440429688 545.580078125 235.959960938 571.690429688 c 0
 229.620117188 579.76953125 224.889648438 588.009765625 220.719726562 595.709960938 c 0
 220.059570312 596.91015625 219.419921875 598.120117188 218.76953125 599.330078125 c 0
 216.150390625 604.209960938 213.6796875 608.8203125 211.169921875 612.5 c 0
 210.940429688 612.849609375 210.690429688 613.190429688 210.450195312 613.530273438 c 0
 203.209960938 623.530273438 189.33984375 630 175.110351562 630 c 0
 162.349609375 630 151.990234375 625.889648438 143.450195312 617.450195312 c 0
 136.080078125 610.169921875 132.950195312 602.709960938 132.950195312 602.709960938 c 1
 67.5 627.290039062 l 2
 68.6904296875 630.469726562 75.4296875 647.190429688 91.1103515625 663.940429688 c 0
 113.190429688 687.530273438 142.240234375 700 175.110351562 700 c 0
 211.549804688 700 246.780273438 682.610351562 267.049804688 654.610351562 c 0
 267.6796875 653.73046875 268.299804688 652.849609375 268.889648438 651.98046875 c 0
 273.509765625 645.219726562 277.150390625 638.419921875 280.360351562 632.419921875 c 0
 280.959960938 631.299804688 281.549804688 630.190429688 282.16015625 629.080078125 c 0
 284.860351562 624.08984375 287.790039062 618.919921875 290.91015625 614.940429688 c 0
 298.040039062 605.870117188 311.370117188 600 324.889648438 600 c 0
 337.650390625 600 348.009765625 604.110351562 356.549804688 612.549804688 c 0
 363.919921875 619.830078125 367.049804688 627.290039062 367.049804688 627.290039062 c 1
 432.5 602.709960938 l 2
380 451.98046875 m 0
 422.849609375 415.309570312 450 360.830078125 450 300 c 2
 450 10 l 1
 380 10 l 1
 380 148.01953125 l 1
 380 300 l 2
 380 371.799804688 321.799804688 430 250 430 c 0
 178.200195312 430 120 371.799804688 120 300 c 2
 120 148.01953125 l 1
 120 10 l 1
 50 10 l 1
 50 300 l 1
 50 490 l 1
 120 490 l 1
 120 451.98046875 l 1
 154.959960938 481.9296875 200.370117188 500 250 500 c 0
 299.629882812 500 345.040039062 481.9296875 380 451.98046875 c 0
EndSplineSet
Validated: 524289
EndChar

StartChar: ograve
Encoding: 242 242 175
Width: 500
Flags: HMW
LayerCount: 2
Fore
SplineSet
320 535 m 1
 250 535 l 1
 180 700 l 1
 250 700 l 1
 320 535 l 1
380 451.98046875 m 0
 422.849609375 415.309570312 450 360.830078125 450 300 c 2
 450 200 l 2
 450 139.169921875 422.849609375 84.6904296875 380 48.01953125 c 0
 345.040039062 18.0703125 299.629882812 0 250 0 c 0
 200.370117188 0 154.959960938 18.0703125 120 48.01953125 c 0
 77.150390625 84.6904296875 50 139.169921875 50 200 c 2
 50 300 l 2
 50 360.830078125 77.150390625 415.309570312 120 451.98046875 c 0
 154.959960938 481.9296875 200.370117188 500 250 500 c 0
 299.629882812 500 345.040039062 481.9296875 380 451.98046875 c 0
380 200 m 2
 380 300 l 2
 380 371.799804688 321.799804688 430 250 430 c 0
 178.200195312 430 120 371.799804688 120 300 c 2
 120 200 l 2
 120 128.200195312 178.200195312 70 250 70 c 0
 321.799804688 70 380 128.200195312 380 200 c 2
EndSplineSet
Validated: 524289
EndChar

StartChar: oacute
Encoding: 243 243 176
Width: 500
Flags: HMW
LayerCount: 2
Fore
SplineSet
320 700 m 1
 250 535 l 1
 180 535 l 1
 250 700 l 1
 320 700 l 1
380 451.98046875 m 0
 422.849609375 415.309570312 450 360.830078125 450 300 c 2
 450 200 l 2
 450 139.169921875 422.849609375 84.6904296875 380 48.01953125 c 0
 345.040039062 18.0703125 299.629882812 0 250 0 c 0
 200.370117188 0 154.959960938 18.0703125 120 48.01953125 c 0
 77.150390625 84.6904296875 50 139.169921875 50 200 c 2
 50 300 l 2
 50 360.830078125 77.150390625 415.309570312 120 451.98046875 c 0
 154.959960938 481.9296875 200.370117188 500 250 500 c 0
 299.629882812 500 345.040039062 481.9296875 380 451.98046875 c 0
380 200 m 2
 380 300 l 2
 380 371.799804688 321.799804688 430 250 430 c 0
 178.200195312 430 120 371.799804688 120 300 c 2
 120 200 l 2
 120 128.200195312 178.200195312 70 250 70 c 0
 321.799804688 70 380 128.200195312 380 200 c 2
EndSplineSet
Validated: 524289
EndChar

StartChar: ocircumflex
Encoding: 244 244 177
Width: 500
Flags: HMW
LayerCount: 2
Fore
SplineSet
350 525 m 1
 250 620 l 1
 150 525 l 1
 150 605 l 1
 250 700 l 1
 350 605 l 1
 350 525 l 1
380 451.98046875 m 0
 422.849609375 415.309570312 450 360.830078125 450 300 c 2
 450 200 l 2
 450 139.169921875 422.849609375 84.6904296875 380 48.01953125 c 0
 345.040039062 18.0703125 299.629882812 0 250 0 c 0
 200.370117188 0 154.959960938 18.0703125 120 48.01953125 c 0
 77.150390625 84.6904296875 50 139.169921875 50 200 c 2
 50 300 l 2
 50 360.830078125 77.150390625 415.309570312 120 451.98046875 c 0
 154.959960938 481.9296875 200.370117188 500 250 500 c 0
 299.629882812 500 345.040039062 481.9296875 380 451.98046875 c 0
380 200 m 2
 380 300 l 2
 380 371.799804688 321.799804688 430 250 430 c 0
 178.200195312 430 120 371.799804688 120 300 c 2
 120 200 l 2
 120 128.200195312 178.200195312 70 250 70 c 0
 321.799804688 70 380 128.200195312 380 200 c 2
EndSplineSet
Validated: 524289
EndChar

StartChar: otilde
Encoding: 245 245 178
Width: 500
Flags: HMW
LayerCount: 2
Fore
SplineSet
432.5 602.709960938 m 2
 431.309570312 599.530273438 424.5703125 582.809570312 408.889648438 566.059570312 c 0
 386.809570312 542.469726562 357.759765625 530 324.889648438 530 c 0
 289.690429688 530 256.440429688 545.580078125 235.959960938 571.690429688 c 0
 229.620117188 579.76953125 224.889648438 588.009765625 220.719726562 595.709960938 c 0
 220.059570312 596.91015625 219.419921875 598.120117188 218.76953125 599.330078125 c 0
 216.150390625 604.209960938 213.6796875 608.8203125 211.169921875 612.5 c 0
 210.940429688 612.849609375 210.690429688 613.190429688 210.450195312 613.530273438 c 0
 203.209960938 623.530273438 189.33984375 630 175.110351562 630 c 0
 162.349609375 630 151.990234375 625.889648438 143.450195312 617.450195312 c 0
 136.080078125 610.169921875 132.950195312 602.709960938 132.950195312 602.709960938 c 1
 67.5 627.290039062 l 2
 68.6904296875 630.469726562 75.4296875 647.190429688 91.1103515625 663.940429688 c 0
 113.190429688 687.530273438 142.240234375 700 175.110351562 700 c 0
 211.549804688 700 246.780273438 682.610351562 267.049804688 654.610351562 c 0
 267.6796875 653.73046875 268.299804688 652.849609375 268.889648438 651.98046875 c 0
 273.509765625 645.219726562 277.150390625 638.419921875 280.360351562 632.419921875 c 0
 280.959960938 631.299804688 281.549804688 630.190429688 282.16015625 629.080078125 c 0
 284.860351562 624.08984375 287.790039062 618.919921875 290.91015625 614.940429688 c 0
 298.040039062 605.870117188 311.370117188 600 324.889648438 600 c 0
 337.650390625 600 348.009765625 604.110351562 356.549804688 612.549804688 c 0
 363.919921875 619.830078125 367.049804688 627.290039062 367.049804688 627.290039062 c 1
 432.5 602.709960938 l 2
380 451.98046875 m 0
 422.849609375 415.309570312 450 360.830078125 450 300 c 2
 450 200 l 2
 450 139.169921875 422.849609375 84.6904296875 380 48.01953125 c 0
 345.040039062 18.0703125 299.629882812 0 250 0 c 0
 200.370117188 0 154.959960938 18.0703125 120 48.01953125 c 0
 77.150390625 84.6904296875 50 139.169921875 50 200 c 2
 50 300 l 2
 50 360.830078125 77.150390625 415.309570312 120 451.98046875 c 0
 154.959960938 481.9296875 200.370117188 500 250 500 c 0
 299.629882812 500 345.040039062 481.9296875 380 451.98046875 c 0
380 200 m 2
 380 300 l 2
 380 371.799804688 321.799804688 430 250 430 c 0
 178.200195312 430 120 371.799804688 120 300 c 2
 120 200 l 2
 120 128.200195312 178.200195312 70 250 70 c 0
 321.799804688 70 380 128.200195312 380 200 c 2
EndSplineSet
Validated: 524289
EndChar

StartChar: odieresis
Encoding: 246 246 179
Width: 500
Flags: HMW
LayerCount: 2
Fore
SplineSet
275 617.5 m 0
 275 639.591796875 292.908203125 657.5 315 657.5 c 0
 337.091796875 657.5 355 639.591796875 355 617.5 c 0
 355 595.408203125 337.091796875 577.5 315 577.5 c 0
 292.908203125 577.5 275 595.408203125 275 617.5 c 0
145 617.5 m 0
 145 639.591796875 162.908203125 657.5 185 657.5 c 0
 207.091796875 657.5 225 639.591796875 225 617.5 c 0
 225 595.408203125 207.091796875 577.5 185 577.5 c 0
 162.908203125 577.5 145 595.408203125 145 617.5 c 0
380 451.98046875 m 0
 422.849609375 415.309570312 450 360.830078125 450 300 c 2
 450 200 l 2
 450 139.169921875 422.849609375 84.6904296875 380 48.01953125 c 0
 345.040039062 18.0703125 299.629882812 0 250 0 c 0
 200.370117188 0 154.959960938 18.0703125 120 48.01953125 c 0
 77.150390625 84.6904296875 50 139.169921875 50 200 c 2
 50 300 l 2
 50 360.830078125 77.150390625 415.309570312 120 451.98046875 c 0
 154.959960938 481.9296875 200.370117188 500 250 500 c 0
 299.629882812 500 345.040039062 481.9296875 380 451.98046875 c 0
380 200 m 2
 380 300 l 2
 380 371.799804688 321.799804688 430 250 430 c 0
 178.200195312 430 120 371.799804688 120 300 c 2
 120 200 l 2
 120 128.200195312 178.200195312 70 250 70 c 0
 321.799804688 70 380 128.200195312 380 200 c 2
EndSplineSet
Validated: 524289
EndChar

StartChar: divide
Encoding: 247 247 180
Width: 500
Flags: HMW
LayerCount: 2
Fore
SplineSet
50 320 m 1
 50 390 l 1
 450 390 l 1
 450 320 l 1
 50 320 l 1
210 510 m 0
 210 532.091796875 227.908203125 550 250 550 c 0
 272.091796875 550 290 532.091796875 290 510 c 0
 290 487.908203125 272.091796875 470 250 470 c 0
 227.908203125 470 210 487.908203125 210 510 c 0
210 200 m 0
 210 222.091796875 227.908203125 240 250 240 c 0
 272.091796875 240 290 222.091796875 290 200 c 0
 290 177.908203125 272.091796875 160 250 160 c 0
 227.908203125 160 210 177.908203125 210 200 c 0
EndSplineSet
Validated: 524289
EndChar

StartChar: oslash
Encoding: 248 248 181
Width: 500
Flags: HMW
LayerCount: 2
Fore
SplineSet
447.1796875 407.620117188 m 1
 429.290039062 388.700195312 l 1
 442.540039062 361.969726562 450 331.860351562 450 300 c 2
 450 200 l 2
 450 139.169921875 422.849609375 84.6904296875 380 48.01953125 c 0
 345.040039062 18.0703125 299.629882812 0 250 0 c 0
 200.370117188 0 154.959960938 18.0703125 120 48.01953125 c 0
 117.650390625 50.0400390625 115.349609375 52.1201171875 113.08984375 54.240234375 c 2
 103.690429688 44.2900390625 l 1
 52.8203125 92.3798828125 l 1
 70.7099609375 111.299804688 l 1
 57.4599609375 138.030273438 50 168.139648438 50 200 c 2
 50 300 l 2
 50 360.830078125 77.150390625 415.309570312 120 451.98046875 c 0
 154.959960938 481.9296875 200.370117188 500 250 500 c 0
 299.629882812 500 345.040039062 481.9296875 380 451.98046875 c 0
 382.349609375 449.959960938 384.650390625 447.879882812 386.91015625 445.759765625 c 2
 396.309570312 455.709960938 l 1
 447.1796875 407.620117188 l 1
120 200 m 2
 120 188.860351562 121.400390625 178.040039062 124.040039062 167.719726562 c 1
 338.830078125 394.91015625 l 1
 315.58984375 416.669921875 284.349609375 430 250 430 c 0
 178.200195312 430 120 371.799804688 120 300 c 2
 120 200 l 2
380 300 m 2
 380 311.139648438 378.599609375 321.959960938 375.959960938 332.280273438 c 1
 161.169921875 105.08984375 l 1
 184.41015625 83.330078125 215.650390625 70 250 70 c 0
 321.799804688 70 380 128.200195312 380 200 c 2
 380 300 l 2
EndSplineSet
Validated: 524289
EndChar

StartChar: ugrave
Encoding: 249 249 182
Width: 500
Flags: HMW
LayerCount: 2
Fore
SplineSet
250 535 m 1
 180 700 l 1
 250 700 l 1
 320 535 l 1
 250 535 l 1
380 351.98046875 m 1
 380 490 l 1
 450 490 l 1
 450 200 l 2
 450 139.169921875 422.849609375 84.6904296875 380 48.01953125 c 0
 345.040039062 18.0703125 299.629882812 0 250 0 c 0
 200.370117188 0 154.959960938 18.0703125 120 48.01953125 c 0
 77.150390625 84.6904296875 50 139.169921875 50 200 c 2
 50 490 l 1
 120 490 l 1
 120 351.98046875 l 1
 120 200 l 2
 120 128.200195312 178.200195312 70 250 70 c 0
 321.799804688 70 380 128.200195312 380 200 c 2
 380 351.98046875 l 1
EndSplineSet
Validated: 524289
EndChar

StartChar: uacute
Encoding: 250 250 183
Width: 500
Flags: HMW
LayerCount: 2
Fore
SplineSet
180 535 m 1
 250 700 l 1
 320 700 l 1
 250 535 l 1
 180 535 l 1
380 351.98046875 m 1
 380 490 l 1
 450 490 l 1
 450 200 l 2
 450 139.169921875 422.849609375 84.6904296875 380 48.01953125 c 0
 345.040039062 18.0703125 299.629882812 0 250 0 c 0
 200.370117188 0 154.959960938 18.0703125 120 48.01953125 c 0
 77.150390625 84.6904296875 50 139.169921875 50 200 c 2
 50 490 l 1
 120 490 l 1
 120 351.98046875 l 1
 120 200 l 2
 120 128.200195312 178.200195312 70 250 70 c 0
 321.799804688 70 380 128.200195312 380 200 c 2
 380 351.98046875 l 1
EndSplineSet
Validated: 524289
EndChar

StartChar: ucircumflex
Encoding: 251 251 184
Width: 500
Flags: HMW
LayerCount: 2
Fore
SplineSet
350 525 m 1
 250 620 l 1
 150 525 l 1
 150 605 l 1
 250 700 l 1
 350 605 l 1
 350 525 l 1
380 351.98046875 m 1
 380 490 l 1
 450 490 l 1
 450 200 l 2
 450 139.169921875 422.849609375 84.6904296875 380 48.01953125 c 0
 345.040039062 18.0703125 299.629882812 0 250 0 c 0
 200.370117188 0 154.959960938 18.0703125 120 48.01953125 c 0
 77.150390625 84.6904296875 50 139.169921875 50 200 c 2
 50 490 l 1
 120 490 l 1
 120 351.98046875 l 1
 120 200 l 2
 120 128.200195312 178.200195312 70 250 70 c 0
 321.799804688 70 380 128.200195312 380 200 c 2
 380 351.98046875 l 1
EndSplineSet
Validated: 524289
EndChar

StartChar: udieresis
Encoding: 252 252 185
Width: 500
Flags: HMW
LayerCount: 2
Fore
SplineSet
275 612.5 m 0
 275 634.591796875 292.908203125 652.5 315 652.5 c 0
 337.091796875 652.5 355 634.591796875 355 612.5 c 0
 355 590.408203125 337.091796875 572.5 315 572.5 c 0
 292.908203125 572.5 275 590.408203125 275 612.5 c 0
145 612.5 m 0
 145 634.591796875 162.908203125 652.5 185 652.5 c 0
 207.091796875 652.5 225 634.591796875 225 612.5 c 0
 225 590.408203125 207.091796875 572.5 185 572.5 c 0
 162.908203125 572.5 145 590.408203125 145 612.5 c 0
380 351.98046875 m 1
 380 490 l 1
 450 490 l 1
 450 200 l 2
 450 139.169921875 422.849609375 84.6904296875 380 48.01953125 c 0
 345.040039062 18.0703125 299.629882812 0 250 0 c 0
 200.370117188 0 154.959960938 18.0703125 120 48.01953125 c 0
 77.150390625 84.6904296875 50 139.169921875 50 200 c 2
 50 490 l 1
 120 490 l 1
 120 351.98046875 l 1
 120 200 l 2
 120 128.200195312 178.200195312 70 250 70 c 0
 321.799804688 70 380 128.200195312 380 200 c 2
 380 351.98046875 l 1
EndSplineSet
Validated: 524289
EndChar

StartChar: yacute
Encoding: 253 253 186
Width: 500
Flags: HMW
LayerCount: 2
Fore
SplineSet
320 700 m 1
 250 535 l 1
 180 535 l 1
 250 700 l 1
 320 700 l 1
380 451.98046875 m 1
 380 490 l 1
 450 490 l 1
 450 300 l 1
 450 200 l 1
 450 100 l 1
 450 0 l 2
 450 -60.830078125 422.849609375 -115.309570312 380 -151.98046875 c 0
 345.040039062 -181.9296875 299.629882812 -200 250 -200 c 0
 200.370117188 -200 154.959960938 -181.9296875 120 -151.98046875 c 0
 89.3095703125 -125.719726562 66.6796875 -90.3203125 56.3095703125 -50 c 1
 129.969726562 -50 l 1
 149.559570312 -96.98046875 195.919921875 -130 250 -130 c 0
 321.799804688 -130 380 -71.7998046875 380 0 c 2
 380 48.01953125 l 1
 345.040039062 18.0703125 299.629882812 0 250 0 c 0
 200.370117188 0 154.959960938 18.0703125 120 48.01953125 c 0
 89.3095703125 74.2802734375 66.6796875 109.6796875 56.3095703125 150 c 0
 52.1904296875 165.98046875 50 182.73046875 50 200 c 2
 50 278.530273438 l 1
 50 300 l 1
 50 490 l 1
 120 490 l 1
 120 451.98046875 l 1
 120 278.530273438 l 1
 120 200 l 2
 120 182.280273438 123.540039062 165.389648438 129.969726562 150 c 0
 149.549804688 103.01953125 195.919921875 70 250 70 c 0
 304.080078125 70 350.450195312 103.01953125 370.030273438 150 c 0
 376.459960938 165.389648438 380 182.280273438 380 200 c 2
 380 251.98046875 l 1
 380 451.98046875 l 1
EndSplineSet
Validated: 524289
EndChar

StartChar: thorn
Encoding: 254 254 187
Width: 500
Flags: HMW
LayerCount: 2
Fore
SplineSet
380 346.98046875 m 0
 422.849609375 310.309570312 450 255.830078125 450 195 c 2
 450 95 l 2
 450 34.169921875 422.849609375 -20.3095703125 380 -56.98046875 c 0
 345.040039062 -86.9296875 299.629882812 -105 250 -105 c 0
 200.370117188 -105 154.959960938 -86.9296875 120 -56.98046875 c 1
 120 -200 l 1
 50 -200 l 1
 50 95 l 1
 50 195 l 1
 50 490 l 1
 120 490 l 1
 120 346.98046875 l 1
 154.959960938 376.9296875 200.370117188 395 250 395 c 0
 299.629882812 395 345.040039062 376.9296875 380 346.98046875 c 0
380 95 m 2
 380 195 l 2
 380 266.799804688 321.799804688 325 250 325 c 0
 178.200195312 325 120 266.799804688 120 195 c 2
 120 95 l 2
 120 23.2001953125 178.200195312 -35 250 -35 c 0
 321.799804688 -35 380 23.2001953125 380 95 c 2
EndSplineSet
Validated: 524289
EndChar

StartChar: ydieresis
Encoding: 255 255 188
Width: 500
Flags: HMW
LayerCount: 2
Fore
SplineSet
275 617.5 m 0
 275 639.591796875 292.908203125 657.5 315 657.5 c 0
 337.091796875 657.5 355 639.591796875 355 617.5 c 0
 355 595.408203125 337.091796875 577.5 315 577.5 c 0
 292.908203125 577.5 275 595.408203125 275 617.5 c 0
145 617.5 m 0
 145 639.591796875 162.908203125 657.5 185 657.5 c 0
 207.091796875 657.5 225 639.591796875 225 617.5 c 0
 225 595.408203125 207.091796875 577.5 185 577.5 c 0
 162.908203125 577.5 145 595.408203125 145 617.5 c 0
380 451.98046875 m 1
 380 490 l 1
 450 490 l 1
 450 300 l 1
 450 200 l 1
 450 100 l 1
 450 0 l 2
 450 -60.830078125 422.849609375 -115.309570312 380 -151.98046875 c 0
 345.040039062 -181.9296875 299.629882812 -200 250 -200 c 0
 200.370117188 -200 154.959960938 -181.9296875 120 -151.98046875 c 0
 89.3095703125 -125.719726562 66.6796875 -90.3203125 56.3095703125 -50 c 1
 129.969726562 -50 l 1
 149.559570312 -96.98046875 195.919921875 -130 250 -130 c 0
 321.799804688 -130 380 -71.7998046875 380 0 c 2
 380 48.01953125 l 1
 345.040039062 18.0703125 299.629882812 0 250 0 c 0
 200.370117188 0 154.959960938 18.0703125 120 48.01953125 c 0
 89.3095703125 74.2802734375 66.6796875 109.6796875 56.3095703125 150 c 0
 52.1904296875 165.98046875 50 182.73046875 50 200 c 2
 50 278.530273438 l 1
 50 300 l 1
 50 490 l 1
 120 490 l 1
 120 451.98046875 l 1
 120 278.530273438 l 1
 120 200 l 2
 120 182.280273438 123.540039062 165.389648438 129.969726562 150 c 0
 149.549804688 103.01953125 195.919921875 70 250 70 c 0
 304.080078125 70 350.450195312 103.01953125 370.030273438 150 c 0
 376.459960938 165.389648438 380 182.280273438 380 200 c 2
 380 251.98046875 l 1
 380 451.98046875 l 1
EndSplineSet
Validated: 524289
EndChar

